G75*
G70*
%OFA0B0*%
%FSLAX24Y24*%
%IPPOS*%
%LPD*%
%AMOC8*
5,1,8,0,0,1.08239X$1,22.5*
%
%ADD10C,0.0000*%
%ADD11C,0.0080*%
%ADD12C,0.0100*%
%ADD13C,0.0010*%
%ADD14C,0.0020*%
%ADD15C,0.0050*%
D10*
X000338Y000419D02*
X006244Y000419D01*
X006244Y007909D01*
X000338Y007909D01*
X000338Y000419D01*
D11*
X001378Y001428D02*
X001378Y005137D01*
X005091Y005137D01*
X005091Y001428D01*
X001378Y001428D01*
D12*
X001563Y004759D02*
X001565Y004786D01*
X001571Y004813D01*
X001580Y004839D01*
X001593Y004863D01*
X001609Y004886D01*
X001628Y004905D01*
X001650Y004922D01*
X001674Y004936D01*
X001699Y004946D01*
X001726Y004953D01*
X001753Y004956D01*
X001781Y004955D01*
X001808Y004950D01*
X001834Y004942D01*
X001858Y004930D01*
X001881Y004914D01*
X001902Y004896D01*
X001919Y004875D01*
X001934Y004851D01*
X001945Y004826D01*
X001953Y004800D01*
X001957Y004773D01*
X001957Y004745D01*
X001953Y004718D01*
X001945Y004692D01*
X001934Y004667D01*
X001919Y004643D01*
X001902Y004622D01*
X001881Y004604D01*
X001859Y004588D01*
X001834Y004576D01*
X001808Y004568D01*
X001781Y004563D01*
X001753Y004562D01*
X001726Y004565D01*
X001699Y004572D01*
X001674Y004582D01*
X001650Y004596D01*
X001628Y004613D01*
X001609Y004632D01*
X001593Y004655D01*
X001580Y004679D01*
X001571Y004705D01*
X001565Y004732D01*
X001563Y004759D01*
D13*
X001246Y005029D02*
X001246Y005154D01*
X001146Y005154D02*
X001146Y005029D01*
X001171Y005004D01*
X001221Y005004D01*
X001246Y005029D01*
X001099Y005004D02*
X000998Y005004D01*
X001048Y005004D02*
X001048Y005154D01*
X001099Y005104D01*
D14*
X000756Y007049D02*
X000576Y007049D01*
X000636Y007049D02*
X000636Y007139D01*
X000666Y007169D01*
X000726Y007169D01*
X000756Y007139D01*
X000756Y007049D01*
X000636Y007109D02*
X000576Y007169D01*
X000576Y007233D02*
X000756Y007233D01*
X000576Y007353D01*
X000756Y007353D01*
X000666Y007417D02*
X000666Y007537D01*
X000756Y007507D02*
X000666Y007417D01*
X000576Y007507D02*
X000756Y007507D01*
X001896Y007503D02*
X001896Y007443D01*
X001926Y007413D01*
X001896Y007349D02*
X002076Y007349D01*
X002046Y007413D02*
X002076Y007443D01*
X002076Y007503D01*
X002046Y007533D01*
X002016Y007533D01*
X001986Y007503D01*
X001956Y007533D01*
X001926Y007533D01*
X001896Y007503D01*
X001986Y007503D02*
X001986Y007473D01*
X001896Y007349D02*
X002076Y007229D01*
X001896Y007229D01*
X001896Y007165D02*
X001956Y007105D01*
X001956Y007135D02*
X001956Y007045D01*
X001896Y007045D02*
X002076Y007045D01*
X002076Y007135D01*
X002046Y007165D01*
X001986Y007165D01*
X001956Y007135D01*
X003096Y007165D02*
X003156Y007105D01*
X003156Y007135D02*
X003156Y007045D01*
X003096Y007045D02*
X003276Y007045D01*
X003276Y007135D01*
X003246Y007165D01*
X003186Y007165D01*
X003156Y007135D01*
X003096Y007229D02*
X003276Y007229D01*
X003096Y007349D01*
X003276Y007349D01*
X003246Y007413D02*
X003276Y007443D01*
X003276Y007503D01*
X003246Y007533D01*
X003216Y007533D01*
X003096Y007413D01*
X003096Y007533D01*
X004356Y007533D02*
X004356Y007413D01*
X004356Y007473D02*
X004536Y007473D01*
X004476Y007413D01*
X004536Y007349D02*
X004356Y007349D01*
X004536Y007229D01*
X004356Y007229D01*
X004356Y007165D02*
X004416Y007105D01*
X004416Y007135D02*
X004416Y007045D01*
X004356Y007045D02*
X004536Y007045D01*
X004536Y007135D01*
X004506Y007165D01*
X004446Y007165D01*
X004416Y007135D01*
D15*
X004238Y006720D02*
X004120Y006720D01*
X004238Y006720D02*
X004238Y006248D01*
X004120Y006248D01*
X004634Y006248D02*
X004634Y006720D01*
X004752Y006720D01*
X004752Y006248D02*
X004634Y006248D01*
X005382Y006248D02*
X005500Y006248D01*
X005500Y006720D01*
X005382Y006720D01*
X003490Y006720D02*
X003372Y006720D01*
X003372Y006248D01*
X003490Y006248D01*
X002986Y006248D02*
X002868Y006248D01*
X002986Y006248D02*
X002986Y006720D01*
X002868Y006720D01*
X002238Y006720D02*
X002120Y006720D01*
X002120Y006248D01*
X002238Y006248D01*
X001734Y006248D02*
X001616Y006248D01*
X001734Y006248D02*
X001734Y006720D01*
X001616Y006720D01*
X000986Y006720D02*
X000868Y006720D01*
X000868Y006248D01*
X000986Y006248D01*
M02*
