G75*
G70*
%OFA0B0*%
%FSLAX24Y24*%
%IPPOS*%
%LPD*%
%AMOC8*
5,1,8,0,0,1.08239X$1,22.5*
%
%ADD10C,0.0000*%
%ADD11C,0.0020*%
%ADD12C,0.0050*%
%ADD13C,0.0060*%
%ADD14C,0.0030*%
D10*
X000338Y000419D02*
X006244Y000419D01*
X006244Y007909D01*
X000338Y007909D01*
X000338Y000419D01*
D11*
X000711Y000765D02*
X000861Y000765D01*
X000891Y000795D01*
X000891Y000855D01*
X000861Y000885D01*
X000711Y000885D01*
X000741Y000949D02*
X000711Y000979D01*
X000711Y001039D01*
X000741Y001069D01*
X000771Y001069D01*
X000891Y000949D01*
X000891Y001069D01*
X001094Y001368D02*
X001064Y001398D01*
X001064Y001458D01*
X001094Y001488D01*
X001094Y001552D02*
X001064Y001582D01*
X001064Y001642D01*
X001094Y001672D01*
X001124Y001672D01*
X001154Y001642D01*
X001184Y001672D01*
X001214Y001672D01*
X001244Y001642D01*
X001244Y001582D01*
X001214Y001552D01*
X001214Y001488D02*
X001244Y001458D01*
X001244Y001398D01*
X001214Y001368D01*
X001094Y001368D01*
X001154Y001612D02*
X001154Y001642D01*
X001184Y001736D02*
X001154Y001766D01*
X001154Y001826D01*
X001184Y001856D01*
X001214Y001856D01*
X001244Y001826D01*
X001244Y001766D01*
X001214Y001736D01*
X001184Y001736D01*
X001154Y001766D02*
X001124Y001736D01*
X001094Y001736D01*
X001064Y001766D01*
X001064Y001826D01*
X001094Y001856D01*
X001124Y001856D01*
X001154Y001826D01*
X001232Y001880D02*
X001262Y001850D01*
X001322Y001850D01*
X001352Y001880D01*
X001416Y001850D02*
X001536Y001850D01*
X001476Y001850D02*
X001476Y002030D01*
X001416Y001970D01*
X001352Y002000D02*
X001322Y002030D01*
X001262Y002030D01*
X001232Y002000D01*
X001232Y001880D01*
X001600Y001850D02*
X001720Y001850D01*
X001660Y001850D02*
X001660Y002030D01*
X001600Y001970D01*
X001955Y002375D02*
X002015Y002375D01*
X002045Y002405D01*
X002109Y002405D02*
X002109Y002435D01*
X002139Y002465D01*
X002199Y002465D01*
X002229Y002435D01*
X002229Y002405D01*
X002199Y002375D01*
X002139Y002375D01*
X002109Y002405D01*
X002139Y002465D02*
X002109Y002495D01*
X002109Y002525D01*
X002139Y002555D01*
X002199Y002555D01*
X002229Y002525D01*
X002229Y002495D01*
X002199Y002465D01*
X002045Y002525D02*
X002015Y002555D01*
X001955Y002555D01*
X001925Y002525D01*
X001925Y002405D01*
X001955Y002375D01*
X001669Y002524D02*
X001669Y002584D01*
X001639Y002614D01*
X001639Y002678D02*
X001669Y002708D01*
X001669Y002768D01*
X001639Y002798D01*
X001608Y002798D01*
X001578Y002768D01*
X001578Y002738D01*
X001578Y002768D02*
X001548Y002798D01*
X001518Y002798D01*
X001488Y002768D01*
X001488Y002708D01*
X001518Y002678D01*
X001518Y002614D02*
X001488Y002584D01*
X001488Y002524D01*
X001518Y002494D01*
X001639Y002494D01*
X001669Y002524D01*
X001669Y002862D02*
X001639Y002862D01*
X001518Y002982D01*
X001488Y002982D01*
X001488Y002862D01*
X001255Y003269D02*
X001195Y003269D01*
X001165Y003299D01*
X001285Y003420D01*
X001285Y003299D01*
X001255Y003269D01*
X001165Y003299D02*
X001165Y003420D01*
X001195Y003450D01*
X001255Y003450D01*
X001285Y003420D01*
X001101Y003420D02*
X001101Y003389D01*
X000980Y003269D01*
X001101Y003269D01*
X001101Y003420D02*
X001071Y003450D01*
X001011Y003450D01*
X000980Y003420D01*
X000916Y003420D02*
X000886Y003450D01*
X000826Y003450D01*
X000796Y003420D01*
X000796Y003299D01*
X000826Y003269D01*
X000886Y003269D01*
X000916Y003299D01*
X000890Y003048D02*
X000830Y003048D01*
X000800Y003018D01*
X000800Y002898D01*
X000830Y002868D01*
X000890Y002868D01*
X000920Y002898D01*
X000984Y002898D02*
X001014Y002868D01*
X001075Y002868D01*
X001105Y002898D01*
X001105Y002928D01*
X001075Y002958D01*
X001044Y002958D01*
X001075Y002958D02*
X001105Y002988D01*
X001105Y003018D01*
X001075Y003048D01*
X001014Y003048D01*
X000984Y003018D01*
X000920Y003018D02*
X000890Y003048D01*
X000866Y002544D02*
X000806Y002544D01*
X000776Y002514D01*
X000712Y002514D02*
X000682Y002544D01*
X000622Y002544D01*
X000592Y002514D01*
X000592Y002394D01*
X000622Y002364D01*
X000682Y002364D01*
X000712Y002394D01*
X000776Y002364D02*
X000896Y002484D01*
X000896Y002514D01*
X000866Y002544D01*
X000896Y002364D02*
X000776Y002364D01*
X001776Y003526D02*
X001746Y003556D01*
X001746Y003676D01*
X001776Y003706D01*
X001836Y003706D01*
X001866Y003676D01*
X001930Y003616D02*
X002050Y003616D01*
X002114Y003556D02*
X002114Y003676D01*
X002144Y003706D01*
X002204Y003706D01*
X002234Y003676D01*
X002114Y003556D01*
X002144Y003526D01*
X002204Y003526D01*
X002234Y003556D01*
X002234Y003676D01*
X002020Y003706D02*
X002020Y003526D01*
X001930Y003616D02*
X002020Y003706D01*
X001866Y003556D02*
X001836Y003526D01*
X001776Y003526D01*
X001957Y003132D02*
X001927Y003102D01*
X001927Y002982D01*
X001957Y002952D01*
X002017Y002952D01*
X002047Y002982D01*
X002111Y002982D02*
X002141Y002952D01*
X002201Y002952D01*
X002231Y002982D01*
X002231Y003012D01*
X002201Y003042D01*
X002171Y003042D01*
X002201Y003042D02*
X002231Y003072D01*
X002231Y003102D01*
X002201Y003132D01*
X002141Y003132D01*
X002111Y003102D01*
X002047Y003102D02*
X002017Y003132D01*
X001957Y003132D01*
X002295Y003042D02*
X002295Y002982D01*
X002325Y002952D01*
X002385Y002952D01*
X002415Y002982D01*
X002415Y003012D01*
X002385Y003042D01*
X002295Y003042D01*
X002355Y003102D01*
X002415Y003132D01*
X002882Y003550D02*
X002882Y003670D01*
X002912Y003700D01*
X002973Y003700D01*
X003003Y003670D01*
X003067Y003700D02*
X003067Y003610D01*
X003127Y003640D01*
X003157Y003640D01*
X003187Y003610D01*
X003187Y003550D01*
X003157Y003520D01*
X003097Y003520D01*
X003067Y003550D01*
X003003Y003550D02*
X002973Y003520D01*
X002912Y003520D01*
X002882Y003550D01*
X003067Y003700D02*
X003187Y003700D01*
X003251Y003670D02*
X003281Y003700D01*
X003341Y003700D01*
X003371Y003670D01*
X003371Y003640D01*
X003251Y003520D01*
X003371Y003520D01*
X003859Y003999D02*
X003829Y004029D01*
X003829Y004089D01*
X003859Y004119D01*
X003829Y004183D02*
X003919Y004183D01*
X003889Y004243D01*
X003889Y004273D01*
X003919Y004303D01*
X003979Y004303D01*
X004009Y004273D01*
X004009Y004213D01*
X003979Y004183D01*
X003979Y004119D02*
X004009Y004089D01*
X004009Y004029D01*
X003979Y003999D01*
X003859Y003999D01*
X003829Y004183D02*
X003829Y004303D01*
X003859Y004368D02*
X003829Y004398D01*
X003829Y004458D01*
X003859Y004488D01*
X003979Y004368D01*
X004009Y004398D01*
X004009Y004458D01*
X003979Y004488D01*
X003859Y004488D01*
X003859Y004368D02*
X003979Y004368D01*
X004229Y004357D02*
X004229Y004237D01*
X004259Y004207D01*
X004319Y004207D01*
X004349Y004237D01*
X004413Y004207D02*
X004533Y004207D01*
X004473Y004207D02*
X004473Y004387D01*
X004413Y004327D01*
X004349Y004357D02*
X004319Y004387D01*
X004259Y004387D01*
X004229Y004357D01*
X004259Y003969D02*
X004229Y003939D01*
X004229Y003818D01*
X004259Y003788D01*
X004319Y003788D01*
X004349Y003818D01*
X004413Y003788D02*
X004533Y003788D01*
X004473Y003788D02*
X004473Y003969D01*
X004413Y003909D01*
X004349Y003939D02*
X004319Y003969D01*
X004259Y003969D01*
X004597Y003939D02*
X004597Y003909D01*
X004627Y003879D01*
X004687Y003879D01*
X004717Y003848D01*
X004717Y003818D01*
X004687Y003788D01*
X004627Y003788D01*
X004597Y003818D01*
X004597Y003848D01*
X004627Y003879D01*
X004687Y003879D02*
X004717Y003909D01*
X004717Y003939D01*
X004687Y003969D01*
X004627Y003969D01*
X004597Y003939D01*
X004627Y004207D02*
X004687Y004207D01*
X004717Y004237D01*
X004717Y004267D01*
X004687Y004297D01*
X004597Y004297D01*
X004597Y004237D01*
X004627Y004207D01*
X004597Y004297D02*
X004657Y004357D01*
X004717Y004387D01*
X005019Y004703D02*
X004989Y004733D01*
X004989Y004793D01*
X005019Y004823D01*
X005049Y004887D02*
X004989Y004947D01*
X005169Y004947D01*
X005169Y004887D02*
X005169Y005007D01*
X005079Y005071D02*
X005079Y005191D01*
X004989Y005161D02*
X005079Y005071D01*
X005169Y005161D02*
X004989Y005161D01*
X005129Y005381D02*
X005129Y005561D01*
X005219Y005561D01*
X005249Y005531D01*
X005249Y005471D01*
X005219Y005441D01*
X005129Y005441D01*
X005189Y005441D02*
X005249Y005381D01*
X005313Y005381D02*
X005433Y005501D01*
X005433Y005531D01*
X005403Y005561D01*
X005343Y005561D01*
X005313Y005531D01*
X005313Y005381D02*
X005433Y005381D01*
X005497Y005411D02*
X005617Y005531D01*
X005617Y005411D01*
X005587Y005381D01*
X005527Y005381D01*
X005497Y005411D01*
X005497Y005531D01*
X005527Y005561D01*
X005587Y005561D01*
X005617Y005531D01*
X005853Y005516D02*
X005883Y005485D01*
X006003Y005485D01*
X006033Y005516D01*
X006033Y005576D01*
X006003Y005606D01*
X006003Y005670D02*
X006033Y005700D01*
X006033Y005760D01*
X006003Y005790D01*
X005943Y005790D01*
X005913Y005760D01*
X005913Y005730D01*
X005943Y005670D01*
X005853Y005670D01*
X005853Y005790D01*
X005913Y005854D02*
X005853Y005914D01*
X006033Y005914D01*
X006033Y005854D02*
X006033Y005974D01*
X006010Y006239D02*
X005890Y006239D01*
X005950Y006239D02*
X005950Y006419D01*
X005890Y006359D01*
X005826Y006389D02*
X005826Y006329D01*
X005796Y006299D01*
X005705Y006299D01*
X005705Y006239D02*
X005705Y006419D01*
X005796Y006419D01*
X005826Y006389D01*
X005838Y006544D02*
X005718Y006544D01*
X005778Y006544D02*
X005778Y006724D01*
X005718Y006664D01*
X005654Y006634D02*
X005624Y006604D01*
X005534Y006604D01*
X005534Y006544D02*
X005534Y006724D01*
X005624Y006724D01*
X005654Y006694D01*
X005654Y006634D01*
X005594Y006604D02*
X005654Y006544D01*
X005766Y006299D02*
X005826Y006239D01*
X006074Y006239D02*
X006074Y006269D01*
X006194Y006389D01*
X006194Y006419D01*
X006074Y006419D01*
X005992Y006544D02*
X005932Y006544D01*
X005902Y006574D01*
X005902Y006604D01*
X005932Y006634D01*
X005992Y006634D01*
X006022Y006604D01*
X006022Y006574D01*
X005992Y006544D01*
X005992Y006634D02*
X006022Y006664D01*
X006022Y006694D01*
X005992Y006724D01*
X005932Y006724D01*
X005902Y006694D01*
X005902Y006664D01*
X005932Y006634D01*
X005883Y005606D02*
X005853Y005576D01*
X005853Y005516D01*
X005881Y004986D02*
X006001Y004866D01*
X006031Y004896D01*
X006031Y004956D01*
X006001Y004986D01*
X005881Y004986D01*
X005851Y004956D01*
X005851Y004896D01*
X005881Y004866D01*
X006001Y004866D01*
X006001Y004802D02*
X006031Y004772D01*
X006031Y004712D01*
X006001Y004681D01*
X006001Y004617D02*
X006031Y004587D01*
X006031Y004527D01*
X006001Y004497D01*
X005881Y004497D01*
X005851Y004527D01*
X005851Y004587D01*
X005881Y004617D01*
X005881Y004681D02*
X005851Y004712D01*
X005851Y004772D01*
X005881Y004802D01*
X005911Y004802D01*
X005941Y004772D01*
X005971Y004802D01*
X006001Y004802D01*
X005941Y004772D02*
X005941Y004742D01*
X005552Y004741D02*
X005372Y004741D01*
X005432Y004681D01*
X005402Y004617D02*
X005372Y004587D01*
X005372Y004527D01*
X005402Y004497D01*
X005522Y004497D01*
X005552Y004527D01*
X005552Y004587D01*
X005522Y004617D01*
X005552Y004681D02*
X005552Y004801D01*
X005522Y004865D02*
X005552Y004895D01*
X005552Y004955D01*
X005522Y004985D01*
X005492Y004985D01*
X005462Y004955D01*
X005462Y004925D01*
X005462Y004955D02*
X005432Y004985D01*
X005402Y004985D01*
X005372Y004955D01*
X005372Y004895D01*
X005402Y004865D01*
X005169Y004793D02*
X005139Y004823D01*
X005169Y004793D02*
X005169Y004733D01*
X005139Y004703D01*
X005019Y004703D01*
X004684Y004908D02*
X004654Y004878D01*
X004594Y004878D01*
X004564Y004908D01*
X004564Y004968D02*
X004624Y004998D01*
X004654Y004998D01*
X004684Y004968D01*
X004684Y004908D01*
X004684Y005058D02*
X004564Y005058D01*
X004564Y004968D01*
X004500Y004878D02*
X004380Y004878D01*
X004440Y004878D02*
X004440Y005058D01*
X004380Y004998D01*
X004316Y005028D02*
X004286Y005058D01*
X004226Y005058D01*
X004196Y005028D01*
X004196Y004908D01*
X004226Y004878D01*
X004286Y004878D01*
X004316Y004908D01*
X004370Y005379D02*
X004370Y005559D01*
X004460Y005559D01*
X004490Y005529D01*
X004490Y005469D01*
X004460Y005439D01*
X004370Y005439D01*
X004430Y005439D02*
X004490Y005379D01*
X004554Y005379D02*
X004674Y005379D01*
X004614Y005379D02*
X004614Y005559D01*
X004554Y005499D01*
X004738Y005499D02*
X004768Y005469D01*
X004858Y005469D01*
X004858Y005409D02*
X004858Y005529D01*
X004828Y005559D01*
X004768Y005559D01*
X004738Y005529D01*
X004738Y005499D01*
X004738Y005409D02*
X004768Y005379D01*
X004828Y005379D01*
X004858Y005409D01*
X005713Y004111D02*
X005683Y004081D01*
X005683Y003961D01*
X005713Y003931D01*
X005773Y003931D01*
X005803Y003961D01*
X005867Y003961D02*
X005897Y003931D01*
X005957Y003931D01*
X005987Y003961D01*
X005987Y003991D01*
X005957Y004021D01*
X005927Y004021D01*
X005957Y004021D02*
X005987Y004051D01*
X005987Y004081D01*
X005957Y004111D01*
X005897Y004111D01*
X005867Y004081D01*
X005803Y004081D02*
X005773Y004111D01*
X005713Y004111D01*
X006051Y004051D02*
X006111Y004111D01*
X006111Y003931D01*
X006051Y003931D02*
X006171Y003931D01*
X006136Y003713D02*
X006076Y003713D01*
X006046Y003683D01*
X005982Y003683D02*
X005982Y003653D01*
X005952Y003623D01*
X005982Y003593D01*
X005982Y003563D01*
X005952Y003533D01*
X005891Y003533D01*
X005861Y003563D01*
X005797Y003563D02*
X005767Y003533D01*
X005707Y003533D01*
X005677Y003563D01*
X005677Y003683D01*
X005707Y003713D01*
X005767Y003713D01*
X005797Y003683D01*
X005861Y003683D02*
X005891Y003713D01*
X005952Y003713D01*
X005982Y003683D01*
X005952Y003623D02*
X005921Y003623D01*
X006046Y003563D02*
X006076Y003533D01*
X006136Y003533D01*
X006166Y003563D01*
X006166Y003593D01*
X006136Y003623D01*
X006106Y003623D01*
X006136Y003623D02*
X006166Y003653D01*
X006166Y003683D01*
X006136Y003713D01*
X005576Y003185D02*
X005576Y003155D01*
X005455Y003034D01*
X005455Y003004D01*
X005391Y003034D02*
X005361Y003004D01*
X005301Y003004D01*
X005271Y003034D01*
X005271Y003155D01*
X005301Y003185D01*
X005361Y003185D01*
X005391Y003155D01*
X005455Y003185D02*
X005576Y003185D01*
X005296Y003476D02*
X005326Y003506D01*
X005326Y003566D01*
X005296Y003596D01*
X005296Y003660D02*
X005326Y003690D01*
X005326Y003750D01*
X005296Y003780D01*
X005266Y003780D01*
X005236Y003750D01*
X005236Y003720D01*
X005236Y003750D02*
X005206Y003780D01*
X005176Y003780D01*
X005146Y003750D01*
X005146Y003690D01*
X005176Y003660D01*
X005176Y003596D02*
X005146Y003566D01*
X005146Y003506D01*
X005176Y003476D01*
X005296Y003476D01*
X005326Y003844D02*
X005206Y003964D01*
X005176Y003964D01*
X005146Y003934D01*
X005146Y003874D01*
X005176Y003844D01*
X005326Y003844D02*
X005326Y003964D01*
X004565Y003506D02*
X004565Y003476D01*
X004445Y003356D01*
X004445Y003326D01*
X004381Y003326D02*
X004261Y003326D01*
X004321Y003326D02*
X004321Y003506D01*
X004261Y003446D01*
X004197Y003476D02*
X004167Y003506D01*
X004107Y003506D01*
X004077Y003476D01*
X004077Y003356D01*
X004107Y003326D01*
X004167Y003326D01*
X004197Y003356D01*
X004445Y003506D02*
X004565Y003506D01*
X004708Y002914D02*
X004708Y002794D01*
X004708Y002854D02*
X004528Y002854D01*
X004588Y002794D01*
X004558Y002730D02*
X004528Y002700D01*
X004528Y002640D01*
X004558Y002610D01*
X004678Y002610D01*
X004708Y002640D01*
X004708Y002700D01*
X004678Y002730D01*
X004618Y001984D02*
X004618Y001864D01*
X004528Y001954D01*
X004708Y001954D01*
X004678Y001800D02*
X004708Y001770D01*
X004708Y001710D01*
X004678Y001680D01*
X004558Y001680D01*
X004528Y001710D01*
X004528Y001770D01*
X004558Y001800D01*
X005079Y001134D02*
X005169Y001044D01*
X005169Y001164D01*
X005259Y001134D02*
X005079Y001134D01*
X005109Y000980D02*
X005139Y000980D01*
X005169Y000949D01*
X005199Y000980D01*
X005229Y000980D01*
X005259Y000949D01*
X005259Y000889D01*
X005229Y000859D01*
X005229Y000795D02*
X005259Y000765D01*
X005259Y000705D01*
X005229Y000675D01*
X005109Y000675D01*
X005079Y000705D01*
X005079Y000765D01*
X005109Y000795D01*
X005109Y000859D02*
X005079Y000889D01*
X005079Y000949D01*
X005109Y000980D01*
X005169Y000949D02*
X005169Y000919D01*
X004693Y000927D02*
X004663Y000896D01*
X004693Y000927D02*
X004693Y000987D01*
X004663Y001017D01*
X004603Y001017D01*
X004573Y000987D01*
X004573Y000957D01*
X004603Y000896D01*
X004512Y000896D01*
X004512Y001017D01*
X004543Y000832D02*
X004573Y000832D01*
X004603Y000802D01*
X004633Y000832D01*
X004663Y000832D01*
X004693Y000802D01*
X004693Y000742D01*
X004663Y000712D01*
X004663Y000648D02*
X004693Y000618D01*
X004693Y000558D01*
X004663Y000528D01*
X004543Y000528D01*
X004512Y000558D01*
X004512Y000618D01*
X004543Y000648D01*
X004543Y000712D02*
X004512Y000742D01*
X004512Y000802D01*
X004543Y000832D01*
X004603Y000802D02*
X004603Y000772D01*
X003606Y001786D02*
X003486Y001786D01*
X003606Y001906D01*
X003606Y001936D01*
X003576Y001966D01*
X003516Y001966D01*
X003486Y001936D01*
X003422Y001936D02*
X003392Y001966D01*
X003332Y001966D01*
X003302Y001936D01*
X003302Y001906D01*
X003332Y001876D01*
X003392Y001876D01*
X003422Y001846D01*
X003422Y001816D01*
X003392Y001786D01*
X003332Y001786D01*
X003302Y001816D01*
X002303Y001843D02*
X002303Y001963D01*
X002273Y001993D01*
X002213Y001993D01*
X002183Y001963D01*
X002183Y001933D01*
X002213Y001903D01*
X002303Y001903D01*
X002303Y001843D02*
X002273Y001813D01*
X002213Y001813D01*
X002183Y001843D01*
X002119Y001843D02*
X002089Y001813D01*
X002029Y001813D01*
X001999Y001843D01*
X001999Y001963D01*
X002029Y001993D01*
X002089Y001993D01*
X002119Y001963D01*
X001044Y003734D02*
X000984Y003734D01*
X000954Y003764D01*
X000984Y003824D02*
X001074Y003824D01*
X001074Y003884D02*
X001044Y003914D01*
X000984Y003914D01*
X000954Y003884D01*
X000954Y003854D01*
X000984Y003824D01*
X001074Y003764D02*
X001074Y003884D01*
X001074Y003764D02*
X001044Y003734D01*
X000890Y003734D02*
X000770Y003734D01*
X000830Y003734D02*
X000830Y003914D01*
X000770Y003854D01*
X000706Y003884D02*
X000676Y003914D01*
X000616Y003914D01*
X000586Y003884D01*
X000586Y003764D01*
X000616Y003734D01*
X000676Y003734D01*
X000706Y003764D01*
X000824Y004241D02*
X000794Y004271D01*
X000794Y004391D01*
X000824Y004421D01*
X000884Y004421D01*
X000914Y004391D01*
X000978Y004391D02*
X001008Y004421D01*
X001068Y004421D01*
X001098Y004391D01*
X001098Y004361D01*
X000978Y004241D01*
X001098Y004241D01*
X001162Y004241D02*
X001282Y004361D01*
X001282Y004391D01*
X001252Y004421D01*
X001192Y004421D01*
X001162Y004391D01*
X001162Y004241D02*
X001282Y004241D01*
X001545Y004506D02*
X001605Y004506D01*
X001635Y004536D01*
X001699Y004506D02*
X001820Y004626D01*
X001820Y004656D01*
X001790Y004686D01*
X001729Y004686D01*
X001699Y004656D01*
X001635Y004656D02*
X001605Y004686D01*
X001545Y004686D01*
X001515Y004656D01*
X001515Y004536D01*
X001545Y004506D01*
X001699Y004506D02*
X001820Y004506D01*
X001884Y004506D02*
X002004Y004506D01*
X001944Y004506D02*
X001944Y004686D01*
X001884Y004626D01*
X001905Y004929D02*
X001868Y004966D01*
X001905Y005002D01*
X002015Y005002D01*
X002015Y005039D02*
X002015Y004929D01*
X001905Y004929D01*
X002015Y005039D02*
X001978Y005076D01*
X001905Y005076D01*
X002089Y005076D02*
X002199Y005076D01*
X002236Y005039D01*
X002236Y004966D01*
X002199Y004929D01*
X002089Y004929D01*
X002089Y005149D01*
X002088Y005289D02*
X001978Y005289D01*
X001942Y005326D01*
X001942Y005436D01*
X001867Y005436D02*
X001757Y005436D01*
X001721Y005399D01*
X001721Y005326D01*
X001757Y005289D01*
X001867Y005289D01*
X001867Y005509D01*
X002088Y005436D02*
X002088Y005289D01*
X002163Y005289D02*
X002236Y005289D01*
X002199Y005289D02*
X002199Y005509D01*
X002163Y005509D01*
X002310Y005399D02*
X002310Y005326D01*
X002347Y005289D01*
X002420Y005289D01*
X002457Y005362D02*
X002310Y005362D01*
X002310Y005399D02*
X002347Y005436D01*
X002420Y005436D01*
X002457Y005399D01*
X002457Y005362D01*
X002992Y004778D02*
X002992Y004628D01*
X003022Y004598D01*
X003082Y004598D01*
X003112Y004628D01*
X003112Y004778D01*
X003176Y004748D02*
X003206Y004778D01*
X003266Y004778D01*
X003296Y004748D01*
X003296Y004718D01*
X003266Y004688D01*
X003296Y004658D01*
X003296Y004628D01*
X003266Y004598D01*
X003206Y004598D01*
X003176Y004628D01*
X003236Y004688D02*
X003266Y004688D01*
X002424Y004037D02*
X002304Y004037D01*
X002364Y004037D02*
X002364Y004218D01*
X002304Y004158D01*
X002240Y004128D02*
X002120Y004128D01*
X002210Y004218D01*
X002210Y004037D01*
X002056Y004068D02*
X002026Y004037D01*
X001966Y004037D01*
X001936Y004068D01*
X001936Y004188D01*
X001966Y004218D01*
X002026Y004218D01*
X002056Y004188D01*
X001794Y004929D02*
X001647Y004929D01*
X001647Y005149D01*
X001573Y005076D02*
X001463Y005002D01*
X001573Y004929D01*
X001463Y004929D02*
X001463Y005149D01*
X001389Y005076D02*
X001352Y005076D01*
X001279Y005002D01*
X001279Y004929D02*
X001279Y005076D01*
X001204Y005076D02*
X001204Y004929D01*
X001094Y004929D01*
X001058Y004966D01*
X001058Y005076D01*
X000984Y005076D02*
X000910Y005076D01*
X000947Y005112D02*
X000947Y004966D01*
X000984Y004929D01*
X000836Y004929D02*
X000689Y004929D01*
X000836Y005076D01*
X000689Y005076D01*
X000615Y005112D02*
X000578Y005149D01*
X000505Y005149D01*
X000468Y005112D01*
X000468Y004966D01*
X000505Y004929D01*
X000578Y004929D01*
X000615Y004966D01*
X000615Y005112D01*
X000578Y005289D02*
X000468Y005289D01*
X000468Y005509D01*
X000578Y005509D01*
X000615Y005472D01*
X000615Y005436D01*
X000578Y005399D01*
X000468Y005399D01*
X000578Y005399D02*
X000615Y005362D01*
X000615Y005326D01*
X000578Y005289D01*
X000689Y005326D02*
X000689Y005472D01*
X000726Y005509D01*
X000799Y005509D01*
X000836Y005472D01*
X000910Y005509D02*
X000984Y005509D01*
X000947Y005509D02*
X000947Y005289D01*
X000910Y005289D02*
X000984Y005289D01*
X000836Y005326D02*
X000799Y005289D01*
X000726Y005289D01*
X000689Y005326D01*
X001279Y005289D02*
X001279Y005509D01*
X001352Y005436D01*
X001425Y005509D01*
X001425Y005289D01*
X001500Y005326D02*
X001536Y005289D01*
X001610Y005289D01*
X001646Y005326D01*
X001646Y005399D01*
X001610Y005436D01*
X001536Y005436D01*
X001500Y005399D01*
X001500Y005326D01*
X000914Y004271D02*
X000884Y004241D01*
X000824Y004241D01*
X001606Y007022D02*
X001576Y007052D01*
X001606Y007022D02*
X001666Y007022D01*
X001696Y007052D01*
X001696Y007082D01*
X001666Y007112D01*
X001606Y007112D01*
X001576Y007142D01*
X001576Y007173D01*
X001606Y007203D01*
X001666Y007203D01*
X001696Y007173D01*
X001760Y007142D02*
X001820Y007203D01*
X001820Y007022D01*
X001760Y007022D02*
X001880Y007022D01*
X005506Y002744D02*
X005476Y002714D01*
X005476Y002594D01*
X005506Y002564D01*
X005566Y002564D01*
X005596Y002594D01*
X005661Y002594D02*
X005691Y002564D01*
X005751Y002564D01*
X005781Y002594D01*
X005781Y002624D01*
X005751Y002654D01*
X005661Y002654D01*
X005661Y002594D01*
X005661Y002654D02*
X005721Y002714D01*
X005781Y002744D01*
X005596Y002714D02*
X005566Y002744D01*
X005506Y002744D01*
X005737Y001571D02*
X005707Y001541D01*
X005707Y001481D01*
X005737Y001451D01*
X005737Y001571D02*
X005767Y001571D01*
X005888Y001451D01*
X005888Y001571D01*
X005888Y001387D02*
X005888Y001267D01*
X005888Y001327D02*
X005707Y001327D01*
X005767Y001267D01*
X005737Y001203D02*
X005707Y001173D01*
X005707Y001113D01*
X005737Y001083D01*
X005857Y001083D01*
X005888Y001113D01*
X005888Y001173D01*
X005857Y001203D01*
D12*
X006122Y000875D02*
X006122Y001596D01*
X005493Y001595D02*
X005493Y000875D01*
X005326Y000763D02*
X005326Y001053D01*
X005011Y001053D02*
X005011Y000763D01*
X004681Y000814D02*
X004681Y000947D01*
X004484Y000947D02*
X004484Y000814D01*
X004331Y000490D02*
X004331Y001190D01*
X002581Y001190D01*
X002581Y002190D01*
X002831Y002190D01*
X003081Y002190D01*
X003081Y002235D01*
X003081Y002190D02*
X003331Y002190D01*
X003331Y002235D01*
X003331Y002190D02*
X003581Y002190D01*
X003581Y002235D01*
X003581Y002190D02*
X003831Y002190D01*
X004081Y002190D01*
X004331Y002190D01*
X004331Y001190D01*
X004461Y001583D02*
X004461Y001873D01*
X004776Y001873D02*
X004776Y001583D01*
X004081Y002190D02*
X004081Y002235D01*
X003831Y002235D02*
X003831Y002190D01*
X004461Y002513D02*
X004461Y002803D01*
X004776Y002803D02*
X004776Y002513D01*
X005380Y002496D02*
X005670Y002496D01*
X005670Y002811D02*
X005380Y002811D01*
X005373Y003016D02*
X005506Y003016D01*
X005506Y003213D02*
X005373Y003213D01*
X005394Y003631D02*
X005394Y003920D01*
X005079Y003920D02*
X005079Y003631D01*
X004648Y003800D02*
X004515Y003800D01*
X004454Y003574D02*
X004164Y003574D01*
X004164Y003259D02*
X004454Y003259D01*
X004515Y003997D02*
X004648Y003997D01*
X004648Y004219D02*
X004515Y004219D01*
X004515Y004415D02*
X004648Y004415D01*
X004573Y004810D02*
X004283Y004810D01*
X004283Y005125D02*
X004573Y005125D01*
X004616Y005350D02*
X004483Y005350D01*
X004483Y005547D02*
X004616Y005547D01*
X005001Y004950D02*
X005001Y004816D01*
X005198Y004816D02*
X005198Y004950D01*
X005305Y004942D02*
X005305Y004652D01*
X005620Y004652D02*
X005620Y004942D01*
X005784Y004942D02*
X005784Y004652D01*
X006099Y004652D02*
X006099Y004942D01*
X006101Y005573D02*
X006101Y005863D01*
X005952Y006211D02*
X005819Y006211D01*
X005819Y006407D02*
X005952Y006407D01*
X005953Y006556D02*
X005820Y006556D01*
X005820Y006752D02*
X005953Y006752D01*
X005891Y006862D02*
X003416Y006862D01*
X003416Y006687D01*
X003416Y006862D02*
X003166Y006862D01*
X003166Y006687D01*
X003166Y006862D02*
X002916Y006862D01*
X002916Y006687D01*
X002916Y006862D02*
X002666Y006862D01*
X002666Y006687D01*
X002666Y006862D02*
X002416Y006862D01*
X002416Y006687D01*
X002416Y006862D02*
X002166Y006862D01*
X002166Y006687D01*
X002166Y006862D02*
X001916Y006862D01*
X001916Y006687D01*
X001916Y006862D02*
X001666Y006862D01*
X001666Y006687D01*
X001666Y006862D02*
X001416Y006862D01*
X001416Y006687D01*
X001416Y006862D02*
X001166Y006862D01*
X001166Y006687D01*
X001166Y006862D02*
X000691Y006862D01*
X000691Y007862D01*
X005891Y007862D01*
X005891Y006862D01*
X005416Y006862D02*
X005416Y006687D01*
X005166Y006687D02*
X005166Y006862D01*
X004916Y006862D02*
X004916Y006687D01*
X004666Y006687D02*
X004666Y006862D01*
X004416Y006862D02*
X004416Y006687D01*
X004166Y006687D02*
X004166Y006862D01*
X003916Y006862D02*
X003916Y006687D01*
X003666Y006687D02*
X003666Y006862D01*
X005242Y005549D02*
X005376Y005549D01*
X005376Y005352D02*
X005242Y005352D01*
X005786Y005573D02*
X005786Y005863D01*
X005796Y004099D02*
X005930Y004099D01*
X005930Y003902D02*
X005796Y003902D01*
X005790Y003701D02*
X005924Y003701D01*
X005924Y003504D02*
X005790Y003504D01*
X004077Y004087D02*
X004077Y004377D01*
X003762Y004377D02*
X003762Y004087D01*
X003260Y003767D02*
X002970Y003767D01*
X002970Y003452D02*
X003260Y003452D01*
X002372Y003200D02*
X002082Y003200D01*
X002191Y003458D02*
X001901Y003458D01*
X001901Y003773D02*
X002191Y003773D01*
X002183Y004009D02*
X002049Y004009D01*
X002049Y004206D02*
X002183Y004206D01*
X001960Y004438D02*
X001670Y004438D01*
X001670Y004753D02*
X001960Y004753D01*
X001041Y004410D02*
X000907Y004410D01*
X000907Y004213D02*
X001041Y004213D01*
X001031Y003981D02*
X000741Y003981D01*
X000741Y003666D02*
X001031Y003666D01*
X001043Y003438D02*
X000909Y003438D01*
X000909Y003241D02*
X001043Y003241D01*
X001047Y003036D02*
X000913Y003036D01*
X000913Y002839D02*
X001047Y002839D01*
X001037Y002611D02*
X000747Y002611D01*
X000747Y002296D02*
X001037Y002296D01*
X001345Y002018D02*
X001479Y002018D01*
X001479Y001822D02*
X001345Y001822D01*
X002080Y002308D02*
X002370Y002308D01*
X002234Y002021D02*
X002100Y002021D01*
X002100Y001824D02*
X002234Y001824D01*
X002581Y001190D02*
X002581Y000490D01*
X004331Y000490D01*
X002831Y002190D02*
X002831Y002235D01*
X002370Y002623D02*
X002080Y002623D01*
X002082Y002885D02*
X002372Y002885D01*
X001657Y002913D02*
X001657Y002779D01*
X001460Y002779D02*
X001460Y002913D01*
D13*
X001432Y001665D02*
X001432Y001627D01*
X001432Y001665D02*
X002070Y001665D01*
X002070Y001627D01*
X002070Y001310D02*
X002070Y001273D01*
X002070Y000936D02*
X002070Y000899D01*
X002070Y000582D02*
X002070Y000545D01*
X001432Y000545D01*
X001432Y000582D01*
X001432Y000899D02*
X001432Y001310D01*
X002434Y004458D02*
X002434Y004548D01*
X002434Y004788D01*
X002434Y004878D01*
X002434Y004788D02*
X002455Y004786D01*
X002475Y004781D01*
X002494Y004772D01*
X002511Y004760D01*
X002526Y004745D01*
X002538Y004728D01*
X002547Y004709D01*
X002552Y004689D01*
X002554Y004668D01*
X002552Y004647D01*
X002547Y004627D01*
X002538Y004608D01*
X002526Y004591D01*
X002511Y004576D01*
X002494Y004564D01*
X002475Y004555D01*
X002455Y004550D01*
X002434Y004548D01*
X002904Y005008D02*
X003164Y005008D01*
X003634Y004878D02*
X003634Y004458D01*
D14*
X002401Y004156D02*
X002087Y003843D01*
X002087Y004000D02*
X002401Y004000D01*
X002401Y003843D02*
X002087Y004156D01*
X002244Y004156D02*
X002244Y003843D01*
M02*
