G75*
G70*
%OFA0B0*%
%FSLAX24Y24*%
%IPPOS*%
%LPD*%
%AMOC8*
5,1,8,0,0,1.08239X$1,22.5*
%
%ADD10R,0.0354X0.0236*%
%ADD11R,0.0236X0.0354*%
%ADD12R,0.0197X0.0236*%
%ADD13R,0.0630X0.0354*%
%ADD14R,0.0236X0.0197*%
%ADD15R,0.0472X0.0217*%
%ADD16R,0.0551X0.0433*%
%ADD17R,0.0150X0.0300*%
%ADD18R,0.0150X0.0400*%
%ADD19R,0.0220X0.0500*%
D10*
X003919Y003936D03*
X003919Y004527D03*
X004618Y002954D03*
X004618Y002363D03*
X004618Y002024D03*
X004618Y001433D03*
X005169Y001203D03*
X005169Y000612D03*
X005236Y003480D03*
X005236Y004071D03*
X005462Y004502D03*
X005941Y004502D03*
X005941Y005093D03*
X005943Y005423D03*
X005462Y005092D03*
X005943Y006013D03*
D11*
X004723Y004968D03*
X004133Y004968D03*
X003410Y003610D03*
X002820Y003610D03*
X002341Y003616D03*
X002522Y003042D03*
X002520Y002465D03*
X001930Y002465D03*
X001932Y003042D03*
X001751Y003616D03*
X001181Y003824D03*
X000591Y003824D03*
X001520Y004596D03*
X002111Y004596D03*
X001187Y002454D03*
X000596Y002454D03*
X004014Y003416D03*
X004605Y003416D03*
X005229Y002654D03*
X005820Y002654D03*
D12*
X005636Y003114D03*
X005243Y003114D03*
X005660Y003603D03*
X005666Y004001D03*
X006060Y004001D03*
X006054Y003603D03*
X004778Y003898D03*
X004385Y003898D03*
X004385Y004317D03*
X004778Y004317D03*
X004746Y005449D03*
X005112Y005451D03*
X005506Y005451D03*
X005689Y006309D03*
X005690Y006654D03*
X006083Y006654D03*
X006082Y006309D03*
X004353Y005449D03*
X002313Y004107D03*
X001919Y004107D03*
X001171Y004311D03*
X000777Y004311D03*
X000779Y003339D03*
X000783Y002938D03*
X001177Y002938D03*
X001173Y003339D03*
X001215Y001920D03*
X001609Y001920D03*
X001970Y001923D03*
X002364Y001923D03*
D13*
X005808Y001806D03*
X005808Y000664D03*
D14*
X004583Y000684D03*
X004583Y001077D03*
X001559Y002649D03*
X001559Y003043D03*
X005099Y004686D03*
X005099Y005080D03*
D15*
X002263Y001479D03*
X002263Y001105D03*
X002263Y000731D03*
X001239Y000731D03*
X001239Y001479D03*
D16*
X000660Y000730D03*
X000660Y001555D03*
D17*
X002831Y002460D03*
X003081Y002460D03*
X003331Y002460D03*
X003581Y002460D03*
X003831Y002460D03*
X004081Y002460D03*
X004166Y006462D03*
X003916Y006462D03*
X003666Y006462D03*
X003416Y006462D03*
X003166Y006462D03*
X002916Y006462D03*
X002666Y006462D03*
X002416Y006462D03*
X002166Y006462D03*
X001916Y006462D03*
X001666Y006462D03*
X001416Y006462D03*
X001166Y006462D03*
X004416Y006462D03*
X004666Y006462D03*
X004916Y006462D03*
X005166Y006462D03*
X005416Y006462D03*
D18*
X005416Y006012D03*
X005166Y006012D03*
X004916Y006012D03*
X004666Y006012D03*
X004416Y006012D03*
X004166Y006012D03*
X003916Y006012D03*
X003666Y006012D03*
X003416Y006012D03*
X003166Y006012D03*
X002916Y006012D03*
X002666Y006012D03*
X002416Y006012D03*
X002166Y006012D03*
X001916Y006012D03*
X001666Y006012D03*
X001416Y006012D03*
X001166Y006012D03*
X002831Y002910D03*
X003081Y002910D03*
X003331Y002910D03*
X003581Y002910D03*
X003831Y002910D03*
X004081Y002910D03*
D19*
X003404Y004158D03*
X003034Y004158D03*
X002664Y004158D03*
X002664Y005178D03*
X003404Y005178D03*
M02*
