G75*
G70*
%OFA0B0*%
%FSLAX24Y24*%
%IPPOS*%
%LPD*%
%AMOC8*
5,1,8,0,0,1.08239X$1,22.5*
%
%ADD10C,0.0220*%
%ADD11C,0.0060*%
%ADD12C,0.0120*%
D10*
X000658Y001219D03*
X000548Y002019D03*
X000551Y002938D03*
X000505Y003340D03*
X000525Y004314D03*
X001487Y003611D03*
X001489Y003342D03*
X001967Y003611D03*
X002147Y003041D03*
X002548Y003379D03*
X002808Y003249D03*
X003088Y003249D03*
X003398Y003259D03*
X003708Y003299D03*
X003698Y003649D03*
X004268Y003089D03*
X004268Y002879D03*
X004298Y002599D03*
X004298Y002379D03*
X003998Y001979D03*
X004608Y001659D03*
X004992Y001559D03*
X005333Y001568D03*
X004937Y002107D03*
X004898Y002639D03*
X004913Y002957D03*
X004953Y003248D03*
X004945Y003530D03*
X004705Y003687D03*
X004445Y003417D03*
X004388Y004109D03*
X004711Y004539D03*
X004418Y004619D03*
X005015Y004362D03*
X005940Y004294D03*
X005955Y004740D03*
X006058Y003799D03*
X005984Y003052D03*
X006118Y002449D03*
X005993Y002168D03*
X004848Y000609D03*
X003168Y001579D03*
X002598Y001929D03*
X002138Y002459D03*
X001788Y001919D03*
X001558Y002429D03*
X001358Y001079D03*
X002678Y004019D03*
X002368Y004639D03*
X002958Y004799D03*
X003278Y004759D03*
X003648Y004809D03*
X004943Y005429D03*
X005948Y005779D03*
X006075Y006540D03*
X006075Y006880D03*
X005458Y007629D03*
X005168Y007629D03*
X004888Y007629D03*
X004598Y007629D03*
X004258Y007749D03*
X003928Y007749D03*
X003628Y007749D03*
X003278Y007749D03*
X002998Y007749D03*
X002718Y007749D03*
X002428Y007749D03*
X002128Y007749D03*
X001768Y007789D03*
X001468Y007789D03*
X001168Y007789D03*
X000888Y007789D03*
X001288Y006789D03*
X001208Y005699D03*
X001745Y004584D03*
X002548Y006789D03*
X003808Y006789D03*
X005068Y006789D03*
X005758Y007639D03*
D11*
X000378Y001906D02*
X000378Y000459D01*
X006204Y000459D01*
X006204Y006386D01*
X006158Y006340D01*
X005992Y006340D01*
X005875Y006457D01*
X005875Y006623D01*
X005962Y006710D01*
X005875Y006797D01*
X005875Y006963D01*
X005992Y007080D01*
X006158Y007080D01*
X006204Y007034D01*
X006204Y007869D01*
X004421Y007869D01*
X004458Y007832D01*
X004458Y007772D01*
X004516Y007829D01*
X004681Y007829D01*
X004743Y007767D01*
X004806Y007829D01*
X004971Y007829D01*
X005028Y007772D01*
X005086Y007829D01*
X005251Y007829D01*
X005313Y007767D01*
X005376Y007829D01*
X005541Y007829D01*
X005658Y007712D01*
X005658Y007546D01*
X005578Y007466D01*
X005578Y005789D01*
X005508Y005719D01*
X005368Y005579D01*
X005076Y005579D01*
X005143Y005512D01*
X005143Y005346D01*
X005026Y005229D01*
X004861Y005229D01*
X004743Y005346D01*
X004743Y005512D01*
X004811Y005579D01*
X001371Y005579D01*
X001291Y005499D01*
X001126Y005499D01*
X001008Y005616D01*
X001008Y005782D01*
X001126Y005899D01*
X001291Y005899D01*
X001371Y005819D01*
X005269Y005819D01*
X005338Y005889D01*
X005338Y007466D01*
X005313Y007491D01*
X005251Y007429D01*
X005086Y007429D01*
X005028Y007486D01*
X004971Y007429D01*
X004806Y007429D01*
X004743Y007491D01*
X004681Y007429D01*
X004516Y007429D01*
X004398Y007546D01*
X004398Y007606D01*
X004341Y007549D01*
X004176Y007549D01*
X004093Y007631D01*
X004011Y007549D01*
X003846Y007549D01*
X003778Y007616D01*
X003711Y007549D01*
X003546Y007549D01*
X003453Y007641D01*
X003361Y007549D01*
X003196Y007549D01*
X003138Y007606D01*
X003081Y007549D01*
X002916Y007549D01*
X002858Y007606D01*
X002801Y007549D01*
X002636Y007549D01*
X002573Y007611D01*
X002511Y007549D01*
X002346Y007549D01*
X002278Y007616D01*
X002211Y007549D01*
X002046Y007549D01*
X001928Y007666D01*
X001928Y007666D01*
X001851Y007589D01*
X001686Y007589D01*
X001618Y007656D01*
X001551Y007589D01*
X001386Y007589D01*
X001318Y007656D01*
X001251Y007589D01*
X001086Y007589D01*
X001028Y007646D01*
X000971Y007589D01*
X000806Y007589D01*
X000688Y007706D01*
X000688Y007869D01*
X000378Y007869D01*
X000378Y004450D01*
X000442Y004514D01*
X000607Y004514D01*
X000725Y004397D01*
X000725Y004231D01*
X000607Y004114D01*
X000442Y004114D01*
X000378Y004177D01*
X000378Y003496D01*
X000422Y003540D01*
X000588Y003540D01*
X000705Y003423D01*
X000705Y003257D01*
X000588Y003140D01*
X000422Y003140D01*
X000378Y003184D01*
X000378Y003048D01*
X000468Y003138D01*
X000634Y003138D01*
X000751Y003021D01*
X000751Y002855D01*
X000634Y002738D01*
X000468Y002738D01*
X000378Y002828D01*
X000378Y002132D01*
X000466Y002219D01*
X000631Y002219D01*
X000748Y002102D01*
X000748Y001936D01*
X000631Y001819D01*
X000466Y001819D01*
X000378Y001906D01*
X000378Y001881D02*
X000403Y001881D01*
X000378Y001823D02*
X000462Y001823D01*
X000378Y001764D02*
X002480Y001764D01*
X002516Y001729D02*
X002398Y001846D01*
X002398Y002012D01*
X002516Y002129D01*
X002681Y002129D01*
X002798Y002012D01*
X002798Y001846D01*
X002681Y001729D01*
X002516Y001729D01*
X002422Y001823D02*
X000635Y001823D01*
X000694Y001881D02*
X002398Y001881D01*
X002398Y001940D02*
X000748Y001940D01*
X000748Y001998D02*
X002398Y001998D01*
X002444Y002057D02*
X000748Y002057D01*
X000735Y002115D02*
X002502Y002115D01*
X002695Y002115D02*
X003852Y002115D01*
X003798Y002062D02*
X003798Y001896D01*
X003916Y001779D01*
X004081Y001779D01*
X004198Y001896D01*
X004198Y002062D01*
X004081Y002179D01*
X003916Y002179D01*
X003798Y002062D01*
X003798Y002057D02*
X002753Y002057D01*
X002798Y001998D02*
X003798Y001998D01*
X003798Y001940D02*
X002798Y001940D01*
X002798Y001881D02*
X003813Y001881D01*
X003872Y001823D02*
X002775Y001823D01*
X002717Y001764D02*
X005246Y001764D01*
X005250Y001768D02*
X005158Y001676D01*
X005075Y001759D01*
X004909Y001759D01*
X004792Y001642D01*
X004792Y001476D01*
X004909Y001359D01*
X005075Y001359D01*
X005167Y001451D01*
X005250Y001368D01*
X005416Y001368D01*
X005533Y001485D01*
X005533Y001651D01*
X005416Y001768D01*
X005250Y001768D01*
X005188Y001706D02*
X005128Y001706D01*
X005020Y001907D02*
X005137Y002024D01*
X005137Y002190D01*
X005020Y002307D01*
X004854Y002307D01*
X004737Y002190D01*
X004737Y002024D01*
X004854Y001907D01*
X005020Y001907D01*
X005053Y001940D02*
X006204Y001940D01*
X006204Y001998D02*
X006106Y001998D01*
X006076Y001968D02*
X006193Y002085D01*
X006193Y002251D01*
X006076Y002368D01*
X005910Y002368D01*
X005793Y002251D01*
X005793Y002085D01*
X005910Y001968D01*
X006076Y001968D01*
X006165Y002057D02*
X006204Y002057D01*
X006204Y002115D02*
X006193Y002115D01*
X006193Y002174D02*
X006204Y002174D01*
X006204Y002232D02*
X006193Y002232D01*
X006204Y002291D02*
X006153Y002291D01*
X006204Y002349D02*
X006094Y002349D01*
X006204Y002408D02*
X002338Y002408D01*
X002338Y002376D02*
X002221Y002259D01*
X002056Y002259D01*
X001938Y002376D01*
X001938Y002542D01*
X002056Y002659D01*
X002221Y002659D01*
X002338Y002542D01*
X002338Y002376D01*
X002312Y002349D02*
X005891Y002349D01*
X005833Y002291D02*
X005036Y002291D01*
X005094Y002232D02*
X005793Y002232D01*
X005793Y002174D02*
X005137Y002174D01*
X005137Y002115D02*
X005793Y002115D01*
X005821Y002057D02*
X005137Y002057D01*
X005111Y001998D02*
X005879Y001998D01*
X006204Y001881D02*
X004184Y001881D01*
X004198Y001940D02*
X004821Y001940D01*
X004763Y001998D02*
X004198Y001998D01*
X004198Y002057D02*
X004737Y002057D01*
X004737Y002115D02*
X004145Y002115D01*
X004086Y002174D02*
X004737Y002174D01*
X004779Y002232D02*
X000378Y002232D01*
X000378Y002174D02*
X000421Y002174D01*
X000378Y002291D02*
X002024Y002291D01*
X001965Y002349D02*
X000378Y002349D01*
X000378Y002408D02*
X001938Y002408D01*
X001938Y002466D02*
X000378Y002466D01*
X000378Y002525D02*
X001938Y002525D01*
X001980Y002583D02*
X000378Y002583D01*
X000378Y002642D02*
X002039Y002642D01*
X002238Y002642D02*
X004698Y002642D01*
X004698Y002700D02*
X004373Y002700D01*
X004351Y002679D02*
X004468Y002796D01*
X004468Y002962D01*
X004446Y002984D01*
X004468Y003006D01*
X004468Y003172D01*
X004423Y003217D01*
X004528Y003217D01*
X004645Y003335D01*
X004645Y003487D01*
X004745Y003487D01*
X004745Y003447D01*
X004807Y003385D01*
X004753Y003331D01*
X004753Y003165D01*
X004795Y003122D01*
X004713Y003040D01*
X004713Y002875D01*
X004782Y002806D01*
X004698Y002722D01*
X004698Y002556D01*
X004816Y002439D01*
X004981Y002439D01*
X005098Y002556D01*
X005098Y002722D01*
X005029Y002791D01*
X005113Y002875D01*
X005113Y003040D01*
X005071Y003083D01*
X005153Y003165D01*
X005153Y003331D01*
X005091Y003393D01*
X005145Y003447D01*
X005145Y003613D01*
X005028Y003730D01*
X004905Y003730D01*
X004905Y003770D01*
X004788Y003887D01*
X004622Y003887D01*
X004505Y003770D01*
X004505Y003617D01*
X004362Y003617D01*
X004245Y003500D01*
X004245Y003335D01*
X004291Y003289D01*
X004186Y003289D01*
X004068Y003172D01*
X004068Y003006D01*
X004091Y002984D01*
X004068Y002962D01*
X004068Y002796D01*
X004186Y002679D01*
X004351Y002679D01*
X004431Y002759D02*
X004736Y002759D01*
X004771Y002817D02*
X004468Y002817D01*
X004468Y002876D02*
X004713Y002876D01*
X004713Y002934D02*
X004468Y002934D01*
X004455Y002993D02*
X004713Y002993D01*
X004724Y003051D02*
X004468Y003051D01*
X004468Y003110D02*
X004783Y003110D01*
X004753Y003168D02*
X004468Y003168D01*
X004537Y003227D02*
X004753Y003227D01*
X004753Y003285D02*
X004596Y003285D01*
X004645Y003344D02*
X004766Y003344D01*
X004790Y003402D02*
X004645Y003402D01*
X004645Y003461D02*
X004745Y003461D01*
X004505Y003636D02*
X003898Y003636D01*
X003898Y003578D02*
X004323Y003578D01*
X004264Y003519D02*
X003852Y003519D01*
X003811Y003479D02*
X003898Y003566D01*
X003898Y003732D01*
X003781Y003849D01*
X003616Y003849D01*
X003498Y003732D01*
X003498Y003566D01*
X003596Y003469D01*
X003533Y003407D01*
X003481Y003459D01*
X003316Y003459D01*
X003238Y003382D01*
X003171Y003449D01*
X003006Y003449D01*
X002948Y003392D01*
X002891Y003449D01*
X002726Y003449D01*
X002608Y003332D01*
X002608Y003166D01*
X002726Y003049D01*
X002891Y003049D01*
X002948Y003106D01*
X003006Y003049D01*
X003171Y003049D01*
X003248Y003126D01*
X003316Y003059D01*
X003481Y003059D01*
X003573Y003151D01*
X003626Y003099D01*
X003791Y003099D01*
X003908Y003216D01*
X003908Y003382D01*
X003811Y003479D01*
X003829Y003461D02*
X004245Y003461D01*
X004245Y003402D02*
X003888Y003402D01*
X003908Y003344D02*
X004245Y003344D01*
X004182Y003285D02*
X003908Y003285D01*
X003908Y003227D02*
X004124Y003227D01*
X004068Y003168D02*
X003861Y003168D01*
X003802Y003110D02*
X004068Y003110D01*
X004068Y003051D02*
X003174Y003051D01*
X003232Y003110D02*
X003265Y003110D01*
X003532Y003110D02*
X003615Y003110D01*
X003588Y003461D02*
X002100Y003461D01*
X002050Y003411D02*
X002167Y003528D01*
X002167Y003694D01*
X002050Y003811D01*
X001885Y003811D01*
X001767Y003694D01*
X001767Y003528D01*
X001885Y003411D01*
X002050Y003411D01*
X002159Y003519D02*
X003545Y003519D01*
X003498Y003578D02*
X002167Y003578D01*
X002167Y003636D02*
X003498Y003636D01*
X003498Y003695D02*
X002166Y003695D01*
X002108Y003753D02*
X003520Y003753D01*
X003579Y003812D02*
X000378Y003812D01*
X000378Y003870D02*
X002544Y003870D01*
X002596Y003819D02*
X002478Y003936D01*
X002478Y004102D01*
X002596Y004219D01*
X002761Y004219D01*
X002878Y004102D01*
X002878Y003936D01*
X002761Y003819D01*
X002596Y003819D01*
X002486Y003929D02*
X000378Y003929D01*
X000378Y003987D02*
X002478Y003987D01*
X002478Y004046D02*
X000378Y004046D01*
X000378Y004104D02*
X002481Y004104D01*
X002540Y004163D02*
X000657Y004163D01*
X000715Y004221D02*
X004873Y004221D01*
X004931Y004163D02*
X002817Y004163D01*
X002876Y004104D02*
X005846Y004104D01*
X005857Y004094D02*
X006022Y004094D01*
X006140Y004211D01*
X006140Y004377D01*
X006022Y004494D01*
X005857Y004494D01*
X005740Y004377D01*
X005740Y004211D01*
X005857Y004094D01*
X005788Y004163D02*
X005099Y004163D01*
X005098Y004162D02*
X005215Y004279D01*
X005215Y004445D01*
X005098Y004562D01*
X004932Y004562D01*
X004911Y004541D01*
X004911Y004622D01*
X004794Y004739D01*
X004629Y004739D01*
X004605Y004715D01*
X004501Y004819D01*
X004336Y004819D01*
X004218Y004702D01*
X004218Y004536D01*
X004336Y004419D01*
X004501Y004419D01*
X004525Y004443D01*
X004629Y004339D01*
X004794Y004339D01*
X004815Y004359D01*
X004815Y004279D01*
X004932Y004162D01*
X005098Y004162D01*
X005157Y004221D02*
X005740Y004221D01*
X005740Y004280D02*
X005215Y004280D01*
X005215Y004338D02*
X005740Y004338D01*
X005760Y004397D02*
X005215Y004397D01*
X005204Y004455D02*
X005818Y004455D01*
X005872Y004540D02*
X006038Y004540D01*
X006155Y004657D01*
X006155Y004823D01*
X006038Y004940D01*
X005872Y004940D01*
X005755Y004823D01*
X005755Y004657D01*
X005872Y004540D01*
X005840Y004572D02*
X004911Y004572D01*
X004902Y004631D02*
X005781Y004631D01*
X005755Y004689D02*
X004844Y004689D01*
X004572Y004748D02*
X005755Y004748D01*
X005755Y004806D02*
X004514Y004806D01*
X004323Y004806D02*
X003478Y004806D01*
X003478Y004842D02*
X003478Y004676D01*
X003361Y004559D01*
X003196Y004559D01*
X003098Y004656D01*
X003041Y004599D01*
X002876Y004599D01*
X002758Y004716D01*
X002758Y004882D01*
X002876Y004999D01*
X003041Y004999D01*
X003138Y004902D01*
X003196Y004959D01*
X003361Y004959D01*
X003478Y004842D01*
X003455Y004865D02*
X005797Y004865D01*
X005856Y004923D02*
X003397Y004923D01*
X003478Y004748D02*
X004265Y004748D01*
X004218Y004689D02*
X003478Y004689D01*
X003433Y004631D02*
X004218Y004631D01*
X004218Y004572D02*
X003375Y004572D01*
X003182Y004572D02*
X001945Y004572D01*
X001945Y004514D02*
X004241Y004514D01*
X004299Y004455D02*
X001899Y004455D01*
X001945Y004501D02*
X001827Y004384D01*
X001662Y004384D01*
X001545Y004501D01*
X001545Y004667D01*
X001662Y004784D01*
X001827Y004784D01*
X001945Y004667D01*
X001945Y004501D01*
X001945Y004631D02*
X002844Y004631D01*
X002785Y004689D02*
X001922Y004689D01*
X001863Y004748D02*
X002758Y004748D01*
X002758Y004806D02*
X000378Y004806D01*
X000378Y004748D02*
X001626Y004748D01*
X001567Y004689D02*
X000378Y004689D01*
X000378Y004631D02*
X001545Y004631D01*
X001545Y004572D02*
X000378Y004572D01*
X000378Y004514D02*
X001545Y004514D01*
X001590Y004455D02*
X000666Y004455D01*
X000724Y004397D02*
X001648Y004397D01*
X001841Y004397D02*
X004570Y004397D01*
X004815Y004338D02*
X000725Y004338D01*
X000725Y004280D02*
X004815Y004280D01*
X005146Y004514D02*
X006204Y004514D01*
X006204Y004572D02*
X006070Y004572D01*
X006129Y004631D02*
X006204Y004631D01*
X006204Y004689D02*
X006155Y004689D01*
X006155Y004748D02*
X006204Y004748D01*
X006204Y004806D02*
X006155Y004806D01*
X006113Y004865D02*
X006204Y004865D01*
X006204Y004923D02*
X006054Y004923D01*
X006204Y004982D02*
X003058Y004982D01*
X003117Y004923D02*
X003160Y004923D01*
X003124Y004631D02*
X003073Y004631D01*
X002800Y004923D02*
X000378Y004923D01*
X000378Y004865D02*
X002758Y004865D01*
X002859Y004982D02*
X000378Y004982D01*
X000378Y005040D02*
X006204Y005040D01*
X006204Y005099D02*
X000378Y005099D01*
X000378Y005157D02*
X006204Y005157D01*
X006204Y005216D02*
X000378Y005216D01*
X000378Y005274D02*
X004815Y005274D01*
X004757Y005333D02*
X000378Y005333D01*
X000378Y005391D02*
X004743Y005391D01*
X004743Y005450D02*
X000378Y005450D01*
X000378Y005508D02*
X001116Y005508D01*
X001058Y005567D02*
X000378Y005567D01*
X000378Y005625D02*
X001008Y005625D01*
X001008Y005684D02*
X000378Y005684D01*
X000378Y005742D02*
X001008Y005742D01*
X001028Y005801D02*
X000378Y005801D01*
X000378Y005859D02*
X001086Y005859D01*
X001208Y005699D02*
X005318Y005699D01*
X005458Y005839D01*
X005458Y007629D01*
X005610Y007497D02*
X006204Y007497D01*
X006204Y007439D02*
X005578Y007439D01*
X005578Y007380D02*
X006204Y007380D01*
X006204Y007322D02*
X005578Y007322D01*
X005578Y007263D02*
X006204Y007263D01*
X006204Y007205D02*
X005578Y007205D01*
X005578Y007146D02*
X006204Y007146D01*
X006204Y007088D02*
X005578Y007088D01*
X005578Y007029D02*
X005942Y007029D01*
X005883Y006971D02*
X005578Y006971D01*
X005578Y006912D02*
X005875Y006912D01*
X005875Y006854D02*
X005578Y006854D01*
X005578Y006795D02*
X005877Y006795D01*
X005935Y006737D02*
X005578Y006737D01*
X005578Y006678D02*
X005931Y006678D01*
X005875Y006620D02*
X005578Y006620D01*
X005578Y006561D02*
X005875Y006561D01*
X005875Y006503D02*
X005578Y006503D01*
X005578Y006444D02*
X005888Y006444D01*
X005946Y006386D02*
X005578Y006386D01*
X005578Y006327D02*
X006204Y006327D01*
X006204Y006269D02*
X005578Y006269D01*
X005578Y006210D02*
X006204Y006210D01*
X006204Y006152D02*
X005578Y006152D01*
X005578Y006093D02*
X006204Y006093D01*
X006204Y006035D02*
X005578Y006035D01*
X005578Y005976D02*
X005863Y005976D01*
X005866Y005979D02*
X005748Y005862D01*
X005748Y005696D01*
X005866Y005579D01*
X006031Y005579D01*
X006148Y005696D01*
X006148Y005862D01*
X006031Y005979D01*
X005866Y005979D01*
X005805Y005918D02*
X005578Y005918D01*
X005578Y005859D02*
X005748Y005859D01*
X005748Y005801D02*
X005578Y005801D01*
X005532Y005742D02*
X005748Y005742D01*
X005761Y005684D02*
X005473Y005684D01*
X005415Y005625D02*
X005819Y005625D01*
X006078Y005625D02*
X006204Y005625D01*
X006204Y005567D02*
X005088Y005567D01*
X005143Y005508D02*
X006204Y005508D01*
X006204Y005450D02*
X005143Y005450D01*
X005143Y005391D02*
X006204Y005391D01*
X006204Y005333D02*
X005130Y005333D01*
X005072Y005274D02*
X006204Y005274D01*
X006204Y005684D02*
X006136Y005684D01*
X006148Y005742D02*
X006204Y005742D01*
X006204Y005801D02*
X006148Y005801D01*
X006148Y005859D02*
X006204Y005859D01*
X006204Y005918D02*
X006092Y005918D01*
X006034Y005976D02*
X006204Y005976D01*
X006204Y006386D02*
X006204Y006386D01*
X005338Y006386D02*
X000378Y006386D01*
X000378Y006444D02*
X005338Y006444D01*
X005338Y006503D02*
X000378Y006503D01*
X000378Y006561D02*
X005338Y006561D01*
X005338Y006620D02*
X000378Y006620D01*
X000378Y006678D02*
X005338Y006678D01*
X005338Y006737D02*
X000378Y006737D01*
X000378Y006795D02*
X005338Y006795D01*
X005338Y006854D02*
X000378Y006854D01*
X000378Y006912D02*
X005338Y006912D01*
X005338Y006971D02*
X000378Y006971D01*
X000378Y007029D02*
X005338Y007029D01*
X005338Y007088D02*
X000378Y007088D01*
X000378Y007146D02*
X005338Y007146D01*
X005338Y007205D02*
X000378Y007205D01*
X000378Y007263D02*
X005338Y007263D01*
X005338Y007322D02*
X000378Y007322D01*
X000378Y007380D02*
X005338Y007380D01*
X005338Y007439D02*
X005261Y007439D01*
X005076Y007439D02*
X004981Y007439D01*
X004796Y007439D02*
X004691Y007439D01*
X004506Y007439D02*
X000378Y007439D01*
X000378Y007497D02*
X004447Y007497D01*
X004398Y007556D02*
X004348Y007556D01*
X004458Y007790D02*
X004477Y007790D01*
X004442Y007848D02*
X006204Y007848D01*
X006204Y007790D02*
X005580Y007790D01*
X005639Y007731D02*
X006204Y007731D01*
X006204Y007673D02*
X005658Y007673D01*
X005658Y007614D02*
X006204Y007614D01*
X006204Y007556D02*
X005658Y007556D01*
X005337Y007790D02*
X005290Y007790D01*
X005047Y007790D02*
X005010Y007790D01*
X004767Y007790D02*
X004720Y007790D01*
X004169Y007556D02*
X004018Y007556D01*
X004077Y007614D02*
X004110Y007614D01*
X003839Y007556D02*
X003718Y007556D01*
X003777Y007614D02*
X003780Y007614D01*
X003539Y007556D02*
X003368Y007556D01*
X003427Y007614D02*
X003480Y007614D01*
X003189Y007556D02*
X003088Y007556D01*
X002909Y007556D02*
X002808Y007556D01*
X002629Y007556D02*
X002518Y007556D01*
X002339Y007556D02*
X002218Y007556D01*
X002277Y007614D02*
X002280Y007614D01*
X002039Y007556D02*
X000378Y007556D01*
X000378Y007614D02*
X000780Y007614D01*
X000722Y007673D02*
X000378Y007673D01*
X000378Y007731D02*
X000688Y007731D01*
X000688Y007790D02*
X000378Y007790D01*
X000378Y007848D02*
X000688Y007848D01*
X000997Y007614D02*
X001060Y007614D01*
X001277Y007614D02*
X001360Y007614D01*
X001577Y007614D02*
X001660Y007614D01*
X001877Y007614D02*
X001980Y007614D01*
X001331Y005859D02*
X005309Y005859D01*
X005338Y005918D02*
X000378Y005918D01*
X000378Y005976D02*
X005338Y005976D01*
X005338Y006035D02*
X000378Y006035D01*
X000378Y006093D02*
X005338Y006093D01*
X005338Y006152D02*
X000378Y006152D01*
X000378Y006210D02*
X005338Y006210D01*
X005338Y006269D02*
X000378Y006269D01*
X000378Y006327D02*
X005338Y006327D01*
X004799Y005567D02*
X001359Y005567D01*
X001301Y005508D02*
X004743Y005508D01*
X006061Y004455D02*
X006204Y004455D01*
X006204Y004397D02*
X006119Y004397D01*
X006140Y004338D02*
X006204Y004338D01*
X006204Y004280D02*
X006140Y004280D01*
X006140Y004221D02*
X006204Y004221D01*
X006204Y004163D02*
X006092Y004163D01*
X006033Y004104D02*
X006204Y004104D01*
X006204Y004046D02*
X002878Y004046D01*
X002878Y003987D02*
X006204Y003987D01*
X006204Y003929D02*
X002871Y003929D01*
X002813Y003870D02*
X004605Y003870D01*
X004547Y003812D02*
X003818Y003812D01*
X003877Y003753D02*
X004505Y003753D01*
X004505Y003695D02*
X003898Y003695D01*
X004082Y002993D02*
X002347Y002993D01*
X002347Y002958D02*
X002230Y002841D01*
X002065Y002841D01*
X001947Y002958D01*
X001947Y003124D01*
X002065Y003241D01*
X002230Y003241D01*
X002347Y003124D01*
X002347Y002958D01*
X002324Y002934D02*
X004068Y002934D01*
X004068Y002876D02*
X002265Y002876D01*
X002347Y003051D02*
X002723Y003051D01*
X002665Y003110D02*
X002347Y003110D01*
X002303Y003168D02*
X002608Y003168D01*
X002608Y003227D02*
X002244Y003227D01*
X002051Y003227D02*
X001657Y003227D01*
X001689Y003259D02*
X001572Y003142D01*
X001407Y003142D01*
X001289Y003259D01*
X001289Y003425D01*
X001340Y003475D01*
X001287Y003528D01*
X001287Y003694D01*
X001405Y003811D01*
X001570Y003811D01*
X001687Y003694D01*
X001687Y003528D01*
X001637Y003477D01*
X001689Y003425D01*
X001689Y003259D01*
X001689Y003285D02*
X002608Y003285D01*
X002621Y003344D02*
X001689Y003344D01*
X001689Y003402D02*
X002679Y003402D01*
X002938Y003402D02*
X002959Y003402D01*
X003218Y003402D02*
X003259Y003402D01*
X003003Y003051D02*
X002894Y003051D01*
X002338Y002525D02*
X004730Y002525D01*
X004698Y002583D02*
X002297Y002583D01*
X002338Y002466D02*
X004788Y002466D01*
X004838Y002291D02*
X002253Y002291D01*
X002029Y002876D02*
X000751Y002876D01*
X000751Y002934D02*
X001971Y002934D01*
X001947Y002993D02*
X000751Y002993D01*
X000720Y003051D02*
X001947Y003051D01*
X001947Y003110D02*
X000662Y003110D01*
X000616Y003168D02*
X001380Y003168D01*
X001322Y003227D02*
X000675Y003227D01*
X000705Y003285D02*
X001289Y003285D01*
X001289Y003344D02*
X000705Y003344D01*
X000705Y003402D02*
X001289Y003402D01*
X001325Y003461D02*
X000667Y003461D01*
X000608Y003519D02*
X001296Y003519D01*
X001287Y003578D02*
X000378Y003578D01*
X000378Y003636D02*
X001287Y003636D01*
X001289Y003695D02*
X000378Y003695D01*
X000378Y003753D02*
X001347Y003753D01*
X001628Y003753D02*
X001827Y003753D01*
X001769Y003695D02*
X001686Y003695D01*
X001687Y003636D02*
X001767Y003636D01*
X001767Y003578D02*
X001687Y003578D01*
X001679Y003519D02*
X001776Y003519D01*
X001834Y003461D02*
X001653Y003461D01*
X001599Y003168D02*
X001992Y003168D01*
X000714Y002817D02*
X004068Y002817D01*
X004106Y002759D02*
X000655Y002759D01*
X000447Y002759D02*
X000378Y002759D01*
X000378Y002817D02*
X000389Y002817D01*
X000378Y002700D02*
X004164Y002700D01*
X003911Y002174D02*
X000676Y002174D01*
X000378Y001706D02*
X004856Y001706D01*
X004798Y001647D02*
X000378Y001647D01*
X000378Y001589D02*
X004792Y001589D01*
X004792Y001530D02*
X000378Y001530D01*
X000378Y001472D02*
X004796Y001472D01*
X004855Y001413D02*
X000378Y001413D01*
X000378Y001355D02*
X006204Y001355D01*
X006204Y001413D02*
X005461Y001413D01*
X005520Y001472D02*
X006204Y001472D01*
X006204Y001530D02*
X005533Y001530D01*
X005533Y001589D02*
X006204Y001589D01*
X006204Y001647D02*
X005533Y001647D01*
X005478Y001706D02*
X006204Y001706D01*
X006204Y001764D02*
X005419Y001764D01*
X005204Y001413D02*
X005130Y001413D01*
X005009Y002466D02*
X006204Y002466D01*
X006204Y002525D02*
X005067Y002525D01*
X005098Y002583D02*
X006204Y002583D01*
X006204Y002642D02*
X005098Y002642D01*
X005098Y002700D02*
X006204Y002700D01*
X006204Y002759D02*
X005061Y002759D01*
X005056Y002817D02*
X006204Y002817D01*
X006204Y002876D02*
X006091Y002876D01*
X006067Y002852D02*
X006184Y002969D01*
X006184Y003135D01*
X006067Y003252D01*
X005901Y003252D01*
X005784Y003135D01*
X005784Y002969D01*
X005901Y002852D01*
X006067Y002852D01*
X006149Y002934D02*
X006204Y002934D01*
X006204Y002993D02*
X006184Y002993D01*
X006184Y003051D02*
X006204Y003051D01*
X006204Y003110D02*
X006184Y003110D01*
X006204Y003168D02*
X006151Y003168D01*
X006204Y003227D02*
X006092Y003227D01*
X006204Y003285D02*
X005153Y003285D01*
X005153Y003227D02*
X005876Y003227D01*
X005818Y003168D02*
X005153Y003168D01*
X005098Y003110D02*
X005784Y003110D01*
X005784Y003051D02*
X005102Y003051D01*
X005113Y002993D02*
X005784Y002993D01*
X005819Y002934D02*
X005113Y002934D01*
X005113Y002876D02*
X005878Y002876D01*
X006204Y003344D02*
X005140Y003344D01*
X005100Y003402D02*
X006204Y003402D01*
X006204Y003461D02*
X005145Y003461D01*
X005145Y003519D02*
X006204Y003519D01*
X006204Y003578D02*
X005145Y003578D01*
X005121Y003636D02*
X006204Y003636D01*
X006204Y003695D02*
X005063Y003695D01*
X004905Y003753D02*
X006204Y003753D01*
X006204Y003812D02*
X004863Y003812D01*
X004805Y003870D02*
X006204Y003870D01*
X006204Y001823D02*
X004125Y001823D01*
X006204Y001296D02*
X000378Y001296D01*
X000378Y001238D02*
X001235Y001238D01*
X001276Y001279D02*
X001158Y001162D01*
X001158Y000996D01*
X001276Y000879D01*
X001441Y000879D01*
X001558Y000996D01*
X001558Y001162D01*
X001441Y001279D01*
X001276Y001279D01*
X001176Y001179D02*
X000378Y001179D01*
X000378Y001121D02*
X001158Y001121D01*
X001158Y001062D02*
X000378Y001062D01*
X000378Y001004D02*
X001158Y001004D01*
X001209Y000945D02*
X000378Y000945D01*
X000378Y000887D02*
X001268Y000887D01*
X001449Y000887D02*
X006204Y000887D01*
X006204Y000945D02*
X001508Y000945D01*
X001558Y001004D02*
X006204Y001004D01*
X006204Y001062D02*
X001558Y001062D01*
X001558Y001121D02*
X006204Y001121D01*
X006204Y001179D02*
X001541Y001179D01*
X001482Y001238D02*
X006204Y001238D01*
X006204Y000828D02*
X000378Y000828D01*
X000378Y000770D02*
X006204Y000770D01*
X006204Y000711D02*
X000378Y000711D01*
X000378Y000653D02*
X006204Y000653D01*
X006204Y000594D02*
X000378Y000594D01*
X000378Y000536D02*
X006204Y000536D01*
X006204Y000477D02*
X000378Y000477D01*
X000378Y003051D02*
X000382Y003051D01*
X000378Y003110D02*
X000440Y003110D01*
X000394Y003168D02*
X000378Y003168D01*
X000378Y003519D02*
X000402Y003519D01*
X000378Y004163D02*
X000392Y004163D01*
X000378Y004455D02*
X000383Y004455D01*
D12*
X003168Y001579D02*
X003518Y001679D01*
X003518Y001739D01*
M02*
