G75*
G70*
%OFA0B0*%
%FSLAX24Y24*%
%IPPOS*%
%LPD*%
%AMOC8*
5,1,8,0,0,1.08239X$1,22.5*
%
%ADD10R,0.0138X0.0650*%
%ADD11R,0.0650X0.0138*%
%ADD12R,0.0177X0.0177*%
%ADD13R,0.0138X0.0177*%
%ADD14R,0.0138X0.0240*%
D10*
X001760Y001077D03*
X001957Y001077D03*
X002154Y001077D03*
X002350Y001077D03*
X002547Y001077D03*
X002744Y001077D03*
X002941Y001077D03*
X003138Y001077D03*
X003335Y001077D03*
X003531Y001077D03*
X003728Y001077D03*
X003925Y001077D03*
X004122Y001077D03*
X004319Y001077D03*
X004516Y001077D03*
X004713Y001077D03*
X004713Y005487D03*
X004516Y005487D03*
X004319Y005487D03*
X004122Y005487D03*
X003925Y005487D03*
X003728Y005487D03*
X003531Y005487D03*
X003335Y005487D03*
X003138Y005487D03*
X002941Y005487D03*
X002744Y005487D03*
X002547Y005487D03*
X002350Y005487D03*
X002154Y005487D03*
X001957Y005487D03*
X001760Y005487D03*
D11*
X001031Y001806D03*
X001031Y002003D03*
X001031Y002200D03*
X001031Y002396D03*
X001031Y002593D03*
X001031Y002790D03*
X001031Y002987D03*
X001031Y003184D03*
X001031Y003381D03*
X001031Y003577D03*
X001031Y003774D03*
X001031Y003971D03*
X001031Y004168D03*
X001031Y004365D03*
X001031Y004562D03*
X001031Y004759D03*
X005441Y004759D03*
X005441Y004562D03*
X005441Y004365D03*
X005441Y004168D03*
X005441Y003971D03*
X005441Y003774D03*
X005441Y003577D03*
X005441Y003381D03*
X005441Y003184D03*
X005441Y002987D03*
X005441Y002790D03*
X005441Y002593D03*
X005441Y002396D03*
X005441Y002200D03*
X005441Y002003D03*
X005441Y001806D03*
D12*
X005357Y007126D03*
X005357Y007402D03*
X004727Y007402D03*
X004727Y007126D03*
X004097Y007126D03*
X004097Y007402D03*
X003467Y007402D03*
X003467Y007126D03*
X002897Y007126D03*
X002897Y007402D03*
X002267Y007402D03*
X002267Y007126D03*
X001641Y007126D03*
X001641Y007402D03*
X001011Y007402D03*
X001011Y007126D03*
D13*
X001227Y007126D03*
X001424Y007126D03*
X001424Y007402D03*
X001227Y007402D03*
X002483Y007402D03*
X002680Y007402D03*
X002680Y007126D03*
X002483Y007126D03*
X003683Y007126D03*
X003880Y007126D03*
X003880Y007402D03*
X003683Y007402D03*
X004943Y007402D03*
X005140Y007402D03*
X005140Y007126D03*
X004943Y007126D03*
D14*
X004969Y006744D03*
X005166Y006744D03*
X005363Y006744D03*
X005363Y006224D03*
X005166Y006224D03*
X004969Y006224D03*
X004772Y006224D03*
X004772Y006744D03*
X004100Y006744D03*
X003903Y006744D03*
X003706Y006744D03*
X003509Y006744D03*
X003509Y006224D03*
X003706Y006224D03*
X003903Y006224D03*
X004100Y006224D03*
X002848Y006224D03*
X002652Y006224D03*
X002455Y006224D03*
X002258Y006224D03*
X002258Y006744D03*
X002455Y006744D03*
X002652Y006744D03*
X002848Y006744D03*
X001596Y006744D03*
X001399Y006744D03*
X001203Y006744D03*
X001006Y006744D03*
X001006Y006224D03*
X001203Y006224D03*
X001399Y006224D03*
X001596Y006224D03*
M02*
