G75*
G70*
%OFA0B0*%
%FSLAX24Y24*%
%IPPOS*%
%LPD*%
%AMOC8*
5,1,8,0,0,1.08239X$1,22.5*
%
%ADD10C,0.1600*%
%ADD11OC8,0.0520*%
%ADD12C,0.0050*%
%ADD13C,0.0180*%
%ADD14C,0.0120*%
D10*
X004880Y001445D03*
D11*
X004730Y003255D03*
X005505Y004820D03*
X005505Y006820D03*
X001505Y003195D03*
X000755Y003195D03*
X000755Y003820D03*
X000755Y004445D03*
D12*
X001215Y004115D02*
X004830Y004115D01*
X004830Y004145D01*
X005505Y004820D01*
X005055Y004915D02*
X003255Y006715D01*
X003255Y008355D01*
X002975Y008355D02*
X002975Y006675D01*
X001215Y004915D01*
X001255Y005115D02*
X001055Y005115D01*
X001215Y005315D02*
X002495Y006595D01*
X002495Y008355D01*
X002255Y008355D02*
X002255Y006595D01*
X001215Y005555D01*
X001215Y005795D02*
X001975Y006555D01*
X001975Y008355D01*
X001735Y008355D02*
X001735Y006475D01*
X001255Y005995D01*
X001055Y005995D01*
X001215Y006195D02*
X001495Y006475D01*
X001495Y008355D01*
X001255Y008355D02*
X001255Y007155D01*
X002735Y006595D02*
X001255Y005115D01*
X002735Y006595D02*
X002735Y008355D01*
X003535Y008355D02*
X003535Y006675D01*
X005055Y005155D01*
X005055Y005395D02*
X003775Y006675D01*
X003775Y008355D01*
X004015Y008355D02*
X004015Y006635D01*
X005015Y005635D01*
X005055Y005635D01*
X004975Y005835D02*
X005215Y005835D01*
X005135Y005995D02*
X005295Y006155D01*
X005135Y005995D02*
X005015Y005995D01*
X004535Y006475D01*
X004535Y008355D01*
X004775Y008355D02*
X004775Y006475D01*
X005055Y006195D01*
X004975Y005835D02*
X004255Y006555D01*
X004255Y008355D01*
X005015Y008355D02*
X005015Y007195D01*
X003695Y003475D02*
X003615Y003475D01*
X003455Y003315D01*
X003455Y002995D01*
X003415Y002795D02*
X003615Y002795D01*
X003415Y002795D02*
X003255Y002955D01*
X003255Y003275D01*
X003655Y003275D02*
X003815Y003115D01*
X003815Y002715D01*
X002895Y001795D01*
X002775Y002395D02*
X002175Y001795D01*
X002775Y002395D02*
X002775Y003275D01*
X002335Y002915D02*
X002140Y002720D01*
X001275Y002720D01*
X001175Y002820D01*
X001175Y002855D01*
X003695Y003475D02*
X003895Y003275D01*
D13*
X000855Y002135D03*
X000605Y002370D03*
X001175Y002855D03*
X001215Y004115D03*
X001215Y004915D03*
X001055Y005115D03*
X001215Y005315D03*
X001215Y005555D03*
X001215Y005795D03*
X001055Y005995D03*
X001215Y006195D03*
X001255Y007155D03*
X000815Y008315D03*
X001255Y008355D03*
X001495Y008355D03*
X001735Y008355D03*
X001975Y008355D03*
X002255Y008355D03*
X002495Y008355D03*
X002735Y008355D03*
X002975Y008355D03*
X003255Y008355D03*
X003535Y008355D03*
X003775Y008355D03*
X004015Y008355D03*
X004255Y008355D03*
X004535Y008355D03*
X004775Y008355D03*
X005015Y008355D03*
X005255Y007235D03*
X005015Y007195D03*
X005055Y006195D03*
X005295Y006155D03*
X005215Y005835D03*
X005055Y005635D03*
X005055Y005395D03*
X005055Y005155D03*
X005055Y004915D03*
X005105Y003750D03*
X005485Y003210D03*
X003895Y003275D03*
X003655Y003275D03*
X003455Y002995D03*
X003615Y002795D03*
X003705Y002320D03*
X003555Y002115D03*
X002895Y001795D03*
X002355Y001040D03*
X001985Y000990D03*
X002175Y001795D03*
X002335Y002915D03*
X002775Y003275D03*
X003255Y003275D03*
X000505Y006120D03*
D14*
X000555Y004940D02*
X000855Y004940D01*
X001215Y004580D01*
X001215Y004160D01*
X000555Y004940D02*
X000375Y004760D01*
X000375Y002960D01*
X000615Y002720D01*
X000675Y002720D01*
X000855Y002540D01*
X000855Y002135D01*
X002355Y001040D02*
X002835Y001040D01*
X003855Y002060D01*
X003855Y002170D01*
X003705Y002320D01*
M02*
