G75*
G70*
%OFA0B0*%
%FSLAX24Y24*%
%IPPOS*%
%LPD*%
%AMOC8*
5,1,8,0,0,1.08239X$1,22.5*
%
%ADD10C,0.1240*%
%ADD11C,0.0520*%
%ADD12C,0.0180*%
%ADD13C,0.0050*%
D10*
X004880Y001445D03*
D11*
X004730Y003255D03*
X005505Y004820D03*
X005505Y006820D03*
X001505Y003195D03*
X000755Y003195D03*
X000755Y003820D03*
X000755Y004445D03*
D12*
X001215Y004115D03*
X001215Y004915D03*
X001055Y005115D03*
X001215Y005315D03*
X001215Y005555D03*
X001215Y005795D03*
X001055Y005995D03*
X001215Y006195D03*
X001255Y007155D03*
X000815Y008315D03*
X001255Y008355D03*
X001495Y008355D03*
X001735Y008355D03*
X001975Y008355D03*
X002255Y008355D03*
X002495Y008355D03*
X002735Y008355D03*
X002975Y008355D03*
X003255Y008355D03*
X003535Y008355D03*
X003775Y008355D03*
X004015Y008355D03*
X004255Y008355D03*
X004535Y008355D03*
X004775Y008355D03*
X005015Y008355D03*
X005255Y007235D03*
X005015Y007195D03*
X005055Y006195D03*
X005295Y006155D03*
X005215Y005835D03*
X005055Y005635D03*
X005055Y005395D03*
X005055Y005155D03*
X005055Y004915D03*
X005105Y003750D03*
X005485Y003210D03*
X003895Y003275D03*
X003655Y003275D03*
X003455Y002995D03*
X003615Y002795D03*
X003705Y002320D03*
X003555Y002115D03*
X002895Y001795D03*
X002355Y001040D03*
X001985Y000990D03*
X002175Y001795D03*
X002335Y002915D03*
X002775Y003275D03*
X003255Y003275D03*
X001175Y002855D03*
X000855Y002135D03*
X000605Y002370D03*
X000505Y006120D03*
D13*
X000380Y004357D02*
X000380Y000570D01*
X005880Y000570D01*
X005880Y008320D01*
X005180Y008320D01*
X005180Y008287D01*
X005083Y008190D01*
X004947Y008190D01*
X004895Y008242D01*
X004843Y008190D01*
X004707Y008190D01*
X004655Y008242D01*
X004603Y008190D01*
X004467Y008190D01*
X004395Y008262D01*
X004323Y008190D01*
X004187Y008190D01*
X004135Y008242D01*
X004083Y008190D01*
X003947Y008190D01*
X003895Y008242D01*
X003843Y008190D01*
X003707Y008190D01*
X003655Y008242D01*
X003603Y008190D01*
X003467Y008190D01*
X003395Y008262D01*
X003323Y008190D01*
X003187Y008190D01*
X003115Y008262D01*
X003043Y008190D01*
X002907Y008190D01*
X002855Y008242D01*
X002803Y008190D01*
X002667Y008190D01*
X002615Y008242D01*
X002563Y008190D01*
X002427Y008190D01*
X002375Y008242D01*
X002323Y008190D01*
X002187Y008190D01*
X002115Y008262D01*
X002043Y008190D01*
X001907Y008190D01*
X001855Y008242D01*
X001803Y008190D01*
X001667Y008190D01*
X001615Y008242D01*
X001563Y008190D01*
X001427Y008190D01*
X001375Y008242D01*
X001323Y008190D01*
X001187Y008190D01*
X001090Y008287D01*
X001090Y008320D01*
X000380Y008320D01*
X000380Y004533D01*
X000385Y004557D01*
X000414Y004627D01*
X000456Y004690D01*
X000510Y004744D01*
X000573Y004786D01*
X000643Y004815D01*
X000717Y004830D01*
X000730Y004830D01*
X000730Y004470D01*
X000780Y004470D01*
X001140Y004470D01*
X001140Y004483D01*
X001125Y004557D01*
X001096Y004627D01*
X001054Y004690D01*
X001000Y004744D01*
X000937Y004786D01*
X000867Y004815D01*
X000793Y004830D01*
X000780Y004830D01*
X000780Y004470D01*
X000780Y004420D01*
X001140Y004420D01*
X001140Y004407D01*
X001125Y004333D01*
X001096Y004263D01*
X001054Y004200D01*
X001067Y004200D01*
X001054Y004200D02*
X001000Y004146D01*
X000940Y004106D01*
X000945Y004104D01*
X001039Y004010D01*
X001090Y003887D01*
X001090Y003753D01*
X001039Y003630D01*
X000945Y003536D01*
X000876Y003508D01*
X000945Y003479D01*
X001039Y003385D01*
X001090Y003262D01*
X001090Y003128D01*
X001039Y003005D01*
X000945Y002911D01*
X000822Y002860D01*
X000688Y002860D01*
X000565Y002911D01*
X000471Y003005D01*
X000420Y003128D01*
X000420Y003262D01*
X000471Y003385D01*
X000565Y003479D01*
X000634Y003508D01*
X000565Y003536D01*
X000471Y003630D01*
X000420Y003753D01*
X000420Y003887D01*
X000471Y004010D01*
X000565Y004104D01*
X000570Y004106D01*
X000510Y004146D01*
X000456Y004200D01*
X000380Y004200D01*
X000380Y004152D02*
X000504Y004152D01*
X000456Y004200D02*
X000414Y004263D01*
X000385Y004333D01*
X000380Y004357D01*
X000380Y004346D02*
X000382Y004346D01*
X000380Y004297D02*
X000400Y004297D01*
X000380Y004249D02*
X000423Y004249D01*
X000380Y004103D02*
X000564Y004103D01*
X000516Y004055D02*
X000380Y004055D01*
X000380Y004006D02*
X000469Y004006D01*
X000449Y003958D02*
X000380Y003958D01*
X000380Y003909D02*
X000429Y003909D01*
X000420Y003861D02*
X000380Y003861D01*
X000380Y003812D02*
X000420Y003812D01*
X000420Y003764D02*
X000380Y003764D01*
X000380Y003715D02*
X000436Y003715D01*
X000456Y003667D02*
X000380Y003667D01*
X000380Y003618D02*
X000483Y003618D01*
X000532Y003570D02*
X000380Y003570D01*
X000380Y003521D02*
X000601Y003521D01*
X000559Y003473D02*
X000380Y003473D01*
X000380Y003424D02*
X000510Y003424D01*
X000467Y003376D02*
X000380Y003376D01*
X000380Y003327D02*
X000447Y003327D01*
X000427Y003279D02*
X000380Y003279D01*
X000380Y003230D02*
X000420Y003230D01*
X000420Y003182D02*
X000380Y003182D01*
X000380Y003133D02*
X000420Y003133D01*
X000438Y003085D02*
X000380Y003085D01*
X000380Y003036D02*
X000458Y003036D01*
X000489Y002988D02*
X000380Y002988D01*
X000380Y002939D02*
X000537Y002939D01*
X000615Y002891D02*
X000380Y002891D01*
X000380Y002842D02*
X001010Y002842D01*
X001010Y002794D02*
X000380Y002794D01*
X000380Y002745D02*
X001052Y002745D01*
X001010Y002787D02*
X001107Y002690D01*
X001243Y002690D01*
X001340Y002787D01*
X001340Y002901D01*
X001438Y002860D01*
X001572Y002860D01*
X001695Y002911D01*
X001789Y003005D01*
X001840Y003128D01*
X001840Y003262D01*
X001789Y003385D01*
X001695Y003479D01*
X001572Y003530D01*
X001438Y003530D01*
X001315Y003479D01*
X001221Y003385D01*
X001170Y003262D01*
X001170Y003128D01*
X001215Y003020D01*
X001107Y003020D01*
X001010Y002923D01*
X001010Y002787D01*
X001010Y002891D02*
X000895Y002891D01*
X000973Y002939D02*
X001026Y002939D01*
X001021Y002988D02*
X001074Y002988D01*
X001052Y003036D02*
X001208Y003036D01*
X001188Y003085D02*
X001072Y003085D01*
X001090Y003133D02*
X001170Y003133D01*
X001170Y003182D02*
X001090Y003182D01*
X001090Y003230D02*
X001170Y003230D01*
X001177Y003279D02*
X001083Y003279D01*
X001063Y003327D02*
X001197Y003327D01*
X001217Y003376D02*
X001043Y003376D01*
X001000Y003424D02*
X001260Y003424D01*
X001309Y003473D02*
X000951Y003473D01*
X000909Y003521D02*
X001417Y003521D01*
X001593Y003521D02*
X004522Y003521D01*
X004540Y003539D02*
X004446Y003445D01*
X004395Y003322D01*
X004395Y003188D01*
X004446Y003065D01*
X004540Y002971D01*
X004663Y002920D01*
X004797Y002920D01*
X004920Y002971D01*
X005014Y003065D01*
X005065Y003188D01*
X005065Y003322D01*
X005014Y003445D01*
X004920Y003539D01*
X004797Y003590D01*
X004663Y003590D01*
X004540Y003539D01*
X004614Y003570D02*
X000978Y003570D01*
X001027Y003618D02*
X005880Y003618D01*
X005880Y003570D02*
X004846Y003570D01*
X004938Y003521D02*
X005880Y003521D01*
X005880Y003473D02*
X004986Y003473D01*
X005023Y003424D02*
X005880Y003424D01*
X005880Y003376D02*
X005043Y003376D01*
X005063Y003327D02*
X005880Y003327D01*
X005880Y003279D02*
X005065Y003279D01*
X005065Y003230D02*
X005880Y003230D01*
X005880Y003182D02*
X005062Y003182D01*
X005042Y003133D02*
X005880Y003133D01*
X005880Y003085D02*
X005022Y003085D01*
X004985Y003036D02*
X005880Y003036D01*
X005880Y002988D02*
X004936Y002988D01*
X004843Y002939D02*
X005880Y002939D01*
X005880Y002891D02*
X003753Y002891D01*
X003780Y002863D02*
X003683Y002960D01*
X003620Y002960D01*
X003620Y003063D01*
X003523Y003160D01*
X003387Y003160D01*
X003290Y003063D01*
X003290Y002927D01*
X003387Y002830D01*
X003450Y002830D01*
X003450Y002727D01*
X003547Y002630D01*
X003683Y002630D01*
X003780Y002727D01*
X003780Y002863D01*
X003780Y002842D02*
X005880Y002842D01*
X005880Y002794D02*
X003780Y002794D01*
X003780Y002745D02*
X005880Y002745D01*
X005880Y002697D02*
X003750Y002697D01*
X003701Y002648D02*
X005880Y002648D01*
X005880Y002600D02*
X000380Y002600D01*
X000380Y002648D02*
X003529Y002648D01*
X003480Y002697D02*
X001250Y002697D01*
X001298Y002745D02*
X003450Y002745D01*
X003450Y002794D02*
X002447Y002794D01*
X002403Y002750D02*
X002500Y002847D01*
X002500Y002983D01*
X002403Y003080D01*
X002267Y003080D01*
X002170Y002983D01*
X002170Y002847D01*
X002267Y002750D01*
X002403Y002750D01*
X002495Y002842D02*
X003375Y002842D01*
X003326Y002891D02*
X002500Y002891D01*
X002500Y002939D02*
X003290Y002939D01*
X003290Y002988D02*
X002496Y002988D01*
X002447Y003036D02*
X003290Y003036D01*
X003311Y003085D02*
X001822Y003085D01*
X001840Y003133D02*
X002684Y003133D01*
X002707Y003110D02*
X002610Y003207D01*
X002610Y003343D01*
X002707Y003440D01*
X002843Y003440D01*
X002940Y003343D01*
X002940Y003207D01*
X002843Y003110D01*
X002707Y003110D01*
X002635Y003182D02*
X001840Y003182D01*
X001840Y003230D02*
X002610Y003230D01*
X002610Y003279D02*
X001833Y003279D01*
X001813Y003327D02*
X002610Y003327D01*
X002642Y003376D02*
X001793Y003376D01*
X001750Y003424D02*
X002691Y003424D01*
X002859Y003424D02*
X003171Y003424D01*
X003187Y003440D02*
X003090Y003343D01*
X003090Y003207D01*
X003187Y003110D01*
X003323Y003110D01*
X003420Y003207D01*
X003420Y003343D01*
X003323Y003440D01*
X003187Y003440D01*
X003122Y003376D02*
X002908Y003376D01*
X002940Y003327D02*
X003090Y003327D01*
X003090Y003279D02*
X002940Y003279D01*
X002940Y003230D02*
X003090Y003230D01*
X003115Y003182D02*
X002915Y003182D01*
X002866Y003133D02*
X003164Y003133D01*
X003346Y003133D02*
X003360Y003133D01*
X003395Y003182D02*
X003515Y003182D01*
X003490Y003207D02*
X003490Y003343D01*
X003587Y003440D01*
X003723Y003440D01*
X003775Y003388D01*
X003827Y003440D01*
X003963Y003440D01*
X004060Y003343D01*
X004060Y003207D01*
X003963Y003110D01*
X003827Y003110D01*
X003775Y003162D01*
X003723Y003110D01*
X003587Y003110D01*
X003490Y003207D01*
X003490Y003230D02*
X003420Y003230D01*
X003420Y003279D02*
X003490Y003279D01*
X003490Y003327D02*
X003420Y003327D01*
X003388Y003376D02*
X003522Y003376D01*
X003571Y003424D02*
X003339Y003424D01*
X003550Y003133D02*
X003564Y003133D01*
X003599Y003085D02*
X004438Y003085D01*
X004418Y003133D02*
X003986Y003133D01*
X004035Y003182D02*
X004398Y003182D01*
X004395Y003230D02*
X004060Y003230D01*
X004060Y003279D02*
X004395Y003279D01*
X004397Y003327D02*
X004060Y003327D01*
X004028Y003376D02*
X004417Y003376D01*
X004437Y003424D02*
X003979Y003424D01*
X003811Y003424D02*
X003739Y003424D01*
X003746Y003133D02*
X003804Y003133D01*
X003704Y002939D02*
X004617Y002939D01*
X004524Y002988D02*
X003620Y002988D01*
X003620Y003036D02*
X004475Y003036D01*
X004474Y003473D02*
X001701Y003473D01*
X001802Y003036D02*
X002223Y003036D01*
X002174Y002988D02*
X001771Y002988D01*
X001723Y002939D02*
X002170Y002939D01*
X002170Y002891D02*
X001645Y002891D01*
X001365Y002891D02*
X001340Y002891D01*
X001340Y002842D02*
X002175Y002842D01*
X002223Y002794D02*
X001340Y002794D01*
X001100Y002697D02*
X000380Y002697D01*
X000380Y002551D02*
X005880Y002551D01*
X005880Y002503D02*
X000380Y002503D01*
X000380Y002454D02*
X003606Y002454D01*
X003637Y002485D02*
X003540Y002388D01*
X003540Y002252D01*
X003637Y002155D01*
X003773Y002155D01*
X003870Y002252D01*
X003870Y002388D01*
X003773Y002485D01*
X003637Y002485D01*
X003557Y002406D02*
X000380Y002406D01*
X000380Y002357D02*
X003540Y002357D01*
X003540Y002309D02*
X000380Y002309D01*
X000380Y002260D02*
X000747Y002260D01*
X000787Y002300D02*
X000690Y002203D01*
X000690Y002067D01*
X000787Y001970D01*
X000923Y001970D01*
X001020Y002067D01*
X001020Y002203D01*
X000923Y002300D01*
X000787Y002300D01*
X000698Y002212D02*
X000380Y002212D01*
X000380Y002163D02*
X000690Y002163D01*
X000690Y002115D02*
X000380Y002115D01*
X000380Y002066D02*
X000691Y002066D01*
X000739Y002018D02*
X000380Y002018D01*
X000380Y001969D02*
X004350Y001969D01*
X004319Y001937D02*
X004388Y002006D01*
X004465Y002066D01*
X004550Y002115D01*
X004640Y002152D01*
X004734Y002177D01*
X004831Y002190D01*
X004855Y002190D01*
X004855Y001470D01*
X004905Y001470D01*
X005625Y001470D01*
X005625Y001494D01*
X005612Y001591D01*
X005587Y001685D01*
X005550Y001775D01*
X005880Y001775D01*
X005880Y001727D02*
X005570Y001727D01*
X005550Y001775D02*
X005501Y001860D01*
X005441Y001937D01*
X005372Y002006D01*
X005295Y002066D01*
X005210Y002115D01*
X005120Y002152D01*
X005026Y002177D01*
X004929Y002190D01*
X004905Y002190D01*
X004905Y001470D01*
X004905Y001420D01*
X005625Y001420D01*
X005625Y001396D01*
X005612Y001299D01*
X005587Y001205D01*
X005550Y001115D01*
X005501Y001030D01*
X005441Y000953D01*
X005372Y000884D01*
X005295Y000824D01*
X005210Y000775D01*
X005120Y000738D01*
X005026Y000713D01*
X004929Y000700D01*
X004905Y000700D01*
X004905Y001420D01*
X004855Y001420D01*
X004855Y000700D01*
X004831Y000700D01*
X004734Y000713D01*
X004640Y000738D01*
X004550Y000775D01*
X004465Y000824D01*
X004388Y000884D01*
X004319Y000953D01*
X004259Y001030D01*
X004210Y001115D01*
X004173Y001205D01*
X004148Y001299D01*
X004135Y001396D01*
X004135Y001420D01*
X004855Y001420D01*
X004855Y001470D01*
X004135Y001470D01*
X004135Y001494D01*
X004148Y001591D01*
X004173Y001685D01*
X004210Y001775D01*
X003060Y001775D01*
X003060Y001727D02*
X002963Y001630D01*
X002827Y001630D01*
X002730Y001727D01*
X002730Y001863D01*
X002827Y001960D01*
X002963Y001960D01*
X003060Y001863D01*
X003060Y001727D01*
X004190Y001727D01*
X004210Y001775D02*
X004259Y001860D01*
X004319Y001937D01*
X004306Y001921D02*
X003003Y001921D01*
X003051Y001872D02*
X004269Y001872D01*
X004238Y001824D02*
X003060Y001824D01*
X003011Y001678D02*
X004171Y001678D01*
X004158Y001630D02*
X000380Y001630D01*
X000380Y001678D02*
X002059Y001678D01*
X002107Y001630D02*
X002010Y001727D01*
X002010Y001863D01*
X002107Y001960D01*
X002243Y001960D01*
X002340Y001863D01*
X002340Y001727D01*
X002243Y001630D01*
X002107Y001630D01*
X002010Y001727D02*
X000380Y001727D01*
X000380Y001775D02*
X002010Y001775D01*
X002010Y001824D02*
X000380Y001824D01*
X000380Y001872D02*
X002019Y001872D01*
X002067Y001921D02*
X000380Y001921D01*
X000380Y001581D02*
X004146Y001581D01*
X004140Y001533D02*
X000380Y001533D01*
X000380Y001484D02*
X004135Y001484D01*
X004136Y001387D02*
X000380Y001387D01*
X000380Y001339D02*
X004143Y001339D01*
X004150Y001290D02*
X000380Y001290D01*
X000380Y001242D02*
X004163Y001242D01*
X004178Y001193D02*
X002435Y001193D01*
X002423Y001205D02*
X002287Y001205D01*
X002190Y001108D01*
X002190Y000972D01*
X002287Y000875D01*
X002423Y000875D01*
X002520Y000972D01*
X002520Y001108D01*
X002423Y001205D01*
X002484Y001145D02*
X004198Y001145D01*
X004221Y001096D02*
X002520Y001096D01*
X002520Y001048D02*
X004249Y001048D01*
X004283Y000999D02*
X002520Y000999D01*
X002499Y000951D02*
X004321Y000951D01*
X004369Y000902D02*
X002450Y000902D01*
X002260Y000902D02*
X000380Y000902D01*
X000380Y000854D02*
X004427Y000854D01*
X004499Y000805D02*
X000380Y000805D01*
X000380Y000757D02*
X004595Y000757D01*
X004770Y000708D02*
X000380Y000708D01*
X000380Y000660D02*
X005880Y000660D01*
X005880Y000708D02*
X004990Y000708D01*
X004905Y000708D02*
X004855Y000708D01*
X004855Y000757D02*
X004905Y000757D01*
X004905Y000805D02*
X004855Y000805D01*
X004855Y000854D02*
X004905Y000854D01*
X004905Y000902D02*
X004855Y000902D01*
X004855Y000951D02*
X004905Y000951D01*
X004905Y000999D02*
X004855Y000999D01*
X004855Y001048D02*
X004905Y001048D01*
X004905Y001096D02*
X004855Y001096D01*
X004855Y001145D02*
X004905Y001145D01*
X004905Y001193D02*
X004855Y001193D01*
X004855Y001242D02*
X004905Y001242D01*
X004905Y001290D02*
X004855Y001290D01*
X004855Y001339D02*
X004905Y001339D01*
X004905Y001387D02*
X004855Y001387D01*
X004855Y001436D02*
X000380Y001436D01*
X000380Y001193D02*
X002275Y001193D01*
X002226Y001145D02*
X000380Y001145D01*
X000380Y001096D02*
X002190Y001096D01*
X002190Y001048D02*
X000380Y001048D01*
X000380Y000999D02*
X002190Y000999D01*
X002211Y000951D02*
X000380Y000951D01*
X000380Y000611D02*
X005880Y000611D01*
X005880Y000757D02*
X005165Y000757D01*
X005261Y000805D02*
X005880Y000805D01*
X005880Y000854D02*
X005333Y000854D01*
X005391Y000902D02*
X005880Y000902D01*
X005880Y000951D02*
X005439Y000951D01*
X005477Y000999D02*
X005880Y000999D01*
X005880Y001048D02*
X005511Y001048D01*
X005539Y001096D02*
X005880Y001096D01*
X005880Y001145D02*
X005562Y001145D01*
X005582Y001193D02*
X005880Y001193D01*
X005880Y001242D02*
X005597Y001242D01*
X005610Y001290D02*
X005880Y001290D01*
X005880Y001339D02*
X005617Y001339D01*
X005624Y001387D02*
X005880Y001387D01*
X005880Y001436D02*
X004905Y001436D01*
X004905Y001484D02*
X004855Y001484D01*
X004855Y001533D02*
X004905Y001533D01*
X004905Y001581D02*
X004855Y001581D01*
X004855Y001630D02*
X004905Y001630D01*
X004905Y001678D02*
X004855Y001678D01*
X004855Y001727D02*
X004905Y001727D01*
X004905Y001775D02*
X004855Y001775D01*
X004855Y001824D02*
X004905Y001824D01*
X004905Y001872D02*
X004855Y001872D01*
X004855Y001921D02*
X004905Y001921D01*
X004905Y001969D02*
X004855Y001969D01*
X004855Y002018D02*
X004905Y002018D01*
X004905Y002066D02*
X004855Y002066D01*
X004855Y002115D02*
X004905Y002115D01*
X004905Y002163D02*
X004855Y002163D01*
X004681Y002163D02*
X003781Y002163D01*
X003830Y002212D02*
X005880Y002212D01*
X005880Y002260D02*
X003870Y002260D01*
X003870Y002309D02*
X005880Y002309D01*
X005880Y002357D02*
X003870Y002357D01*
X003853Y002406D02*
X005880Y002406D01*
X005880Y002454D02*
X003804Y002454D01*
X003580Y002212D02*
X001012Y002212D01*
X001020Y002163D02*
X003629Y002163D01*
X003540Y002260D02*
X000963Y002260D01*
X001020Y002115D02*
X004550Y002115D01*
X004466Y002066D02*
X001019Y002066D01*
X000971Y002018D02*
X004402Y002018D01*
X005079Y002163D02*
X005880Y002163D01*
X005880Y002115D02*
X005210Y002115D01*
X005294Y002066D02*
X005880Y002066D01*
X005880Y002018D02*
X005358Y002018D01*
X005410Y001969D02*
X005880Y001969D01*
X005880Y001921D02*
X005454Y001921D01*
X005491Y001872D02*
X005880Y001872D01*
X005880Y001824D02*
X005522Y001824D01*
X005589Y001678D02*
X005880Y001678D01*
X005880Y001630D02*
X005602Y001630D01*
X005614Y001581D02*
X005880Y001581D01*
X005880Y001533D02*
X005620Y001533D01*
X005625Y001484D02*
X005880Y001484D01*
X005880Y003667D02*
X001054Y003667D01*
X001074Y003715D02*
X005880Y003715D01*
X005880Y003764D02*
X001090Y003764D01*
X001090Y003812D02*
X005880Y003812D01*
X005880Y003861D02*
X001090Y003861D01*
X001081Y003909D02*
X005880Y003909D01*
X005880Y003958D02*
X001291Y003958D01*
X001283Y003950D02*
X001380Y004047D01*
X001380Y004183D01*
X001283Y004280D01*
X001147Y004280D01*
X001050Y004183D01*
X001050Y004047D01*
X001147Y003950D01*
X001283Y003950D01*
X001339Y004006D02*
X005880Y004006D01*
X005880Y004055D02*
X001380Y004055D01*
X001380Y004103D02*
X005880Y004103D01*
X005880Y004152D02*
X001380Y004152D01*
X001363Y004200D02*
X005880Y004200D01*
X005880Y004249D02*
X001315Y004249D01*
X001137Y004394D02*
X005880Y004394D01*
X005880Y004346D02*
X001128Y004346D01*
X001110Y004297D02*
X005880Y004297D01*
X005880Y004443D02*
X000780Y004443D01*
X000780Y004491D02*
X000730Y004491D01*
X000730Y004540D02*
X000780Y004540D01*
X000780Y004588D02*
X000730Y004588D01*
X000730Y004637D02*
X000780Y004637D01*
X000780Y004685D02*
X000730Y004685D01*
X000730Y004734D02*
X000780Y004734D01*
X000780Y004782D02*
X000730Y004782D01*
X000566Y004782D02*
X000380Y004782D01*
X000380Y004734D02*
X000499Y004734D01*
X000452Y004685D02*
X000380Y004685D01*
X000380Y004637D02*
X000420Y004637D01*
X000398Y004588D02*
X000380Y004588D01*
X000380Y004540D02*
X000381Y004540D01*
X000380Y004831D02*
X001066Y004831D01*
X001050Y004847D02*
X001147Y004750D01*
X001283Y004750D01*
X001380Y004847D01*
X001380Y004983D01*
X001283Y005080D01*
X001220Y005080D01*
X001220Y005150D01*
X001283Y005150D01*
X001380Y005247D01*
X001380Y005383D01*
X001328Y005435D01*
X001380Y005487D01*
X001380Y005623D01*
X001328Y005675D01*
X001380Y005727D01*
X001380Y005863D01*
X001283Y005960D01*
X001220Y005960D01*
X001220Y006030D01*
X001283Y006030D01*
X001380Y006127D01*
X001380Y006263D01*
X001283Y006360D01*
X001147Y006360D01*
X001050Y006263D01*
X001050Y006160D01*
X000987Y006160D01*
X000890Y006063D01*
X000890Y005927D01*
X000987Y005830D01*
X001050Y005830D01*
X001050Y005727D01*
X001102Y005675D01*
X001050Y005623D01*
X001050Y005487D01*
X001102Y005435D01*
X001050Y005383D01*
X001050Y005280D01*
X000987Y005280D01*
X000890Y005183D01*
X000890Y005047D01*
X000987Y004950D01*
X001050Y004950D01*
X001050Y004847D01*
X001050Y004879D02*
X000380Y004879D01*
X000380Y004928D02*
X001050Y004928D01*
X000961Y004976D02*
X000380Y004976D01*
X000380Y005025D02*
X000912Y005025D01*
X000890Y005073D02*
X000380Y005073D01*
X000380Y005122D02*
X000890Y005122D01*
X000890Y005170D02*
X000380Y005170D01*
X000380Y005219D02*
X000925Y005219D01*
X000974Y005267D02*
X000380Y005267D01*
X000380Y005316D02*
X001050Y005316D01*
X001050Y005364D02*
X000380Y005364D01*
X000380Y005413D02*
X001079Y005413D01*
X001076Y005461D02*
X000380Y005461D01*
X000380Y005510D02*
X001050Y005510D01*
X001050Y005558D02*
X000380Y005558D01*
X000380Y005607D02*
X001050Y005607D01*
X001082Y005655D02*
X000380Y005655D01*
X000380Y005704D02*
X001073Y005704D01*
X001050Y005752D02*
X000380Y005752D01*
X000380Y005801D02*
X001050Y005801D01*
X000968Y005849D02*
X000380Y005849D01*
X000380Y005898D02*
X000919Y005898D01*
X000890Y005946D02*
X000380Y005946D01*
X000380Y005995D02*
X000890Y005995D01*
X000890Y006043D02*
X000380Y006043D01*
X000380Y006092D02*
X000918Y006092D01*
X000967Y006140D02*
X000380Y006140D01*
X000380Y006189D02*
X001050Y006189D01*
X001050Y006237D02*
X000380Y006237D01*
X000380Y006286D02*
X001072Y006286D01*
X001121Y006334D02*
X000380Y006334D01*
X000380Y006383D02*
X005880Y006383D01*
X005880Y006431D02*
X000380Y006431D01*
X000380Y006480D02*
X005880Y006480D01*
X005880Y006528D02*
X005676Y006528D01*
X005695Y006536D02*
X005789Y006630D01*
X005840Y006753D01*
X005840Y006887D01*
X005789Y007010D01*
X005695Y007104D01*
X005572Y007155D01*
X005438Y007155D01*
X005315Y007104D01*
X005221Y007010D01*
X005170Y006887D01*
X005170Y006753D01*
X005221Y006630D01*
X005315Y006536D01*
X005438Y006485D01*
X005572Y006485D01*
X005695Y006536D01*
X005735Y006577D02*
X005880Y006577D01*
X005880Y006625D02*
X005784Y006625D01*
X005807Y006674D02*
X005880Y006674D01*
X005880Y006722D02*
X005827Y006722D01*
X005840Y006771D02*
X005880Y006771D01*
X005880Y006819D02*
X005840Y006819D01*
X005840Y006868D02*
X005880Y006868D01*
X005880Y006916D02*
X005828Y006916D01*
X005808Y006965D02*
X005880Y006965D01*
X005880Y007013D02*
X005786Y007013D01*
X005737Y007062D02*
X005880Y007062D01*
X005880Y007110D02*
X005680Y007110D01*
X005880Y007159D02*
X005180Y007159D01*
X005180Y007127D02*
X005083Y007030D01*
X004947Y007030D01*
X004850Y007127D01*
X004850Y007263D01*
X004947Y007360D01*
X005083Y007360D01*
X005180Y007263D01*
X005180Y007127D01*
X005163Y007110D02*
X005330Y007110D01*
X005273Y007062D02*
X005115Y007062D01*
X005202Y006965D02*
X000380Y006965D01*
X000380Y007013D02*
X001164Y007013D01*
X001187Y006990D02*
X001323Y006990D01*
X001420Y007087D01*
X001420Y007223D01*
X001323Y007320D01*
X001187Y007320D01*
X001090Y007223D01*
X001090Y007087D01*
X001187Y006990D01*
X001115Y007062D02*
X000380Y007062D01*
X000380Y007110D02*
X001090Y007110D01*
X001090Y007159D02*
X000380Y007159D01*
X000380Y007207D02*
X001090Y007207D01*
X001122Y007256D02*
X000380Y007256D01*
X000380Y007304D02*
X001171Y007304D01*
X001339Y007304D02*
X004891Y007304D01*
X004850Y007256D02*
X001388Y007256D01*
X001420Y007207D02*
X004850Y007207D01*
X004850Y007159D02*
X001420Y007159D01*
X001420Y007110D02*
X004867Y007110D01*
X004915Y007062D02*
X001395Y007062D01*
X001346Y007013D02*
X005224Y007013D01*
X005182Y006916D02*
X000380Y006916D01*
X000380Y006868D02*
X005170Y006868D01*
X005170Y006819D02*
X000380Y006819D01*
X000380Y006771D02*
X005170Y006771D01*
X005183Y006722D02*
X000380Y006722D01*
X000380Y006674D02*
X005203Y006674D01*
X005226Y006625D02*
X000380Y006625D01*
X000380Y006577D02*
X005275Y006577D01*
X005334Y006528D02*
X000380Y006528D01*
X000380Y007353D02*
X004939Y007353D01*
X005091Y007353D02*
X005880Y007353D01*
X005880Y007401D02*
X000380Y007401D01*
X000380Y007450D02*
X005880Y007450D01*
X005880Y007498D02*
X000380Y007498D01*
X000380Y007547D02*
X005880Y007547D01*
X005880Y007595D02*
X000380Y007595D01*
X000380Y007644D02*
X005880Y007644D01*
X005880Y007692D02*
X000380Y007692D01*
X000380Y007741D02*
X005880Y007741D01*
X005880Y007789D02*
X000380Y007789D01*
X000380Y007838D02*
X005880Y007838D01*
X005880Y007886D02*
X000380Y007886D01*
X000380Y007935D02*
X005880Y007935D01*
X005880Y007983D02*
X000380Y007983D01*
X000380Y008032D02*
X005880Y008032D01*
X005880Y008080D02*
X000380Y008080D01*
X000380Y008129D02*
X005880Y008129D01*
X005880Y008177D02*
X000380Y008177D01*
X000380Y008226D02*
X001151Y008226D01*
X001103Y008274D02*
X000380Y008274D01*
X001359Y008226D02*
X001391Y008226D01*
X001599Y008226D02*
X001631Y008226D01*
X001839Y008226D02*
X001871Y008226D01*
X002079Y008226D02*
X002151Y008226D01*
X002359Y008226D02*
X002391Y008226D01*
X002599Y008226D02*
X002631Y008226D01*
X002839Y008226D02*
X002871Y008226D01*
X003079Y008226D02*
X003151Y008226D01*
X003359Y008226D02*
X003431Y008226D01*
X003639Y008226D02*
X003671Y008226D01*
X003879Y008226D02*
X003911Y008226D01*
X004119Y008226D02*
X004151Y008226D01*
X004359Y008226D02*
X004431Y008226D01*
X004639Y008226D02*
X004671Y008226D01*
X004879Y008226D02*
X004911Y008226D01*
X005119Y008226D02*
X005880Y008226D01*
X005880Y008274D02*
X005167Y008274D01*
X005139Y007304D02*
X005880Y007304D01*
X005880Y007256D02*
X005180Y007256D01*
X005180Y007207D02*
X005880Y007207D01*
X005880Y006334D02*
X005149Y006334D01*
X005123Y006360D02*
X005195Y006288D01*
X005227Y006320D01*
X005363Y006320D01*
X005460Y006223D01*
X005460Y006087D01*
X005363Y005990D01*
X005293Y005990D01*
X005380Y005903D01*
X005380Y005767D01*
X005283Y005670D01*
X005220Y005670D01*
X005220Y005567D01*
X005168Y005515D01*
X005220Y005463D01*
X005220Y005327D01*
X005168Y005275D01*
X005220Y005223D01*
X005220Y005087D01*
X005168Y005035D01*
X005213Y004990D01*
X005221Y005010D01*
X005315Y005104D01*
X005438Y005155D01*
X005572Y005155D01*
X005695Y005104D01*
X005789Y005010D01*
X005840Y004887D01*
X005840Y004753D01*
X005789Y004630D01*
X005695Y004536D01*
X005572Y004485D01*
X005438Y004485D01*
X005315Y004536D01*
X005221Y004630D01*
X005170Y004753D01*
X005170Y004797D01*
X005123Y004750D01*
X004987Y004750D01*
X004890Y004847D01*
X004890Y004983D01*
X004942Y005035D01*
X004890Y005087D01*
X004890Y005223D01*
X004942Y005275D01*
X004890Y005327D01*
X004890Y005463D01*
X004942Y005515D01*
X004890Y005567D01*
X004890Y005703D01*
X004987Y005800D01*
X005050Y005800D01*
X005050Y005903D01*
X005147Y006000D01*
X005217Y006000D01*
X005155Y006062D01*
X005123Y006030D01*
X004987Y006030D01*
X004890Y006127D01*
X004890Y006263D01*
X004987Y006360D01*
X005123Y006360D01*
X004961Y006334D02*
X001309Y006334D01*
X001358Y006286D02*
X004912Y006286D01*
X004890Y006237D02*
X001380Y006237D01*
X001380Y006189D02*
X004890Y006189D01*
X004890Y006140D02*
X001380Y006140D01*
X001345Y006092D02*
X004925Y006092D01*
X004974Y006043D02*
X001296Y006043D01*
X001220Y005995D02*
X005141Y005995D01*
X005136Y006043D02*
X005174Y006043D01*
X005093Y005946D02*
X001297Y005946D01*
X001346Y005898D02*
X005050Y005898D01*
X005050Y005849D02*
X001380Y005849D01*
X001380Y005801D02*
X005050Y005801D01*
X004939Y005752D02*
X001380Y005752D01*
X001357Y005704D02*
X004890Y005704D01*
X004890Y005655D02*
X001348Y005655D01*
X001380Y005607D02*
X004890Y005607D01*
X004899Y005558D02*
X001380Y005558D01*
X001380Y005510D02*
X004936Y005510D01*
X004890Y005461D02*
X001354Y005461D01*
X001351Y005413D02*
X004890Y005413D01*
X004890Y005364D02*
X001380Y005364D01*
X001380Y005316D02*
X004901Y005316D01*
X004934Y005267D02*
X001380Y005267D01*
X001352Y005219D02*
X004890Y005219D01*
X004890Y005170D02*
X001303Y005170D01*
X001220Y005122D02*
X004890Y005122D01*
X004904Y005073D02*
X001290Y005073D01*
X001339Y005025D02*
X004931Y005025D01*
X004890Y004976D02*
X001380Y004976D01*
X001380Y004928D02*
X004890Y004928D01*
X004890Y004879D02*
X001380Y004879D01*
X001364Y004831D02*
X004906Y004831D01*
X004955Y004782D02*
X001315Y004782D01*
X001115Y004782D02*
X000944Y004782D01*
X001011Y004734D02*
X005178Y004734D01*
X005170Y004782D02*
X005155Y004782D01*
X005198Y004685D02*
X001058Y004685D01*
X001090Y004637D02*
X005218Y004637D01*
X005263Y004588D02*
X001112Y004588D01*
X001129Y004540D02*
X005312Y004540D01*
X005424Y004491D02*
X001138Y004491D01*
X001115Y004249D02*
X001087Y004249D01*
X001050Y004152D02*
X001006Y004152D01*
X001050Y004103D02*
X000946Y004103D01*
X000994Y004055D02*
X001050Y004055D01*
X001041Y004006D02*
X001091Y004006D01*
X001061Y003958D02*
X001139Y003958D01*
X002283Y001921D02*
X002787Y001921D01*
X002739Y001872D02*
X002331Y001872D01*
X002340Y001824D02*
X002730Y001824D01*
X002730Y001775D02*
X002340Y001775D01*
X002340Y001727D02*
X002730Y001727D01*
X002779Y001678D02*
X002291Y001678D01*
X005179Y005025D02*
X005236Y005025D01*
X005206Y005073D02*
X005284Y005073D01*
X005220Y005122D02*
X005358Y005122D01*
X005220Y005170D02*
X005880Y005170D01*
X005880Y005122D02*
X005652Y005122D01*
X005726Y005073D02*
X005880Y005073D01*
X005880Y005025D02*
X005774Y005025D01*
X005803Y004976D02*
X005880Y004976D01*
X005880Y004928D02*
X005823Y004928D01*
X005840Y004879D02*
X005880Y004879D01*
X005880Y004831D02*
X005840Y004831D01*
X005840Y004782D02*
X005880Y004782D01*
X005880Y004734D02*
X005832Y004734D01*
X005812Y004685D02*
X005880Y004685D01*
X005880Y004637D02*
X005792Y004637D01*
X005747Y004588D02*
X005880Y004588D01*
X005880Y004540D02*
X005698Y004540D01*
X005586Y004491D02*
X005880Y004491D01*
X005880Y005219D02*
X005220Y005219D01*
X005176Y005267D02*
X005880Y005267D01*
X005880Y005316D02*
X005209Y005316D01*
X005220Y005364D02*
X005880Y005364D01*
X005880Y005413D02*
X005220Y005413D01*
X005220Y005461D02*
X005880Y005461D01*
X005880Y005510D02*
X005174Y005510D01*
X005211Y005558D02*
X005880Y005558D01*
X005880Y005607D02*
X005220Y005607D01*
X005220Y005655D02*
X005880Y005655D01*
X005880Y005704D02*
X005317Y005704D01*
X005365Y005752D02*
X005880Y005752D01*
X005880Y005801D02*
X005380Y005801D01*
X005380Y005849D02*
X005880Y005849D01*
X005880Y005898D02*
X005380Y005898D01*
X005337Y005946D02*
X005880Y005946D01*
X005880Y005995D02*
X005368Y005995D01*
X005416Y006043D02*
X005880Y006043D01*
X005880Y006092D02*
X005460Y006092D01*
X005460Y006140D02*
X005880Y006140D01*
X005880Y006189D02*
X005460Y006189D01*
X005446Y006237D02*
X005880Y006237D01*
X005880Y006286D02*
X005398Y006286D01*
M02*
