G75*
G70*
%OFA0B0*%
%FSLAX24Y24*%
%IPPOS*%
%LPD*%
%AMOC8*
5,1,8,0,0,1.08239X$1,22.5*
%
%ADD10C,0.0060*%
%ADD11C,0.0220*%
%ADD12C,0.0160*%
%ADD13C,0.0080*%
D10*
X000378Y000459D02*
X000378Y001906D01*
X000466Y001819D01*
X000631Y001819D01*
X000748Y001936D01*
X000748Y002102D01*
X000631Y002219D01*
X000466Y002219D01*
X000378Y002132D01*
X000378Y002828D01*
X000468Y002738D01*
X000634Y002738D01*
X000751Y002855D01*
X000751Y003021D01*
X000634Y003138D01*
X000468Y003138D01*
X000378Y003048D01*
X000378Y003184D01*
X000422Y003140D01*
X000588Y003140D01*
X000705Y003257D01*
X000705Y003423D01*
X000588Y003540D01*
X000422Y003540D01*
X000378Y003496D01*
X000378Y004177D01*
X000442Y004114D01*
X000607Y004114D01*
X000725Y004231D01*
X000725Y004397D01*
X000607Y004514D01*
X000442Y004514D01*
X000378Y004450D01*
X000378Y007869D01*
X000688Y007869D01*
X000688Y007706D01*
X000758Y007636D01*
X000758Y007505D01*
X000835Y007429D01*
X001275Y006989D01*
X001206Y006989D01*
X001088Y006872D01*
X001088Y006706D01*
X001206Y006589D01*
X001371Y006589D01*
X001488Y006706D01*
X001488Y006775D01*
X002418Y005845D01*
X002418Y004839D01*
X002286Y004839D01*
X002168Y004722D01*
X002168Y004556D01*
X002286Y004439D01*
X002451Y004439D01*
X002568Y004556D01*
X002568Y004655D01*
X002785Y004439D01*
X003133Y004439D01*
X003150Y004429D01*
X003185Y004439D01*
X003222Y004439D01*
X003236Y004452D01*
X003254Y004457D01*
X003272Y004489D01*
X003298Y004515D01*
X003298Y004534D01*
X003313Y004559D01*
X003361Y004559D01*
X003478Y004676D01*
X003478Y004696D01*
X003566Y004609D01*
X003628Y004609D01*
X003208Y004189D01*
X002791Y004189D01*
X002761Y004219D01*
X002596Y004219D01*
X002478Y004102D01*
X002478Y003936D01*
X002596Y003819D01*
X002761Y003819D01*
X002791Y003849D01*
X003349Y003849D01*
X003448Y003948D01*
X004108Y004608D01*
X004108Y005649D01*
X005796Y005649D01*
X005866Y005579D01*
X006031Y005579D01*
X006148Y005696D01*
X006148Y005862D01*
X006031Y005979D01*
X005989Y005979D01*
X005979Y005989D01*
X003868Y005989D01*
X003768Y005889D01*
X003768Y004972D01*
X003731Y005009D01*
X003566Y005009D01*
X003448Y004892D01*
X003448Y004872D01*
X003361Y004959D01*
X003196Y004959D01*
X003138Y004902D01*
X003092Y004949D01*
X003107Y005704D01*
X003108Y005705D01*
X003108Y005758D01*
X003109Y005810D01*
X003108Y005811D01*
X003108Y005813D01*
X003071Y005850D01*
X003035Y005888D01*
X003033Y005888D01*
X001728Y007193D01*
X001728Y007383D01*
X001522Y007589D01*
X001551Y007589D01*
X001618Y007656D01*
X001686Y007589D01*
X001851Y007589D01*
X001928Y007666D01*
X002046Y007549D01*
X002211Y007549D01*
X002278Y007616D01*
X002346Y007549D01*
X002511Y007549D01*
X002573Y007611D01*
X002636Y007549D01*
X002801Y007549D01*
X002858Y007606D01*
X002916Y007549D01*
X003081Y007549D01*
X003138Y007606D01*
X003196Y007549D01*
X003361Y007549D01*
X003453Y007641D01*
X003546Y007549D01*
X003711Y007549D01*
X003778Y007616D01*
X003846Y007549D01*
X004011Y007549D01*
X004093Y007631D01*
X004176Y007549D01*
X004341Y007549D01*
X004398Y007606D01*
X004398Y007546D01*
X004516Y007429D01*
X004681Y007429D01*
X004743Y007491D01*
X004806Y007429D01*
X004971Y007429D01*
X005028Y007486D01*
X005086Y007429D01*
X005251Y007429D01*
X005313Y007491D01*
X005376Y007429D01*
X005541Y007429D01*
X005613Y007501D01*
X005676Y007439D01*
X005841Y007439D01*
X005958Y007556D01*
X006204Y007556D01*
X006204Y007614D02*
X005958Y007614D01*
X005958Y007556D02*
X005958Y007722D01*
X005841Y007839D01*
X005676Y007839D01*
X005603Y007767D01*
X005541Y007829D01*
X005376Y007829D01*
X005313Y007767D01*
X005251Y007829D01*
X005086Y007829D01*
X005028Y007772D01*
X004971Y007829D01*
X004806Y007829D01*
X004743Y007767D01*
X004681Y007829D01*
X004516Y007829D01*
X004458Y007772D01*
X004458Y007832D01*
X004421Y007869D01*
X006204Y007869D01*
X006204Y003936D01*
X006141Y003999D01*
X005976Y003999D01*
X005858Y003882D01*
X005858Y003716D01*
X005976Y003599D01*
X006141Y003599D01*
X006204Y003662D01*
X006204Y002646D01*
X006201Y002649D01*
X006036Y002649D01*
X005918Y002532D01*
X005918Y002366D01*
X006036Y002249D01*
X006201Y002249D01*
X006204Y002252D01*
X006204Y000459D01*
X004981Y000459D01*
X005048Y000526D01*
X005048Y000692D01*
X004931Y000809D01*
X004766Y000809D01*
X004648Y000692D01*
X004648Y000526D01*
X004716Y000459D01*
X000378Y000459D01*
X000378Y000477D02*
X004697Y000477D01*
X004648Y000536D02*
X000378Y000536D01*
X000378Y000594D02*
X004648Y000594D01*
X004648Y000653D02*
X000378Y000653D01*
X000378Y000711D02*
X004668Y000711D01*
X004727Y000770D02*
X000378Y000770D01*
X000378Y000828D02*
X006204Y000828D01*
X006204Y000770D02*
X004970Y000770D01*
X005029Y000711D02*
X006204Y000711D01*
X006204Y000653D02*
X005048Y000653D01*
X005048Y000594D02*
X006204Y000594D01*
X006204Y000536D02*
X005048Y000536D01*
X005000Y000477D02*
X006204Y000477D01*
X006204Y000887D02*
X001449Y000887D01*
X001441Y000879D02*
X001558Y000996D01*
X001558Y001162D01*
X001441Y001279D01*
X001276Y001279D01*
X001158Y001162D01*
X001158Y000996D01*
X001276Y000879D01*
X001441Y000879D01*
X001508Y000945D02*
X006204Y000945D01*
X006204Y001004D02*
X001558Y001004D01*
X001558Y001062D02*
X006204Y001062D01*
X006204Y001121D02*
X001558Y001121D01*
X001541Y001179D02*
X006204Y001179D01*
X006204Y001238D02*
X001482Y001238D01*
X001235Y001238D02*
X000858Y001238D01*
X000858Y001296D02*
X006204Y001296D01*
X006204Y001355D02*
X005000Y001355D01*
X004998Y001354D02*
X005143Y001414D01*
X005203Y001559D01*
X005143Y001704D01*
X004998Y001764D01*
X004854Y001704D01*
X004808Y001595D01*
X004808Y001742D01*
X004691Y001859D01*
X004526Y001859D01*
X004408Y001742D01*
X004408Y001576D01*
X004526Y001459D01*
X004691Y001459D01*
X004795Y001563D01*
X004794Y001559D01*
X004854Y001414D01*
X004998Y001354D01*
X004996Y001355D02*
X000805Y001355D01*
X000858Y001302D02*
X000741Y001419D01*
X000576Y001419D01*
X000458Y001302D01*
X000458Y001136D01*
X000576Y001019D01*
X000741Y001019D01*
X000858Y001136D01*
X000858Y001302D01*
X000858Y001179D02*
X001176Y001179D01*
X001158Y001121D02*
X000843Y001121D01*
X000785Y001062D02*
X001158Y001062D01*
X001158Y001004D02*
X000378Y001004D01*
X000378Y001062D02*
X000532Y001062D01*
X000474Y001121D02*
X000378Y001121D01*
X000378Y001179D02*
X000458Y001179D01*
X000458Y001238D02*
X000378Y001238D01*
X000378Y001296D02*
X000458Y001296D01*
X000512Y001355D02*
X000378Y001355D01*
X000378Y001413D02*
X000570Y001413D01*
X000747Y001413D02*
X003051Y001413D01*
X003086Y001379D02*
X003251Y001379D01*
X003368Y001496D01*
X003368Y001662D01*
X003251Y001779D01*
X003086Y001779D01*
X002968Y001662D01*
X002968Y001496D01*
X003086Y001379D01*
X002993Y001472D02*
X000378Y001472D01*
X000378Y001530D02*
X002968Y001530D01*
X002968Y001589D02*
X000378Y001589D01*
X000378Y001647D02*
X002968Y001647D01*
X003013Y001706D02*
X000378Y001706D01*
X000378Y001764D02*
X001660Y001764D01*
X001706Y001719D02*
X001588Y001836D01*
X001588Y002002D01*
X001706Y002119D01*
X001871Y002119D01*
X001988Y002002D01*
X001988Y001836D01*
X001871Y001719D01*
X001706Y001719D01*
X001602Y001823D02*
X000635Y001823D01*
X000694Y001881D02*
X001588Y001881D01*
X001588Y001940D02*
X000748Y001940D01*
X000748Y001998D02*
X001588Y001998D01*
X001644Y002057D02*
X000748Y002057D01*
X000735Y002115D02*
X001702Y002115D01*
X001641Y002229D02*
X001758Y002346D01*
X001758Y002512D01*
X001641Y002629D01*
X001476Y002629D01*
X001358Y002512D01*
X001358Y002346D01*
X001476Y002229D01*
X001641Y002229D01*
X001645Y002232D02*
X004162Y002232D01*
X004216Y002179D02*
X004098Y002296D01*
X004098Y002462D01*
X004126Y002489D01*
X004098Y002516D01*
X004098Y002682D01*
X004141Y002724D01*
X004068Y002796D01*
X004068Y002962D01*
X004091Y002984D01*
X004068Y003006D01*
X004068Y003172D01*
X004186Y003289D01*
X004291Y003289D01*
X004245Y003335D01*
X004245Y003500D01*
X004362Y003617D01*
X004505Y003617D01*
X004505Y003770D01*
X004622Y003887D01*
X004788Y003887D01*
X004905Y003770D01*
X004905Y003716D01*
X004948Y003734D01*
X005093Y003674D01*
X005153Y003529D01*
X005095Y003389D01*
X005153Y003249D01*
X005093Y003104D01*
X005062Y003091D01*
X005113Y003040D01*
X005113Y002875D01*
X005029Y002791D01*
X005098Y002722D01*
X005098Y002556D01*
X004981Y002439D01*
X004816Y002439D01*
X004698Y002556D01*
X004698Y002722D01*
X004782Y002806D01*
X004713Y002875D01*
X004713Y003040D01*
X004796Y003123D01*
X004744Y003249D01*
X004802Y003389D01*
X004761Y003487D01*
X004645Y003487D01*
X004645Y003335D01*
X004528Y003217D01*
X004423Y003217D01*
X004468Y003172D01*
X004468Y003006D01*
X004446Y002984D01*
X004468Y002962D01*
X004468Y002796D01*
X004426Y002754D01*
X004498Y002682D01*
X004498Y002516D01*
X004471Y002489D01*
X004498Y002462D01*
X004498Y002296D01*
X004381Y002179D01*
X004216Y002179D01*
X004145Y002115D02*
X004737Y002115D01*
X004737Y002057D02*
X004198Y002057D01*
X004198Y002062D02*
X004081Y002179D01*
X003916Y002179D01*
X003798Y002062D01*
X003798Y001896D01*
X003916Y001779D01*
X004081Y001779D01*
X004198Y001896D01*
X004198Y002062D01*
X004198Y001998D02*
X004763Y001998D01*
X004737Y002024D02*
X004854Y001907D01*
X005020Y001907D01*
X005137Y002024D01*
X005137Y002190D01*
X005020Y002307D01*
X004854Y002307D01*
X004737Y002190D01*
X004737Y002024D01*
X004821Y001940D02*
X004198Y001940D01*
X004184Y001881D02*
X006204Y001881D01*
X006204Y001823D02*
X004727Y001823D01*
X004786Y001764D02*
X006204Y001764D01*
X006204Y001706D02*
X005138Y001706D01*
X005167Y001647D02*
X006204Y001647D01*
X006204Y001589D02*
X005191Y001589D01*
X005191Y001530D02*
X006204Y001530D01*
X006204Y001472D02*
X005167Y001472D01*
X005142Y001413D02*
X006204Y001413D01*
X006204Y001940D02*
X005053Y001940D01*
X005111Y001998D02*
X006204Y001998D01*
X006204Y002057D02*
X005137Y002057D01*
X005137Y002115D02*
X006204Y002115D01*
X006204Y002174D02*
X005137Y002174D01*
X005094Y002232D02*
X006204Y002232D01*
X005994Y002291D02*
X005036Y002291D01*
X005009Y002466D02*
X005918Y002466D01*
X005918Y002408D02*
X004498Y002408D01*
X004494Y002466D02*
X004788Y002466D01*
X004730Y002525D02*
X004498Y002525D01*
X004498Y002583D02*
X004698Y002583D01*
X004698Y002642D02*
X004498Y002642D01*
X004480Y002700D02*
X004698Y002700D01*
X004736Y002759D02*
X004431Y002759D01*
X004468Y002817D02*
X004771Y002817D01*
X004713Y002876D02*
X004468Y002876D01*
X004468Y002934D02*
X004713Y002934D01*
X004713Y002993D02*
X004455Y002993D01*
X004468Y003051D02*
X004724Y003051D01*
X004783Y003110D02*
X004468Y003110D01*
X004468Y003168D02*
X004777Y003168D01*
X004753Y003227D02*
X004537Y003227D01*
X004596Y003285D02*
X004759Y003285D01*
X004783Y003344D02*
X004645Y003344D01*
X004645Y003402D02*
X004796Y003402D01*
X004772Y003461D02*
X004645Y003461D01*
X004505Y003636D02*
X003898Y003636D01*
X003898Y003578D02*
X004323Y003578D01*
X004264Y003519D02*
X003852Y003519D01*
X003811Y003479D02*
X003898Y003566D01*
X003898Y003732D01*
X003781Y003849D01*
X003616Y003849D01*
X003498Y003732D01*
X003498Y003566D01*
X003596Y003469D01*
X003533Y003407D01*
X003481Y003459D01*
X003316Y003459D01*
X003238Y003382D01*
X003171Y003449D01*
X003006Y003449D01*
X002948Y003392D01*
X002891Y003449D01*
X002748Y003449D01*
X002748Y003462D01*
X002631Y003579D01*
X002466Y003579D01*
X002348Y003462D01*
X002348Y003296D01*
X002466Y003179D01*
X002608Y003179D01*
X002608Y003166D01*
X002726Y003049D01*
X002891Y003049D01*
X002948Y003106D01*
X003006Y003049D01*
X003171Y003049D01*
X003248Y003126D01*
X003316Y003059D01*
X003481Y003059D01*
X003573Y003151D01*
X003626Y003099D01*
X003791Y003099D01*
X003908Y003216D01*
X003908Y003382D01*
X003811Y003479D01*
X003829Y003461D02*
X004245Y003461D01*
X004245Y003402D02*
X003888Y003402D01*
X003908Y003344D02*
X004245Y003344D01*
X004182Y003285D02*
X003908Y003285D01*
X003908Y003227D02*
X004124Y003227D01*
X004068Y003168D02*
X003861Y003168D01*
X003802Y003110D02*
X004068Y003110D01*
X004068Y003051D02*
X003174Y003051D01*
X003232Y003110D02*
X003265Y003110D01*
X003532Y003110D02*
X003615Y003110D01*
X003588Y003461D02*
X002748Y003461D01*
X002691Y003519D02*
X003545Y003519D01*
X003498Y003578D02*
X002632Y003578D01*
X002465Y003578D02*
X001680Y003578D01*
X001693Y003609D02*
X001633Y003754D01*
X001488Y003814D01*
X001344Y003754D01*
X001284Y003609D01*
X001339Y003474D01*
X001284Y003339D01*
X001344Y003194D01*
X001488Y003134D01*
X001633Y003194D01*
X001693Y003339D01*
X001637Y003474D01*
X001693Y003609D01*
X001682Y003636D02*
X003498Y003636D01*
X003498Y003695D02*
X001658Y003695D01*
X001633Y003753D02*
X003520Y003753D01*
X003579Y003812D02*
X001493Y003812D01*
X001484Y003812D02*
X000378Y003812D01*
X000378Y003870D02*
X002544Y003870D01*
X002486Y003929D02*
X000378Y003929D01*
X000378Y003987D02*
X002478Y003987D01*
X002478Y004046D02*
X000378Y004046D01*
X000378Y004104D02*
X002481Y004104D01*
X002540Y004163D02*
X000657Y004163D01*
X000715Y004221D02*
X003240Y004221D01*
X003299Y004280D02*
X000725Y004280D01*
X000725Y004338D02*
X003357Y004338D01*
X003416Y004397D02*
X001841Y004397D01*
X001827Y004384D02*
X001945Y004501D01*
X001945Y004667D01*
X001827Y004784D01*
X001662Y004784D01*
X001545Y004667D01*
X001545Y004501D01*
X001662Y004384D01*
X001827Y004384D01*
X001899Y004455D02*
X002269Y004455D01*
X002211Y004514D02*
X001945Y004514D01*
X001945Y004572D02*
X002168Y004572D01*
X002168Y004631D02*
X001945Y004631D01*
X001922Y004689D02*
X002168Y004689D01*
X002195Y004748D02*
X001863Y004748D01*
X001626Y004748D02*
X000378Y004748D01*
X000378Y004806D02*
X002253Y004806D01*
X002418Y004865D02*
X000378Y004865D01*
X000378Y004923D02*
X002418Y004923D01*
X002418Y004982D02*
X000378Y004982D01*
X000378Y005040D02*
X002418Y005040D01*
X002418Y005099D02*
X000378Y005099D01*
X000378Y005157D02*
X002418Y005157D01*
X002418Y005216D02*
X000378Y005216D01*
X000378Y005274D02*
X002418Y005274D01*
X002418Y005333D02*
X000378Y005333D01*
X000378Y005391D02*
X002418Y005391D01*
X002418Y005450D02*
X000378Y005450D01*
X000378Y005508D02*
X001116Y005508D01*
X001126Y005499D02*
X001291Y005499D01*
X001408Y005616D01*
X001408Y005782D01*
X001291Y005899D01*
X001126Y005899D01*
X001008Y005782D01*
X001008Y005616D01*
X001126Y005499D01*
X001058Y005567D02*
X000378Y005567D01*
X000378Y005625D02*
X001008Y005625D01*
X001008Y005684D02*
X000378Y005684D01*
X000378Y005742D02*
X001008Y005742D01*
X001028Y005801D02*
X000378Y005801D01*
X000378Y005859D02*
X001086Y005859D01*
X001331Y005859D02*
X002404Y005859D01*
X002418Y005801D02*
X001389Y005801D01*
X001408Y005742D02*
X002418Y005742D01*
X002418Y005684D02*
X001408Y005684D01*
X001408Y005625D02*
X002418Y005625D01*
X002418Y005567D02*
X001359Y005567D01*
X001301Y005508D02*
X002418Y005508D01*
X002346Y005918D02*
X000378Y005918D01*
X000378Y005976D02*
X002287Y005976D01*
X002229Y006035D02*
X000378Y006035D01*
X000378Y006093D02*
X002170Y006093D01*
X002112Y006152D02*
X000378Y006152D01*
X000378Y006210D02*
X002053Y006210D01*
X001995Y006269D02*
X000378Y006269D01*
X000378Y006327D02*
X001936Y006327D01*
X001878Y006386D02*
X000378Y006386D01*
X000378Y006444D02*
X001819Y006444D01*
X001761Y006503D02*
X000378Y006503D01*
X000378Y006561D02*
X001702Y006561D01*
X001644Y006620D02*
X001402Y006620D01*
X001461Y006678D02*
X001585Y006678D01*
X001527Y006737D02*
X001488Y006737D01*
X001234Y007029D02*
X000378Y007029D01*
X000378Y006971D02*
X001188Y006971D01*
X001129Y006912D02*
X000378Y006912D01*
X000378Y006854D02*
X001088Y006854D01*
X001088Y006795D02*
X000378Y006795D01*
X000378Y006737D02*
X001088Y006737D01*
X001116Y006678D02*
X000378Y006678D01*
X000378Y006620D02*
X001175Y006620D01*
X001176Y007088D02*
X000378Y007088D01*
X000378Y007146D02*
X001117Y007146D01*
X001059Y007205D02*
X000378Y007205D01*
X000378Y007263D02*
X001000Y007263D01*
X000942Y007322D02*
X000378Y007322D01*
X000378Y007380D02*
X000883Y007380D01*
X000825Y007439D02*
X000378Y007439D01*
X000378Y007497D02*
X000766Y007497D01*
X000758Y007556D02*
X000378Y007556D01*
X000378Y007614D02*
X000758Y007614D01*
X000722Y007673D02*
X000378Y007673D01*
X000378Y007731D02*
X000688Y007731D01*
X000688Y007790D02*
X000378Y007790D01*
X000378Y007848D02*
X000688Y007848D01*
X001555Y007556D02*
X002039Y007556D01*
X001980Y007614D02*
X001877Y007614D01*
X001928Y007666D02*
X001928Y007666D01*
X001660Y007614D02*
X001577Y007614D01*
X001614Y007497D02*
X004447Y007497D01*
X004398Y007556D02*
X004348Y007556D01*
X004506Y007439D02*
X001672Y007439D01*
X001728Y007380D02*
X006204Y007380D01*
X006204Y007322D02*
X001728Y007322D01*
X001728Y007263D02*
X006204Y007263D01*
X006204Y007205D02*
X001728Y007205D01*
X001775Y007146D02*
X006204Y007146D01*
X006204Y007088D02*
X001833Y007088D01*
X001892Y007029D02*
X006204Y007029D01*
X006204Y006971D02*
X005169Y006971D01*
X005151Y006989D02*
X004986Y006989D01*
X004868Y006872D01*
X004868Y006706D01*
X004986Y006589D01*
X005151Y006589D01*
X005268Y006706D01*
X005268Y006872D01*
X005151Y006989D01*
X005228Y006912D02*
X006204Y006912D01*
X006204Y006854D02*
X005268Y006854D01*
X005268Y006795D02*
X006204Y006795D01*
X006204Y006737D02*
X005268Y006737D01*
X005241Y006678D02*
X006204Y006678D01*
X006204Y006620D02*
X005182Y006620D01*
X004955Y006620D02*
X003922Y006620D01*
X003891Y006589D02*
X004008Y006706D01*
X004008Y006872D01*
X003891Y006989D01*
X003726Y006989D01*
X003608Y006872D01*
X003608Y006706D01*
X003726Y006589D01*
X003891Y006589D01*
X003981Y006678D02*
X004896Y006678D01*
X004868Y006737D02*
X004008Y006737D01*
X004008Y006795D02*
X004868Y006795D01*
X004868Y006854D02*
X004008Y006854D01*
X003968Y006912D02*
X004909Y006912D01*
X004968Y006971D02*
X003909Y006971D01*
X003708Y006971D02*
X002649Y006971D01*
X002631Y006989D02*
X002466Y006989D01*
X002348Y006872D01*
X002348Y006706D01*
X002466Y006589D01*
X002631Y006589D01*
X002748Y006706D01*
X002748Y006872D01*
X002631Y006989D01*
X002708Y006912D02*
X003649Y006912D01*
X003608Y006854D02*
X002748Y006854D01*
X002748Y006795D02*
X003608Y006795D01*
X003608Y006737D02*
X002748Y006737D01*
X002721Y006678D02*
X003636Y006678D01*
X003695Y006620D02*
X002662Y006620D01*
X002435Y006620D02*
X002301Y006620D01*
X002243Y006678D02*
X002376Y006678D01*
X002348Y006737D02*
X002184Y006737D01*
X002126Y006795D02*
X002348Y006795D01*
X002348Y006854D02*
X002067Y006854D01*
X002009Y006912D02*
X002389Y006912D01*
X002448Y006971D02*
X001950Y006971D01*
X002360Y006561D02*
X006204Y006561D01*
X006204Y006503D02*
X002418Y006503D01*
X002477Y006444D02*
X006204Y006444D01*
X006204Y006386D02*
X002535Y006386D01*
X002594Y006327D02*
X006204Y006327D01*
X006204Y006269D02*
X002652Y006269D01*
X002711Y006210D02*
X006204Y006210D01*
X006204Y006152D02*
X002769Y006152D01*
X002828Y006093D02*
X006204Y006093D01*
X006204Y006035D02*
X002886Y006035D01*
X002945Y005976D02*
X003855Y005976D01*
X003797Y005918D02*
X003003Y005918D01*
X003062Y005859D02*
X003768Y005859D01*
X003768Y005801D02*
X003109Y005801D01*
X003108Y005742D02*
X003768Y005742D01*
X003768Y005684D02*
X003107Y005684D01*
X003106Y005625D02*
X003768Y005625D01*
X003768Y005567D02*
X003104Y005567D01*
X003103Y005508D02*
X003768Y005508D01*
X003768Y005450D02*
X003102Y005450D01*
X003101Y005391D02*
X003768Y005391D01*
X003768Y005333D02*
X003100Y005333D01*
X003098Y005274D02*
X003768Y005274D01*
X003768Y005216D02*
X003097Y005216D01*
X003096Y005157D02*
X003768Y005157D01*
X003768Y005099D02*
X003095Y005099D01*
X003093Y005040D02*
X003768Y005040D01*
X003758Y004982D02*
X003768Y004982D01*
X003539Y004982D02*
X003092Y004982D01*
X003117Y004923D02*
X003160Y004923D01*
X003397Y004923D02*
X003480Y004923D01*
X003478Y004689D02*
X003485Y004689D01*
X003433Y004631D02*
X003544Y004631D01*
X003591Y004572D02*
X003375Y004572D01*
X003297Y004514D02*
X003533Y004514D01*
X003474Y004455D02*
X003247Y004455D01*
X003604Y004104D02*
X004188Y004104D01*
X004188Y004046D02*
X003546Y004046D01*
X003487Y003987D02*
X004227Y003987D01*
X004188Y004026D02*
X004306Y003909D01*
X004471Y003909D01*
X004588Y004026D01*
X004588Y004192D01*
X004471Y004309D01*
X004306Y004309D01*
X004188Y004192D01*
X004188Y004026D01*
X004188Y004163D02*
X003663Y004163D01*
X003721Y004221D02*
X004218Y004221D01*
X004277Y004280D02*
X003780Y004280D01*
X003838Y004338D02*
X004815Y004338D01*
X004794Y004339D02*
X004815Y004359D01*
X004815Y004279D01*
X004932Y004162D01*
X005098Y004162D01*
X005215Y004279D01*
X005215Y004445D01*
X005098Y004562D01*
X004932Y004562D01*
X004911Y004541D01*
X004911Y004622D01*
X004794Y004739D01*
X004629Y004739D01*
X004605Y004715D01*
X004501Y004819D01*
X004336Y004819D01*
X004218Y004702D01*
X004218Y004536D01*
X004336Y004419D01*
X004501Y004419D01*
X004525Y004443D01*
X004629Y004339D01*
X004794Y004339D01*
X004815Y004280D02*
X004500Y004280D01*
X004559Y004221D02*
X004873Y004221D01*
X004931Y004163D02*
X004588Y004163D01*
X004588Y004104D02*
X005913Y004104D01*
X005938Y004094D02*
X006083Y004154D01*
X006143Y004299D01*
X006083Y004444D01*
X005938Y004504D01*
X005794Y004444D01*
X005734Y004299D01*
X005794Y004154D01*
X005938Y004094D01*
X005963Y004104D02*
X006204Y004104D01*
X006204Y004046D02*
X004588Y004046D01*
X004550Y003987D02*
X005964Y003987D01*
X005906Y003929D02*
X004491Y003929D01*
X004605Y003870D02*
X003370Y003870D01*
X003429Y003929D02*
X004286Y003929D01*
X004505Y003753D02*
X003877Y003753D01*
X003898Y003695D02*
X004505Y003695D01*
X004547Y003812D02*
X003818Y003812D01*
X003897Y004397D02*
X004570Y004397D01*
X004299Y004455D02*
X003955Y004455D01*
X004014Y004514D02*
X004241Y004514D01*
X004218Y004572D02*
X004072Y004572D01*
X004108Y004631D02*
X004218Y004631D01*
X004218Y004689D02*
X004108Y004689D01*
X004108Y004748D02*
X004265Y004748D01*
X004323Y004806D02*
X004108Y004806D01*
X004108Y004865D02*
X006204Y004865D01*
X006204Y004923D02*
X004108Y004923D01*
X004108Y004982D02*
X006204Y004982D01*
X006204Y005040D02*
X004108Y005040D01*
X004108Y005099D02*
X006204Y005099D01*
X006204Y005157D02*
X004108Y005157D01*
X004108Y005216D02*
X006204Y005216D01*
X006204Y005274D02*
X005072Y005274D01*
X005026Y005229D02*
X005143Y005346D01*
X005143Y005512D01*
X005026Y005629D01*
X004861Y005629D01*
X004743Y005512D01*
X004743Y005346D01*
X004861Y005229D01*
X005026Y005229D01*
X005130Y005333D02*
X006204Y005333D01*
X006204Y005391D02*
X005143Y005391D01*
X005143Y005450D02*
X006204Y005450D01*
X006204Y005508D02*
X005143Y005508D01*
X005088Y005567D02*
X006204Y005567D01*
X006204Y005625D02*
X006078Y005625D01*
X006136Y005684D02*
X006204Y005684D01*
X006204Y005742D02*
X006148Y005742D01*
X006148Y005801D02*
X006204Y005801D01*
X006204Y005859D02*
X006148Y005859D01*
X006092Y005918D02*
X006204Y005918D01*
X006204Y005976D02*
X006034Y005976D01*
X005819Y005625D02*
X005030Y005625D01*
X004857Y005625D02*
X004108Y005625D01*
X004108Y005567D02*
X004799Y005567D01*
X004743Y005508D02*
X004108Y005508D01*
X004108Y005450D02*
X004743Y005450D01*
X004743Y005391D02*
X004108Y005391D01*
X004108Y005333D02*
X004757Y005333D01*
X004815Y005274D02*
X004108Y005274D01*
X004514Y004806D02*
X006204Y004806D01*
X006204Y004748D02*
X004572Y004748D01*
X004844Y004689D02*
X006204Y004689D01*
X006204Y004631D02*
X004902Y004631D01*
X004911Y004572D02*
X006204Y004572D01*
X006204Y004514D02*
X005146Y004514D01*
X005204Y004455D02*
X005822Y004455D01*
X005774Y004397D02*
X005215Y004397D01*
X005215Y004338D02*
X005750Y004338D01*
X005741Y004280D02*
X005215Y004280D01*
X005157Y004221D02*
X005766Y004221D01*
X005790Y004163D02*
X005099Y004163D01*
X004805Y003870D02*
X005858Y003870D01*
X005858Y003812D02*
X004863Y003812D01*
X004905Y003753D02*
X005858Y003753D01*
X005880Y003695D02*
X005042Y003695D01*
X005109Y003636D02*
X005938Y003636D01*
X006179Y003636D02*
X006204Y003636D01*
X006204Y003578D02*
X005133Y003578D01*
X005149Y003519D02*
X006204Y003519D01*
X006204Y003461D02*
X005125Y003461D01*
X005101Y003402D02*
X006204Y003402D01*
X006204Y003344D02*
X005114Y003344D01*
X005138Y003285D02*
X006204Y003285D01*
X006204Y003227D02*
X006092Y003227D01*
X006067Y003252D02*
X005901Y003252D01*
X005784Y003135D01*
X005784Y002969D01*
X005901Y002852D01*
X006067Y002852D01*
X006184Y002969D01*
X006184Y003135D01*
X006067Y003252D01*
X006151Y003168D02*
X006204Y003168D01*
X006204Y003110D02*
X006184Y003110D01*
X006184Y003051D02*
X006204Y003051D01*
X006204Y002993D02*
X006184Y002993D01*
X006204Y002934D02*
X006149Y002934D01*
X006204Y002876D02*
X006091Y002876D01*
X006204Y002817D02*
X005056Y002817D01*
X005061Y002759D02*
X006204Y002759D01*
X006204Y002700D02*
X005098Y002700D01*
X005098Y002642D02*
X006029Y002642D01*
X005970Y002583D02*
X005098Y002583D01*
X005067Y002525D02*
X005918Y002525D01*
X005935Y002349D02*
X004498Y002349D01*
X004493Y002291D02*
X004838Y002291D01*
X004779Y002232D02*
X004435Y002232D01*
X004737Y002174D02*
X004086Y002174D01*
X004104Y002291D02*
X002253Y002291D01*
X002221Y002259D02*
X002338Y002376D01*
X002338Y002542D01*
X002221Y002659D01*
X002056Y002659D01*
X001938Y002542D01*
X001938Y002376D01*
X002056Y002259D01*
X002221Y002259D01*
X002312Y002349D02*
X004098Y002349D01*
X004098Y002408D02*
X002338Y002408D01*
X002338Y002466D02*
X004103Y002466D01*
X004098Y002525D02*
X002338Y002525D01*
X002297Y002583D02*
X004098Y002583D01*
X004098Y002642D02*
X002238Y002642D01*
X002039Y002642D02*
X000378Y002642D01*
X000378Y002700D02*
X004117Y002700D01*
X004106Y002759D02*
X000655Y002759D01*
X000714Y002817D02*
X004068Y002817D01*
X004068Y002876D02*
X000751Y002876D01*
X000751Y002934D02*
X004068Y002934D01*
X004082Y002993D02*
X000751Y002993D01*
X000720Y003051D02*
X002723Y003051D01*
X002665Y003110D02*
X000662Y003110D01*
X000616Y003168D02*
X001405Y003168D01*
X001330Y003227D02*
X000675Y003227D01*
X000705Y003285D02*
X001306Y003285D01*
X001286Y003344D02*
X000705Y003344D01*
X000705Y003402D02*
X001310Y003402D01*
X001334Y003461D02*
X000667Y003461D01*
X000608Y003519D02*
X001321Y003519D01*
X001296Y003578D02*
X000378Y003578D01*
X000378Y003636D02*
X001295Y003636D01*
X001319Y003695D02*
X000378Y003695D01*
X000378Y003753D02*
X001343Y003753D01*
X001403Y003609D02*
X001405Y003627D01*
X001410Y003644D01*
X001419Y003659D01*
X001431Y003672D01*
X001445Y003683D01*
X001462Y003690D01*
X001479Y003694D01*
X001497Y003694D01*
X001514Y003690D01*
X001530Y003683D01*
X001545Y003672D01*
X001557Y003659D01*
X001566Y003644D01*
X001571Y003627D01*
X001573Y003609D01*
X001571Y003591D01*
X001566Y003574D01*
X001557Y003559D01*
X001545Y003546D01*
X001531Y003535D01*
X001514Y003528D01*
X001497Y003524D01*
X001479Y003524D01*
X001462Y003528D01*
X001446Y003535D01*
X001431Y003546D01*
X001419Y003559D01*
X001410Y003574D01*
X001405Y003591D01*
X001403Y003609D01*
X001403Y003339D02*
X001405Y003357D01*
X001410Y003374D01*
X001419Y003389D01*
X001431Y003402D01*
X001445Y003413D01*
X001462Y003420D01*
X001479Y003424D01*
X001497Y003424D01*
X001514Y003420D01*
X001530Y003413D01*
X001545Y003402D01*
X001557Y003389D01*
X001566Y003374D01*
X001571Y003357D01*
X001573Y003339D01*
X001571Y003321D01*
X001566Y003304D01*
X001557Y003289D01*
X001545Y003276D01*
X001531Y003265D01*
X001514Y003258D01*
X001497Y003254D01*
X001479Y003254D01*
X001462Y003258D01*
X001446Y003265D01*
X001431Y003276D01*
X001419Y003289D01*
X001410Y003304D01*
X001405Y003321D01*
X001403Y003339D01*
X001571Y003168D02*
X002608Y003168D01*
X002418Y003227D02*
X001647Y003227D01*
X001671Y003285D02*
X002359Y003285D01*
X002348Y003344D02*
X001691Y003344D01*
X001667Y003402D02*
X002348Y003402D01*
X002348Y003461D02*
X001643Y003461D01*
X001656Y003519D02*
X002406Y003519D01*
X002894Y003051D02*
X003003Y003051D01*
X002959Y003402D02*
X002938Y003402D01*
X003218Y003402D02*
X003259Y003402D01*
X002768Y004455D02*
X002468Y004455D01*
X002526Y004514D02*
X002710Y004514D01*
X002651Y004572D02*
X002568Y004572D01*
X002568Y004631D02*
X002593Y004631D01*
X001648Y004397D02*
X000724Y004397D01*
X000666Y004455D02*
X001590Y004455D01*
X001545Y004514D02*
X000378Y004514D01*
X000378Y004572D02*
X001545Y004572D01*
X001545Y004631D02*
X000378Y004631D01*
X000378Y004689D02*
X001567Y004689D01*
X000383Y004455D02*
X000378Y004455D01*
X000378Y004163D02*
X000392Y004163D01*
X000378Y003519D02*
X000402Y003519D01*
X000378Y003168D02*
X000394Y003168D01*
X000378Y003110D02*
X000440Y003110D01*
X000382Y003051D02*
X000378Y003051D01*
X000378Y002817D02*
X000389Y002817D01*
X000378Y002759D02*
X000447Y002759D01*
X000378Y002583D02*
X001430Y002583D01*
X001372Y002525D02*
X000378Y002525D01*
X000378Y002466D02*
X001358Y002466D01*
X001358Y002408D02*
X000378Y002408D01*
X000378Y002349D02*
X001358Y002349D01*
X001414Y002291D02*
X000378Y002291D01*
X000378Y002232D02*
X001472Y002232D01*
X001703Y002291D02*
X002024Y002291D01*
X001965Y002349D02*
X001758Y002349D01*
X001758Y002408D02*
X001938Y002408D01*
X001938Y002466D02*
X001758Y002466D01*
X001745Y002525D02*
X001938Y002525D01*
X001980Y002583D02*
X001687Y002583D01*
X001875Y002115D02*
X002502Y002115D01*
X002516Y002129D02*
X002398Y002012D01*
X002398Y001846D01*
X002516Y001729D01*
X002681Y001729D01*
X002798Y001846D01*
X002798Y002012D01*
X002681Y002129D01*
X002516Y002129D01*
X002444Y002057D02*
X001933Y002057D01*
X001988Y001998D02*
X002398Y001998D01*
X002398Y001940D02*
X001988Y001940D01*
X001988Y001881D02*
X002398Y001881D01*
X002422Y001823D02*
X001975Y001823D01*
X001917Y001764D02*
X002480Y001764D01*
X002717Y001764D02*
X003071Y001764D01*
X003266Y001764D02*
X004431Y001764D01*
X004408Y001706D02*
X003324Y001706D01*
X003368Y001647D02*
X004408Y001647D01*
X004408Y001589D02*
X003368Y001589D01*
X003368Y001530D02*
X004454Y001530D01*
X004513Y001472D02*
X003344Y001472D01*
X003286Y001413D02*
X004855Y001413D01*
X004830Y001472D02*
X004704Y001472D01*
X004763Y001530D02*
X004805Y001530D01*
X004808Y001647D02*
X004830Y001647D01*
X004808Y001706D02*
X004859Y001706D01*
X004913Y001559D02*
X004915Y001577D01*
X004920Y001594D01*
X004929Y001609D01*
X004941Y001622D01*
X004955Y001633D01*
X004972Y001640D01*
X004989Y001644D01*
X005007Y001644D01*
X005024Y001640D01*
X005040Y001633D01*
X005055Y001622D01*
X005067Y001609D01*
X005076Y001594D01*
X005081Y001577D01*
X005083Y001559D01*
X005081Y001541D01*
X005076Y001524D01*
X005067Y001509D01*
X005055Y001496D01*
X005041Y001485D01*
X005024Y001478D01*
X005007Y001474D01*
X004989Y001474D01*
X004972Y001478D01*
X004956Y001485D01*
X004941Y001496D01*
X004929Y001509D01*
X004920Y001524D01*
X004915Y001541D01*
X004913Y001559D01*
X004490Y001823D02*
X004125Y001823D01*
X003872Y001823D02*
X002775Y001823D01*
X002798Y001881D02*
X003813Y001881D01*
X003798Y001940D02*
X002798Y001940D01*
X002798Y001998D02*
X003798Y001998D01*
X003798Y002057D02*
X002753Y002057D01*
X002695Y002115D02*
X003852Y002115D01*
X003911Y002174D02*
X000676Y002174D01*
X000421Y002174D02*
X000378Y002174D01*
X000378Y001881D02*
X000403Y001881D01*
X000378Y001823D02*
X000462Y001823D01*
X000378Y000945D02*
X001209Y000945D01*
X001268Y000887D02*
X000378Y000887D01*
X004863Y003249D02*
X004865Y003267D01*
X004870Y003284D01*
X004879Y003299D01*
X004891Y003312D01*
X004905Y003323D01*
X004922Y003330D01*
X004939Y003334D01*
X004957Y003334D01*
X004974Y003330D01*
X004990Y003323D01*
X005005Y003312D01*
X005017Y003299D01*
X005026Y003284D01*
X005031Y003267D01*
X005033Y003249D01*
X005031Y003231D01*
X005026Y003214D01*
X005017Y003199D01*
X005005Y003186D01*
X004991Y003175D01*
X004974Y003168D01*
X004957Y003164D01*
X004939Y003164D01*
X004922Y003168D01*
X004906Y003175D01*
X004891Y003186D01*
X004879Y003199D01*
X004870Y003214D01*
X004865Y003231D01*
X004863Y003249D01*
X004863Y003529D02*
X004865Y003547D01*
X004870Y003564D01*
X004879Y003579D01*
X004891Y003592D01*
X004905Y003603D01*
X004922Y003610D01*
X004939Y003614D01*
X004957Y003614D01*
X004974Y003610D01*
X004990Y003603D01*
X005005Y003592D01*
X005017Y003579D01*
X005026Y003564D01*
X005031Y003547D01*
X005033Y003529D01*
X005031Y003511D01*
X005026Y003494D01*
X005017Y003479D01*
X005005Y003466D01*
X004991Y003455D01*
X004974Y003448D01*
X004957Y003444D01*
X004939Y003444D01*
X004922Y003448D01*
X004906Y003455D01*
X004891Y003466D01*
X004879Y003479D01*
X004870Y003494D01*
X004865Y003511D01*
X004863Y003529D01*
X005120Y003168D02*
X005818Y003168D01*
X005784Y003110D02*
X005096Y003110D01*
X005102Y003051D02*
X005784Y003051D01*
X005784Y002993D02*
X005113Y002993D01*
X005113Y002934D02*
X005819Y002934D01*
X005878Y002876D02*
X005113Y002876D01*
X005144Y003227D02*
X005876Y003227D01*
X006153Y003987D02*
X006204Y003987D01*
X006204Y004163D02*
X006087Y004163D01*
X006111Y004221D02*
X006204Y004221D01*
X006204Y004280D02*
X006135Y004280D01*
X006127Y004338D02*
X006204Y004338D01*
X006204Y004397D02*
X006103Y004397D01*
X006055Y004455D02*
X006204Y004455D01*
X005853Y004299D02*
X005855Y004317D01*
X005860Y004334D01*
X005869Y004349D01*
X005881Y004362D01*
X005895Y004373D01*
X005912Y004380D01*
X005929Y004384D01*
X005947Y004384D01*
X005964Y004380D01*
X005980Y004373D01*
X005995Y004362D01*
X006007Y004349D01*
X006016Y004334D01*
X006021Y004317D01*
X006023Y004299D01*
X006021Y004281D01*
X006016Y004264D01*
X006007Y004249D01*
X005995Y004236D01*
X005981Y004225D01*
X005964Y004218D01*
X005947Y004214D01*
X005929Y004214D01*
X005912Y004218D01*
X005896Y004225D01*
X005881Y004236D01*
X005869Y004249D01*
X005860Y004264D01*
X005855Y004281D01*
X005853Y004299D01*
X005841Y007439D02*
X006204Y007439D01*
X006204Y007497D02*
X005900Y007497D01*
X005958Y007673D02*
X006204Y007673D01*
X006204Y007731D02*
X005949Y007731D01*
X005890Y007790D02*
X006204Y007790D01*
X006204Y007848D02*
X004442Y007848D01*
X004458Y007790D02*
X004477Y007790D01*
X004720Y007790D02*
X004767Y007790D01*
X005010Y007790D02*
X005047Y007790D01*
X005290Y007790D02*
X005337Y007790D01*
X005580Y007790D02*
X005627Y007790D01*
X005610Y007497D02*
X005617Y007497D01*
X005676Y007439D02*
X005551Y007439D01*
X005366Y007439D02*
X005261Y007439D01*
X005076Y007439D02*
X004981Y007439D01*
X004796Y007439D02*
X004691Y007439D01*
X004169Y007556D02*
X004018Y007556D01*
X004077Y007614D02*
X004110Y007614D01*
X003839Y007556D02*
X003718Y007556D01*
X003777Y007614D02*
X003780Y007614D01*
X003539Y007556D02*
X003368Y007556D01*
X003427Y007614D02*
X003480Y007614D01*
X003189Y007556D02*
X003088Y007556D01*
X002909Y007556D02*
X002808Y007556D01*
X002629Y007556D02*
X002518Y007556D01*
X002339Y007556D02*
X002218Y007556D01*
X002277Y007614D02*
X002280Y007614D01*
D11*
X002428Y007749D03*
X002128Y007749D03*
X001768Y007789D03*
X001468Y007789D03*
X001168Y007789D03*
X000888Y007789D03*
X001288Y006789D03*
X001208Y005699D03*
X001745Y004584D03*
X002368Y004639D03*
X002678Y004019D03*
X002548Y003379D03*
X002808Y003249D03*
X003088Y003249D03*
X003398Y003259D03*
X003708Y003299D03*
X003698Y003649D03*
X004268Y003089D03*
X004268Y002879D03*
X004298Y002599D03*
X004298Y002379D03*
X003998Y001979D03*
X004608Y001659D03*
X004992Y001559D03*
X005333Y001568D03*
X004937Y002107D03*
X004898Y002639D03*
X004913Y002957D03*
X004953Y003248D03*
X004945Y003530D03*
X004705Y003687D03*
X004445Y003417D03*
X004388Y004109D03*
X004711Y004539D03*
X004418Y004619D03*
X005015Y004362D03*
X005940Y004294D03*
X005955Y004740D03*
X006058Y003799D03*
X005984Y003052D03*
X006118Y002449D03*
X005993Y002168D03*
X004848Y000609D03*
X003168Y001579D03*
X002598Y001929D03*
X002138Y002459D03*
X001788Y001919D03*
X001558Y002429D03*
X002147Y003041D03*
X001967Y003611D03*
X001487Y003611D03*
X001489Y003342D03*
X000551Y002938D03*
X000505Y003340D03*
X000525Y004314D03*
X000548Y002019D03*
X000658Y001219D03*
X001358Y001079D03*
X002958Y004799D03*
X003278Y004759D03*
X003648Y004809D03*
X004943Y005429D03*
X005948Y005779D03*
X006075Y006540D03*
X006075Y006880D03*
X005458Y007629D03*
X005168Y007629D03*
X004888Y007629D03*
X004598Y007629D03*
X004258Y007749D03*
X003928Y007749D03*
X003628Y007749D03*
X003278Y007749D03*
X002998Y007749D03*
X002718Y007749D03*
X002548Y006789D03*
X003808Y006789D03*
X005068Y006789D03*
X005758Y007639D03*
D12*
X005908Y005819D02*
X003938Y005819D01*
X003938Y004679D01*
X003278Y004019D01*
X002678Y004019D01*
X005908Y005819D02*
X005948Y005779D01*
D13*
X003278Y004759D02*
X003168Y004569D01*
X002838Y004569D01*
X002548Y004859D01*
X002548Y005899D01*
X000888Y007559D01*
X000888Y007789D01*
X001168Y007789D02*
X001178Y007799D01*
X001178Y007749D01*
X001598Y007329D01*
X001598Y007139D01*
X002978Y005759D01*
X002958Y004799D01*
M02*
