G75*
G70*
%OFA0B0*%
%FSLAX24Y24*%
%IPPOS*%
%LPD*%
%AMOC8*
5,1,8,0,0,1.08239X$1,22.5*
%
%ADD10R,0.0354X0.0236*%
%ADD11R,0.0236X0.0354*%
%ADD12R,0.0197X0.0236*%
%ADD13R,0.0630X0.0354*%
%ADD14R,0.0236X0.0197*%
%ADD15R,0.0472X0.0217*%
%ADD16R,0.0551X0.0433*%
%ADD17R,0.0150X0.0300*%
%ADD18R,0.0150X0.0400*%
%ADD19R,0.0220X0.0500*%
%ADD20C,0.0220*%
%ADD21C,0.0120*%
%ADD22C,0.0100*%
%ADD23C,0.0060*%
%ADD24C,0.0080*%
%ADD25C,0.0160*%
%ADD26C,0.0059*%
D10*
X003919Y003936D03*
X003919Y004527D03*
X004618Y002954D03*
X004618Y002363D03*
X004618Y002024D03*
X004618Y001433D03*
X005169Y001203D03*
X005169Y000612D03*
X005236Y003480D03*
X005236Y004071D03*
X005462Y004502D03*
X005941Y004502D03*
X005941Y005093D03*
X005943Y005423D03*
X005462Y005092D03*
X005943Y006013D03*
D11*
X004723Y004968D03*
X004133Y004968D03*
X003410Y003610D03*
X002820Y003610D03*
X002341Y003616D03*
X002522Y003042D03*
X002520Y002465D03*
X001930Y002465D03*
X001932Y003042D03*
X001751Y003616D03*
X001181Y003824D03*
X000591Y003824D03*
X001520Y004596D03*
X002111Y004596D03*
X001187Y002454D03*
X000596Y002454D03*
X004014Y003416D03*
X004605Y003416D03*
X005229Y002654D03*
X005820Y002654D03*
D12*
X005636Y003114D03*
X005243Y003114D03*
X005660Y003603D03*
X005666Y004001D03*
X006060Y004001D03*
X006054Y003603D03*
X004778Y003898D03*
X004385Y003898D03*
X004385Y004317D03*
X004778Y004317D03*
X004746Y005449D03*
X005112Y005451D03*
X005506Y005451D03*
X005689Y006309D03*
X005690Y006654D03*
X006083Y006654D03*
X006082Y006309D03*
X004353Y005449D03*
X002313Y004107D03*
X001919Y004107D03*
X001171Y004311D03*
X000777Y004311D03*
X000779Y003339D03*
X000783Y002938D03*
X001177Y002938D03*
X001173Y003339D03*
X001215Y001920D03*
X001609Y001920D03*
X001970Y001923D03*
X002364Y001923D03*
D13*
X005808Y001806D03*
X005808Y000664D03*
D14*
X004583Y000684D03*
X004583Y001077D03*
X001559Y002649D03*
X001559Y003043D03*
X005099Y004686D03*
X005099Y005080D03*
D15*
X002263Y001479D03*
X002263Y001105D03*
X002263Y000731D03*
X001239Y000731D03*
X001239Y001479D03*
D16*
X000660Y000730D03*
X000660Y001555D03*
D17*
X002831Y002460D03*
X003081Y002460D03*
X003331Y002460D03*
X003581Y002460D03*
X003831Y002460D03*
X004081Y002460D03*
X004166Y006462D03*
X003916Y006462D03*
X003666Y006462D03*
X003416Y006462D03*
X003166Y006462D03*
X002916Y006462D03*
X002666Y006462D03*
X002416Y006462D03*
X002166Y006462D03*
X001916Y006462D03*
X001666Y006462D03*
X001416Y006462D03*
X001166Y006462D03*
X004416Y006462D03*
X004666Y006462D03*
X004916Y006462D03*
X005166Y006462D03*
X005416Y006462D03*
D18*
X005416Y006012D03*
X005166Y006012D03*
X004916Y006012D03*
X004666Y006012D03*
X004416Y006012D03*
X004166Y006012D03*
X003916Y006012D03*
X003666Y006012D03*
X003416Y006012D03*
X003166Y006012D03*
X002916Y006012D03*
X002666Y006012D03*
X002416Y006012D03*
X002166Y006012D03*
X001916Y006012D03*
X001666Y006012D03*
X001416Y006012D03*
X001166Y006012D03*
X002831Y002910D03*
X003081Y002910D03*
X003331Y002910D03*
X003581Y002910D03*
X003831Y002910D03*
X004081Y002910D03*
D19*
X003404Y004158D03*
X003034Y004158D03*
X002664Y004158D03*
X002664Y005178D03*
X003404Y005178D03*
D20*
X003278Y004759D03*
X002958Y004799D03*
X002368Y004639D03*
X002678Y004019D03*
X002548Y003379D03*
X002808Y003249D03*
X003088Y003249D03*
X003398Y003259D03*
X003708Y003299D03*
X003698Y003649D03*
X004268Y003089D03*
X004268Y002879D03*
X004298Y002599D03*
X004298Y002379D03*
X003998Y001979D03*
X004608Y001659D03*
X004992Y001559D03*
X005333Y001568D03*
X004937Y002107D03*
X004898Y002639D03*
X004913Y002957D03*
X004953Y003248D03*
X004945Y003530D03*
X004705Y003687D03*
X004445Y003417D03*
X004388Y004109D03*
X004711Y004539D03*
X004418Y004619D03*
X005015Y004362D03*
X005940Y004294D03*
X005955Y004740D03*
X006058Y003799D03*
X005984Y003052D03*
X006118Y002449D03*
X005993Y002168D03*
X004848Y000609D03*
X003168Y001579D03*
X002598Y001929D03*
X002138Y002459D03*
X001788Y001919D03*
X001558Y002429D03*
X002147Y003041D03*
X001967Y003611D03*
X001487Y003611D03*
X001489Y003342D03*
X000551Y002938D03*
X000505Y003340D03*
X000525Y004314D03*
X001208Y005699D03*
X001288Y006789D03*
X001168Y007789D03*
X000888Y007789D03*
X001468Y007789D03*
X001768Y007789D03*
X002128Y007749D03*
X002428Y007749D03*
X002718Y007749D03*
X002998Y007749D03*
X003278Y007749D03*
X003628Y007749D03*
X003928Y007749D03*
X004258Y007749D03*
X004598Y007629D03*
X004888Y007629D03*
X005168Y007629D03*
X005458Y007629D03*
X005758Y007639D03*
X006075Y006880D03*
X006075Y006540D03*
X005948Y005779D03*
X005068Y006789D03*
X004943Y005429D03*
X003808Y006789D03*
X002548Y006789D03*
X003648Y004809D03*
X001745Y004584D03*
X000548Y002019D03*
X000658Y001219D03*
X001358Y001079D03*
D21*
X001298Y001019D01*
X000998Y001019D01*
X000709Y000730D01*
X000660Y000730D01*
X000660Y000731D01*
X001239Y000731D01*
X000658Y001219D02*
X000658Y001553D01*
X000660Y001555D01*
X000647Y001920D02*
X000548Y002019D01*
X000647Y001920D02*
X001215Y001920D01*
X001464Y002169D01*
X001748Y002169D01*
X001930Y002350D01*
X001930Y002465D01*
X002132Y002465D01*
X002138Y002459D01*
X001930Y002465D02*
X001952Y002345D01*
X002318Y001979D01*
X002318Y001968D01*
X002364Y001923D01*
X002370Y001929D01*
X002598Y001929D01*
X003168Y001579D02*
X003158Y001105D01*
X002263Y001105D01*
X001970Y001923D02*
X001788Y001923D01*
X001788Y001919D01*
X001788Y001920D01*
X001609Y001920D01*
X001558Y002429D02*
X001534Y002454D01*
X001187Y002454D01*
X001177Y002463D01*
X001177Y002938D01*
X001177Y003335D01*
X001173Y003339D01*
X001181Y003347D01*
X001181Y003824D01*
X001181Y004311D01*
X001171Y004311D01*
X000777Y004311D02*
X000777Y003824D01*
X000591Y003824D01*
X000779Y003635D01*
X000779Y003339D01*
X000546Y003339D01*
X000505Y003340D01*
X000551Y002938D02*
X000596Y002892D01*
X000596Y002454D01*
X000551Y002938D02*
X000783Y002938D01*
X001489Y003342D02*
X001559Y003273D01*
X001559Y003043D01*
X001931Y003043D01*
X001932Y003042D01*
X001932Y003041D01*
X002147Y003041D01*
X001967Y003611D02*
X001751Y003611D01*
X001751Y003616D01*
X001493Y003616D01*
X001487Y003611D01*
X001560Y003683D01*
X001919Y004107D01*
X002053Y004639D02*
X002368Y004639D01*
X002673Y004627D02*
X002773Y004529D01*
X003929Y004529D01*
X003919Y004527D01*
X004385Y004317D02*
X004388Y004313D01*
X004388Y004109D01*
X004388Y003790D01*
X004385Y003794D01*
X004385Y003898D01*
X004388Y003790D02*
X004014Y003416D01*
X003919Y003936D02*
X003506Y003936D01*
X003404Y004158D01*
X002673Y004627D02*
X002664Y005178D01*
X001166Y006557D02*
X001288Y006789D01*
X001166Y006557D02*
X001166Y006462D01*
X000525Y004314D02*
X000525Y004311D01*
X000777Y004311D01*
X001559Y002649D02*
X001559Y002429D01*
X001558Y002429D01*
X004081Y002460D02*
X004160Y002460D01*
X004298Y002599D01*
X004298Y002379D02*
X004314Y002363D01*
X004618Y002363D01*
X004618Y002024D02*
X004854Y002024D01*
X004937Y002107D01*
X005248Y002129D02*
X004958Y002419D01*
X004958Y002579D01*
X004898Y002639D01*
X004909Y002954D02*
X004618Y002954D01*
X004909Y002954D02*
X004913Y002957D01*
X005017Y003184D02*
X004953Y003248D01*
X005017Y003184D02*
X005138Y003184D01*
X005208Y003114D01*
X005243Y003114D01*
X005229Y003101D01*
X005229Y002654D01*
X005304Y002654D01*
X005248Y002129D02*
X005808Y001806D01*
X005358Y001594D02*
X005358Y001369D01*
X005192Y001203D01*
X005169Y001203D01*
X005169Y001382D01*
X004992Y001559D01*
X005169Y001203D02*
X005043Y001077D01*
X004583Y001077D01*
X004583Y000684D02*
X004774Y000684D01*
X004848Y000609D01*
X004852Y000612D01*
X005169Y000612D01*
X004618Y001433D02*
X004618Y001649D01*
X004608Y001659D01*
X005333Y001568D02*
X005358Y001594D01*
X005820Y002654D02*
X005820Y003078D01*
X005783Y003114D01*
X005636Y003114D01*
X005820Y003078D02*
X005984Y003052D01*
X006054Y003603D02*
X006054Y003795D01*
X006058Y003799D01*
X006060Y003800D01*
X006060Y004001D01*
X005940Y004294D02*
X005941Y004295D01*
X005941Y004502D01*
X005940Y004294D02*
X005666Y004020D01*
X005666Y004001D01*
X005666Y003608D01*
X005660Y003603D01*
X005538Y003480D01*
X005236Y003480D01*
X004995Y003480D01*
X004945Y003530D01*
X004778Y003761D02*
X004705Y003687D01*
X004605Y003587D01*
X004605Y003416D01*
X004778Y003761D02*
X004778Y003898D01*
X004778Y004317D02*
X004711Y004384D01*
X004711Y004539D01*
X004723Y004551D01*
X004723Y004968D01*
X005012Y004739D01*
X005078Y004739D01*
X005138Y004679D01*
X005138Y004499D01*
X005015Y004375D01*
X005015Y004362D01*
X005099Y004446D01*
X005099Y004686D01*
X005155Y004502D02*
X005015Y004362D01*
X005155Y004502D02*
X005462Y004502D01*
X004723Y004968D02*
X004723Y005245D01*
X004746Y005449D01*
X005110Y005449D01*
X005112Y005451D01*
X005112Y005433D01*
X004943Y005429D01*
X004478Y005394D02*
X004478Y004739D01*
X004418Y004679D01*
X004418Y004619D01*
X004478Y005394D02*
X004353Y005449D01*
X005506Y005451D02*
X005718Y005419D01*
X005788Y005419D01*
D22*
X005968Y005120D01*
X005941Y005092D02*
X005462Y005092D01*
X005450Y005080D02*
X005099Y005080D01*
X005941Y004726D02*
X005941Y004502D01*
X005941Y004726D02*
X005955Y004740D01*
X004605Y003416D02*
X004446Y003416D01*
X004445Y003417D01*
X005304Y002654D02*
X005678Y002279D01*
X005882Y002279D01*
X005993Y002168D01*
X003977Y004808D02*
X003648Y004809D01*
X003649Y005178D01*
X003404Y005178D01*
X003977Y004808D02*
X004133Y004968D01*
X002769Y003599D02*
X002578Y003599D01*
X002578Y003379D01*
X002548Y003379D02*
X002341Y003586D01*
X002522Y003353D02*
X002522Y003042D01*
X001745Y004584D02*
X001732Y004596D01*
X001520Y004596D01*
D23*
X001312Y004449D02*
X001312Y004381D01*
X001365Y004329D01*
X001675Y004329D01*
X001728Y004381D01*
X001728Y004384D01*
X001827Y004384D01*
X001945Y004501D01*
X001945Y004667D01*
X001832Y004779D01*
X002016Y004779D01*
X002464Y005227D01*
X002464Y004891D01*
X002517Y004838D01*
X002520Y004838D01*
X002523Y004626D01*
X002523Y004564D01*
X002524Y004564D01*
X002524Y004563D01*
X002568Y004520D01*
X002590Y004498D01*
X002517Y004498D01*
X002464Y004445D01*
X002464Y003871D01*
X002517Y003818D01*
X002812Y003818D01*
X002849Y003856D01*
X002887Y003818D01*
X002909Y003818D01*
X003188Y003539D01*
X003202Y003525D01*
X003202Y003418D01*
X003171Y003449D01*
X003006Y003449D01*
X002948Y003392D01*
X002891Y003449D01*
X002726Y003449D01*
X002608Y003332D01*
X002608Y003166D01*
X002666Y003109D01*
X002666Y002673D01*
X002678Y002660D01*
X002666Y002647D01*
X002666Y002273D01*
X002718Y002220D01*
X002943Y002220D01*
X002956Y002233D01*
X002968Y002220D01*
X003193Y002220D01*
X003206Y002233D01*
X003218Y002220D01*
X003443Y002220D01*
X003456Y002233D01*
X003468Y002220D01*
X003693Y002220D01*
X003706Y002233D01*
X003718Y002220D01*
X003943Y002220D01*
X003996Y002273D01*
X003996Y002620D01*
X004193Y002620D01*
X004246Y002673D01*
X004246Y002679D01*
X004351Y002679D01*
X004418Y002745D01*
X004722Y002745D01*
X004698Y002722D01*
X004698Y002556D01*
X004808Y002446D01*
X004808Y002357D01*
X004858Y002307D01*
X004854Y002307D01*
X004779Y002232D01*
X004404Y002232D01*
X004351Y002179D01*
X004351Y001868D01*
X004404Y001816D01*
X004833Y001816D01*
X004885Y001868D01*
X004885Y001874D01*
X004916Y001874D01*
X004949Y001907D01*
X005020Y001907D01*
X005134Y002022D01*
X005156Y002009D01*
X005186Y001979D01*
X005208Y001979D01*
X005403Y001867D01*
X005403Y001768D01*
X005250Y001768D01*
X005158Y001676D01*
X005075Y001759D01*
X004909Y001759D01*
X004792Y001642D01*
X004792Y001476D01*
X004906Y001363D01*
X004902Y001358D01*
X004902Y001227D01*
X004776Y001227D01*
X004738Y001266D01*
X004427Y001266D01*
X004375Y001213D01*
X004375Y000942D01*
X004427Y000889D01*
X004738Y000889D01*
X004776Y000927D01*
X005105Y000927D01*
X005173Y000995D01*
X005383Y000995D01*
X005436Y001048D01*
X005436Y001234D01*
X005508Y001307D01*
X005508Y001461D01*
X005533Y001485D01*
X005533Y001539D01*
X006160Y001539D01*
X006204Y001583D01*
X006204Y000459D01*
X001008Y000459D01*
X001026Y000476D01*
X001026Y000532D01*
X001513Y000532D01*
X001566Y000585D01*
X001566Y000876D01*
X001513Y000929D01*
X001491Y000929D01*
X001558Y000996D01*
X001558Y001162D01*
X001441Y001279D01*
X001276Y001279D01*
X001166Y001169D01*
X000936Y001169D01*
X000848Y001081D01*
X000804Y001036D01*
X000398Y001036D01*
X000398Y001886D01*
X000466Y001819D01*
X000536Y001819D01*
X000585Y001770D01*
X001027Y001770D01*
X001027Y001765D01*
X001079Y001712D01*
X001351Y001712D01*
X001404Y001765D01*
X001404Y001896D01*
X001526Y002019D01*
X001811Y002019D01*
X001938Y002147D01*
X002168Y001917D01*
X002168Y001906D01*
X002175Y001899D01*
X002175Y001767D01*
X002228Y001714D01*
X002499Y001714D01*
X002515Y001730D01*
X002516Y001729D01*
X002668Y001729D01*
X002588Y001649D01*
X002565Y001649D01*
X002536Y001677D01*
X001989Y001677D01*
X001961Y001649D01*
X001708Y001649D01*
X001608Y001549D01*
X001608Y000660D01*
X001708Y000561D01*
X001961Y000561D01*
X001989Y000532D01*
X002536Y000532D01*
X002589Y000585D01*
X002589Y000876D01*
X002536Y000929D01*
X001989Y000929D01*
X001961Y000901D01*
X001948Y000901D01*
X001948Y001309D01*
X001961Y001309D01*
X001989Y001280D01*
X002536Y001280D01*
X002565Y001309D01*
X002729Y001309D01*
X003229Y001809D01*
X003886Y001809D01*
X003916Y001779D01*
X004081Y001779D01*
X004198Y001896D01*
X004198Y002062D01*
X004081Y002179D01*
X003916Y002179D01*
X003886Y002149D01*
X003088Y002149D01*
X002988Y002049D01*
X002798Y001859D01*
X002798Y002012D01*
X002681Y002129D01*
X002516Y002129D01*
X002508Y002122D01*
X002499Y002131D01*
X002379Y002131D01*
X002236Y002274D01*
X002338Y002376D01*
X002338Y002542D01*
X002221Y002659D01*
X002138Y002659D01*
X002138Y002680D01*
X002085Y002732D01*
X001774Y002732D01*
X001721Y002680D01*
X001721Y002354D01*
X001686Y002319D01*
X001402Y002319D01*
X001314Y002231D01*
X001211Y002128D01*
X001079Y002128D01*
X001027Y002075D01*
X001027Y002070D01*
X000748Y002070D01*
X000748Y002102D01*
X000664Y002186D01*
X000752Y002186D01*
X000805Y002239D01*
X000805Y002668D01*
X000752Y002721D01*
X000746Y002721D01*
X000746Y002730D01*
X000919Y002730D01*
X000972Y002782D01*
X000972Y003093D01*
X000924Y003141D01*
X000968Y003184D01*
X000968Y003495D01*
X000929Y003533D01*
X000929Y003697D01*
X000896Y003730D01*
X000927Y003762D01*
X000927Y004117D01*
X000965Y004156D01*
X000965Y004346D01*
X001069Y004449D01*
X001312Y004449D01*
X001312Y004397D02*
X001017Y004397D01*
X000965Y004338D02*
X001355Y004338D01*
X001685Y004338D02*
X002464Y004338D01*
X002464Y004280D02*
X002091Y004280D01*
X002108Y004263D02*
X002055Y004316D01*
X001783Y004316D01*
X001731Y004263D01*
X001731Y004117D01*
X001471Y003811D01*
X001405Y003811D01*
X001287Y003694D01*
X001287Y003528D01*
X001340Y003475D01*
X001289Y003425D01*
X001289Y003259D01*
X001360Y003188D01*
X001350Y003179D01*
X001350Y002907D01*
X001403Y002855D01*
X001714Y002855D01*
X001724Y002864D01*
X001724Y002828D01*
X001776Y002775D01*
X002087Y002775D01*
X002140Y002828D01*
X002140Y002841D01*
X002230Y002841D01*
X002347Y002958D01*
X002347Y003124D01*
X002230Y003241D01*
X002140Y003241D01*
X002140Y003257D01*
X002087Y003309D01*
X001776Y003309D01*
X001724Y003257D01*
X001724Y003222D01*
X001714Y003231D01*
X001709Y003231D01*
X001709Y003335D01*
X001695Y003349D01*
X001906Y003349D01*
X001959Y003401D01*
X001959Y003411D01*
X002050Y003411D01*
X002167Y003528D01*
X002167Y003694D01*
X002050Y003811D01*
X001959Y003811D01*
X001959Y003830D01*
X001917Y003872D01*
X001939Y003899D01*
X002055Y003899D01*
X002108Y003952D01*
X002108Y004263D01*
X002108Y004221D02*
X002464Y004221D01*
X002464Y004163D02*
X002108Y004163D01*
X002108Y004104D02*
X002464Y004104D01*
X002464Y004046D02*
X002108Y004046D01*
X002108Y003987D02*
X002464Y003987D01*
X002464Y003929D02*
X002084Y003929D01*
X001959Y003812D02*
X002915Y003812D01*
X002973Y003753D02*
X002108Y003753D01*
X002166Y003695D02*
X003032Y003695D01*
X003090Y003636D02*
X002167Y003636D01*
X002167Y003578D02*
X003149Y003578D01*
X003202Y003519D02*
X002159Y003519D01*
X002100Y003461D02*
X003202Y003461D01*
X002959Y003402D02*
X002938Y003402D01*
X002820Y003610D02*
X002769Y003599D01*
X002679Y003402D02*
X001959Y003402D01*
X002111Y003285D02*
X002608Y003285D01*
X002608Y003227D02*
X002244Y003227D01*
X002303Y003168D02*
X002608Y003168D01*
X002665Y003110D02*
X002347Y003110D01*
X002347Y003051D02*
X002666Y003051D01*
X002666Y002993D02*
X002347Y002993D01*
X002324Y002934D02*
X002666Y002934D01*
X002666Y002876D02*
X002265Y002876D01*
X002130Y002817D02*
X002666Y002817D01*
X002666Y002759D02*
X000948Y002759D01*
X000972Y002817D02*
X001734Y002817D01*
X001742Y002700D02*
X000772Y002700D01*
X000805Y002642D02*
X001721Y002642D01*
X001721Y002583D02*
X000805Y002583D01*
X000805Y002525D02*
X001721Y002525D01*
X001721Y002466D02*
X000805Y002466D01*
X000805Y002408D02*
X001721Y002408D01*
X001717Y002349D02*
X000805Y002349D01*
X000805Y002291D02*
X001374Y002291D01*
X001315Y002232D02*
X000798Y002232D01*
X000735Y002115D02*
X001067Y002115D01*
X001257Y002174D02*
X000676Y002174D01*
X000403Y001881D02*
X000398Y001881D01*
X000398Y001823D02*
X000462Y001823D01*
X000398Y001764D02*
X001027Y001764D01*
X000966Y001677D02*
X000913Y001624D01*
X000913Y001333D01*
X000966Y001280D01*
X001513Y001280D01*
X001566Y001333D01*
X001566Y001624D01*
X001513Y001677D01*
X000966Y001677D01*
X000936Y001647D02*
X000398Y001647D01*
X000398Y001589D02*
X000913Y001589D01*
X000913Y001530D02*
X000398Y001530D01*
X000398Y001472D02*
X000913Y001472D01*
X000913Y001413D02*
X000398Y001413D01*
X000398Y001355D02*
X000913Y001355D01*
X000950Y001296D02*
X000398Y001296D01*
X000398Y001238D02*
X001235Y001238D01*
X001176Y001179D02*
X000398Y001179D01*
X000398Y001121D02*
X000888Y001121D01*
X000848Y001081D02*
X000848Y001081D01*
X000830Y001062D02*
X000398Y001062D01*
X000398Y001706D02*
X002645Y001706D01*
X002798Y001881D02*
X002820Y001881D01*
X002798Y001940D02*
X002879Y001940D01*
X002937Y001998D02*
X002798Y001998D01*
X002753Y002057D02*
X002996Y002057D01*
X003054Y002115D02*
X002695Y002115D01*
X002706Y002232D02*
X002277Y002232D01*
X002253Y002291D02*
X002666Y002291D01*
X002666Y002349D02*
X002312Y002349D01*
X002338Y002408D02*
X002666Y002408D01*
X002666Y002466D02*
X002338Y002466D01*
X002338Y002525D02*
X002666Y002525D01*
X002666Y002583D02*
X002297Y002583D01*
X002238Y002642D02*
X002666Y002642D01*
X002666Y002700D02*
X002117Y002700D01*
X002520Y002465D02*
X002522Y002467D01*
X002522Y003042D01*
X002522Y003353D02*
X002548Y003379D01*
X002578Y003379D01*
X002621Y003344D02*
X001700Y003344D01*
X001709Y003285D02*
X001752Y003285D01*
X001724Y003227D02*
X001718Y003227D01*
X001382Y002876D02*
X000972Y002876D01*
X000972Y002934D02*
X001350Y002934D01*
X001350Y002993D02*
X000972Y002993D01*
X000972Y003051D02*
X001350Y003051D01*
X001350Y003110D02*
X000955Y003110D01*
X000952Y003168D02*
X001350Y003168D01*
X001322Y003227D02*
X000968Y003227D01*
X000968Y003285D02*
X001289Y003285D01*
X001289Y003344D02*
X000968Y003344D01*
X000968Y003402D02*
X001289Y003402D01*
X001325Y003461D02*
X000968Y003461D01*
X000943Y003519D02*
X001296Y003519D01*
X001287Y003578D02*
X000929Y003578D01*
X000929Y003636D02*
X001287Y003636D01*
X001289Y003695D02*
X000929Y003695D01*
X000919Y003753D02*
X001347Y003753D01*
X001472Y003812D02*
X000927Y003812D01*
X000927Y003870D02*
X001522Y003870D01*
X001571Y003929D02*
X000927Y003929D01*
X000927Y003987D02*
X001621Y003987D01*
X001670Y004046D02*
X000927Y004046D01*
X000927Y004104D02*
X001720Y004104D01*
X001731Y004163D02*
X000965Y004163D01*
X000965Y004221D02*
X001731Y004221D01*
X001748Y004280D02*
X000965Y004280D01*
X000858Y004899D02*
X000388Y005358D01*
X000398Y007489D01*
X000498Y007589D01*
X001368Y007589D01*
X001468Y007689D01*
X001468Y007789D01*
X001768Y007569D02*
X001668Y007469D01*
X000618Y007469D01*
X000518Y007369D01*
X000518Y005409D01*
X000908Y005019D01*
X000958Y005139D02*
X000968Y005139D01*
X001701Y005139D01*
X001706Y005139D01*
X002166Y005599D01*
X002166Y006012D01*
X002378Y005939D02*
X002378Y005581D01*
X001816Y005019D01*
X001966Y004899D02*
X002458Y005391D01*
X002458Y005469D01*
X002658Y005669D01*
X002658Y005869D01*
X002666Y006012D01*
X002416Y006012D02*
X002378Y005939D01*
X001916Y006012D02*
X001916Y005599D01*
X001576Y005259D01*
X001008Y005259D01*
X000758Y005509D01*
X000758Y007129D01*
X000858Y007229D01*
X002328Y007229D01*
X002428Y007329D01*
X002428Y007749D01*
X002128Y007749D02*
X002128Y007449D01*
X002028Y007349D01*
X000738Y007349D01*
X000638Y007249D01*
X000638Y005459D01*
X000958Y005139D01*
X000858Y004899D02*
X001966Y004899D01*
X002043Y004806D02*
X002520Y004806D01*
X002521Y004748D02*
X001863Y004748D01*
X001922Y004689D02*
X002522Y004689D01*
X002523Y004631D02*
X001945Y004631D01*
X001945Y004572D02*
X002523Y004572D01*
X002574Y004514D02*
X001945Y004514D01*
X001899Y004455D02*
X002475Y004455D01*
X002464Y004397D02*
X001841Y004397D01*
X002102Y004865D02*
X002490Y004865D01*
X002464Y004923D02*
X002160Y004923D01*
X002219Y004982D02*
X002464Y004982D01*
X002464Y005040D02*
X002277Y005040D01*
X002336Y005099D02*
X002464Y005099D01*
X002464Y005157D02*
X002394Y005157D01*
X002453Y005216D02*
X002464Y005216D01*
X003296Y005216D02*
X004328Y005216D01*
X004328Y005240D02*
X004328Y004812D01*
X004218Y004702D01*
X004218Y004536D01*
X004336Y004419D01*
X004501Y004419D01*
X004525Y004443D01*
X004561Y004406D01*
X004561Y004322D01*
X004590Y004293D01*
X004590Y004162D01*
X004643Y004109D01*
X004914Y004109D01*
X004967Y004162D01*
X005098Y004162D01*
X005215Y004279D01*
X005215Y004327D01*
X005248Y004294D01*
X005677Y004294D01*
X005702Y004319D01*
X005727Y004294D01*
X005728Y004294D01*
X005642Y004209D01*
X005530Y004209D01*
X005478Y004156D01*
X005478Y003845D01*
X005516Y003807D01*
X005516Y003802D01*
X005472Y003758D01*
X005472Y003667D01*
X005451Y003688D01*
X005069Y003688D01*
X005028Y003730D01*
X004954Y003730D01*
X004967Y003743D01*
X004967Y004054D01*
X004914Y004107D01*
X004643Y004107D01*
X004590Y004054D01*
X004590Y003855D01*
X004505Y003770D01*
X004505Y003700D01*
X004489Y003683D01*
X004449Y003683D01*
X004397Y003631D01*
X004397Y003617D01*
X004362Y003617D01*
X004245Y003500D01*
X004245Y003335D01*
X004291Y003289D01*
X004186Y003289D01*
X004097Y003200D01*
X003968Y003200D01*
X003956Y003187D01*
X003943Y003200D01*
X003892Y003200D01*
X003908Y003216D01*
X003908Y003382D01*
X003811Y003479D01*
X003898Y003566D01*
X003898Y003728D01*
X004134Y003728D01*
X004186Y003781D01*
X004186Y004092D01*
X004134Y004144D01*
X003705Y004144D01*
X003652Y004092D01*
X003652Y004086D01*
X003604Y004086D01*
X003604Y004379D01*
X003652Y004379D01*
X003652Y004372D01*
X003705Y004319D01*
X004134Y004319D01*
X004186Y004372D01*
X004186Y004682D01*
X004134Y004735D01*
X003705Y004735D01*
X003652Y004682D01*
X003652Y004679D01*
X003478Y004679D01*
X003478Y004842D01*
X003361Y004959D01*
X003296Y004959D01*
X003296Y005730D01*
X003304Y005722D01*
X003528Y005722D01*
X003541Y005735D01*
X003554Y005722D01*
X003778Y005722D01*
X003791Y005735D01*
X003804Y005722D01*
X004028Y005722D01*
X004041Y005735D01*
X004054Y005722D01*
X004278Y005722D01*
X004291Y005735D01*
X004304Y005722D01*
X004528Y005722D01*
X004541Y005735D01*
X004554Y005722D01*
X004778Y005722D01*
X004791Y005735D01*
X004804Y005722D01*
X005028Y005722D01*
X005041Y005735D01*
X005054Y005722D01*
X005278Y005722D01*
X005291Y005735D01*
X005304Y005722D01*
X005528Y005722D01*
X005581Y005775D01*
X005581Y006101D01*
X005615Y006101D01*
X005618Y006098D01*
X005676Y006040D01*
X005676Y005858D01*
X005729Y005805D01*
X005748Y005805D01*
X005748Y005696D01*
X005866Y005579D01*
X006031Y005579D01*
X006148Y005696D01*
X006148Y005805D01*
X006158Y005805D01*
X006204Y005851D01*
X006204Y004662D01*
X006156Y004710D01*
X006155Y004710D01*
X006155Y004823D01*
X006038Y004940D01*
X005872Y004940D01*
X005755Y004823D01*
X005755Y004710D01*
X005727Y004710D01*
X005702Y004685D01*
X005677Y004710D01*
X005307Y004710D01*
X005307Y004822D01*
X005255Y004875D01*
X005155Y004875D01*
X005141Y004889D01*
X005064Y004889D01*
X004931Y004994D01*
X004931Y005182D01*
X004885Y005229D01*
X005026Y005229D01*
X005040Y005243D01*
X005248Y005243D01*
X005301Y005295D01*
X005301Y005606D01*
X005248Y005659D01*
X004976Y005659D01*
X004946Y005629D01*
X004910Y005629D01*
X004882Y005657D01*
X004611Y005657D01*
X004558Y005604D01*
X004558Y005527D01*
X004541Y005544D01*
X004541Y005604D01*
X004488Y005657D01*
X004217Y005657D01*
X004164Y005604D01*
X004164Y005293D01*
X004217Y005240D01*
X004328Y005240D01*
X004328Y005157D02*
X003296Y005157D01*
X003296Y005099D02*
X004328Y005099D01*
X004328Y005040D02*
X003296Y005040D01*
X003296Y004982D02*
X004328Y004982D01*
X004328Y004923D02*
X003397Y004923D01*
X003455Y004865D02*
X004328Y004865D01*
X004323Y004806D02*
X003478Y004806D01*
X003478Y004748D02*
X004265Y004748D01*
X004218Y004689D02*
X004179Y004689D01*
X004186Y004631D02*
X004218Y004631D01*
X004218Y004572D02*
X004186Y004572D01*
X004186Y004514D02*
X004241Y004514D01*
X004186Y004455D02*
X004299Y004455D01*
X004186Y004397D02*
X004561Y004397D01*
X004561Y004338D02*
X004153Y004338D01*
X004174Y004104D02*
X004641Y004104D01*
X004590Y004046D02*
X004186Y004046D01*
X004186Y003987D02*
X004590Y003987D01*
X004590Y003929D02*
X004186Y003929D01*
X004186Y003870D02*
X004590Y003870D01*
X004547Y003812D02*
X004186Y003812D01*
X004159Y003753D02*
X004505Y003753D01*
X004500Y003695D02*
X003898Y003695D01*
X003898Y003636D02*
X004402Y003636D01*
X004323Y003578D02*
X003898Y003578D01*
X003852Y003519D02*
X004264Y003519D01*
X004245Y003461D02*
X003829Y003461D01*
X003888Y003402D02*
X004245Y003402D01*
X004245Y003344D02*
X003908Y003344D01*
X003908Y003285D02*
X004182Y003285D01*
X004124Y003227D02*
X003908Y003227D01*
X003996Y002583D02*
X004698Y002583D01*
X004698Y002642D02*
X004215Y002642D01*
X004373Y002700D02*
X004698Y002700D01*
X004730Y002525D02*
X003996Y002525D01*
X003996Y002466D02*
X004788Y002466D01*
X004808Y002408D02*
X003996Y002408D01*
X003996Y002349D02*
X004816Y002349D01*
X004838Y002291D02*
X003996Y002291D01*
X003955Y002232D02*
X004779Y002232D01*
X004923Y001881D02*
X005377Y001881D01*
X005403Y001823D02*
X004840Y001823D01*
X004856Y001706D02*
X003126Y001706D01*
X003184Y001764D02*
X005246Y001764D01*
X005188Y001706D02*
X005128Y001706D01*
X005053Y001940D02*
X005276Y001940D01*
X005167Y001998D02*
X005111Y001998D01*
X004798Y001647D02*
X003067Y001647D01*
X003009Y001589D02*
X004792Y001589D01*
X004792Y001530D02*
X002950Y001530D01*
X002892Y001472D02*
X004796Y001472D01*
X004855Y001413D02*
X002833Y001413D01*
X002775Y001355D02*
X004902Y001355D01*
X004902Y001296D02*
X002552Y001296D01*
X002579Y000887D02*
X006204Y000887D01*
X006204Y000945D02*
X005123Y000945D01*
X004902Y001238D02*
X004766Y001238D01*
X004399Y001238D02*
X001948Y001238D01*
X001948Y001296D02*
X001974Y001296D01*
X001948Y001179D02*
X004375Y001179D01*
X004375Y001121D02*
X001948Y001121D01*
X001948Y001062D02*
X004375Y001062D01*
X004375Y001004D02*
X001948Y001004D01*
X001948Y000945D02*
X004375Y000945D01*
X004396Y001823D02*
X004125Y001823D01*
X004184Y001881D02*
X004351Y001881D01*
X004351Y001940D02*
X004198Y001940D01*
X004198Y001998D02*
X004351Y001998D01*
X004351Y002057D02*
X004198Y002057D01*
X004145Y002115D02*
X004351Y002115D01*
X004351Y002174D02*
X004086Y002174D01*
X003911Y002174D02*
X002336Y002174D01*
X002145Y001940D02*
X001447Y001940D01*
X001404Y001881D02*
X002175Y001881D01*
X002175Y001823D02*
X001404Y001823D01*
X001403Y001764D02*
X002178Y001764D01*
X002087Y001998D02*
X001506Y001998D01*
X001849Y002057D02*
X002028Y002057D01*
X001970Y002115D02*
X001907Y002115D01*
X001707Y001647D02*
X001542Y001647D01*
X001566Y001589D02*
X001648Y001589D01*
X001608Y001530D02*
X001566Y001530D01*
X001566Y001472D02*
X001608Y001472D01*
X001608Y001413D02*
X001566Y001413D01*
X001566Y001355D02*
X001608Y001355D01*
X001608Y001296D02*
X001529Y001296D01*
X001482Y001238D02*
X001608Y001238D01*
X001608Y001179D02*
X001541Y001179D01*
X001558Y001121D02*
X001608Y001121D01*
X001608Y001062D02*
X001558Y001062D01*
X001558Y001004D02*
X001608Y001004D01*
X001608Y000945D02*
X001508Y000945D01*
X001555Y000887D02*
X001608Y000887D01*
X001608Y000828D02*
X001566Y000828D01*
X001566Y000770D02*
X001608Y000770D01*
X001608Y000711D02*
X001566Y000711D01*
X001566Y000653D02*
X001616Y000653D01*
X001566Y000594D02*
X001674Y000594D01*
X001516Y000536D02*
X001986Y000536D01*
X002540Y000536D02*
X006204Y000536D01*
X006204Y000594D02*
X002589Y000594D01*
X002589Y000653D02*
X006204Y000653D01*
X006204Y000711D02*
X002589Y000711D01*
X002589Y000770D02*
X006204Y000770D01*
X006204Y000828D02*
X002589Y000828D01*
X002955Y002232D02*
X002956Y002232D01*
X003205Y002232D02*
X003206Y002232D01*
X003455Y002232D02*
X003456Y002232D01*
X003705Y002232D02*
X003706Y002232D01*
X004967Y003753D02*
X005472Y003753D01*
X005472Y003695D02*
X005063Y003695D01*
X004967Y003812D02*
X005511Y003812D01*
X005478Y003870D02*
X004967Y003870D01*
X004967Y003929D02*
X005478Y003929D01*
X005478Y003987D02*
X004967Y003987D01*
X004967Y004046D02*
X005478Y004046D01*
X005478Y004104D02*
X004916Y004104D01*
X004967Y004162D02*
X004967Y004162D01*
X005099Y004163D02*
X005484Y004163D01*
X005655Y004221D02*
X005157Y004221D01*
X005215Y004280D02*
X005714Y004280D01*
X005904Y004046D02*
X006204Y004046D01*
X006204Y004104D02*
X006033Y004104D01*
X006022Y004094D02*
X006140Y004211D01*
X006140Y004294D01*
X006156Y004294D01*
X006204Y004342D01*
X006204Y002029D01*
X006170Y002063D01*
X006193Y002085D01*
X006193Y002251D01*
X006076Y002368D01*
X005991Y002368D01*
X005972Y002387D01*
X005975Y002387D01*
X006028Y002439D01*
X006028Y002852D01*
X006067Y002852D01*
X006184Y002969D01*
X006184Y003135D01*
X006067Y003252D01*
X005901Y003252D01*
X005880Y003230D01*
X005845Y003264D01*
X005825Y003264D01*
X005825Y003270D01*
X005772Y003323D01*
X005501Y003323D01*
X005504Y003325D01*
X005504Y003330D01*
X005600Y003330D01*
X005664Y003394D01*
X005796Y003394D01*
X005849Y003447D01*
X005849Y003758D01*
X005816Y003791D01*
X005816Y003807D01*
X005854Y003845D01*
X005854Y003996D01*
X005952Y004094D01*
X006022Y004094D01*
X006092Y004163D02*
X006204Y004163D01*
X006204Y004221D02*
X006140Y004221D01*
X006140Y004280D02*
X006204Y004280D01*
X006200Y004338D02*
X006204Y004338D01*
X006204Y003987D02*
X005854Y003987D01*
X005854Y003929D02*
X006204Y003929D01*
X006204Y003870D02*
X005854Y003870D01*
X005821Y003812D02*
X006204Y003812D01*
X006204Y003753D02*
X005849Y003753D01*
X005849Y003695D02*
X006204Y003695D01*
X006204Y003636D02*
X005849Y003636D01*
X005849Y003578D02*
X006204Y003578D01*
X006204Y003519D02*
X005849Y003519D01*
X005849Y003461D02*
X006204Y003461D01*
X006204Y003402D02*
X005804Y003402D01*
X005809Y003285D02*
X006204Y003285D01*
X006204Y003227D02*
X006092Y003227D01*
X006151Y003168D02*
X006204Y003168D01*
X006204Y003110D02*
X006184Y003110D01*
X006184Y003051D02*
X006204Y003051D01*
X006204Y002993D02*
X006184Y002993D01*
X006204Y002934D02*
X006149Y002934D01*
X006204Y002876D02*
X006091Y002876D01*
X006028Y002817D02*
X006204Y002817D01*
X006204Y002759D02*
X006028Y002759D01*
X006028Y002700D02*
X006204Y002700D01*
X006204Y002642D02*
X006028Y002642D01*
X006028Y002583D02*
X006204Y002583D01*
X006204Y002525D02*
X006028Y002525D01*
X006028Y002466D02*
X006204Y002466D01*
X006204Y002408D02*
X005997Y002408D01*
X006094Y002349D02*
X006204Y002349D01*
X006204Y002291D02*
X006153Y002291D01*
X006193Y002232D02*
X006204Y002232D01*
X006204Y002174D02*
X006193Y002174D01*
X006193Y002115D02*
X006204Y002115D01*
X006204Y002057D02*
X006176Y002057D01*
X006204Y001530D02*
X005533Y001530D01*
X005520Y001472D02*
X006204Y001472D01*
X006204Y001413D02*
X005508Y001413D01*
X005508Y001355D02*
X006204Y001355D01*
X006204Y001296D02*
X005498Y001296D01*
X005440Y001238D02*
X006204Y001238D01*
X006204Y001179D02*
X005436Y001179D01*
X005436Y001121D02*
X006204Y001121D01*
X006204Y001062D02*
X005436Y001062D01*
X005392Y001004D02*
X006204Y001004D01*
X006204Y000477D02*
X001026Y000477D01*
X002341Y003586D02*
X002341Y003616D01*
X002464Y003870D02*
X001919Y003870D01*
X001506Y005379D02*
X001058Y005379D01*
X000878Y005559D01*
X000878Y007009D01*
X000978Y007109D01*
X002618Y007109D01*
X002718Y007209D01*
X002718Y007749D01*
X002708Y007589D01*
X002678Y007559D01*
X002978Y007559D02*
X002998Y007749D01*
X002998Y007089D01*
X002898Y006989D01*
X001098Y006989D01*
X000998Y006889D01*
X000998Y005619D01*
X001118Y005499D01*
X001416Y005499D01*
X001416Y006012D01*
X001208Y005970D02*
X001208Y005699D01*
X001208Y005970D02*
X001166Y006012D01*
X001118Y006302D02*
X001118Y006839D01*
X001148Y006869D01*
X002948Y006869D01*
X003048Y006969D01*
X003118Y007039D01*
X003118Y007586D01*
X003138Y007606D01*
X003158Y007586D01*
X003158Y006969D01*
X003229Y006899D01*
X003425Y006702D01*
X003304Y006702D01*
X003291Y006690D01*
X003278Y006702D01*
X003054Y006702D01*
X003041Y006690D01*
X003028Y006702D01*
X002804Y006702D01*
X002791Y006690D01*
X002778Y006702D01*
X002554Y006702D01*
X002541Y006690D01*
X002528Y006702D01*
X002304Y006702D01*
X002291Y006690D01*
X002278Y006702D01*
X002054Y006702D01*
X002041Y006690D01*
X002028Y006702D01*
X001804Y006702D01*
X001791Y006690D01*
X001778Y006702D01*
X001554Y006702D01*
X001541Y006690D01*
X001528Y006702D01*
X001304Y006702D01*
X001251Y006650D01*
X001251Y006302D01*
X001118Y006302D01*
X001118Y006327D02*
X001251Y006327D01*
X001251Y006386D02*
X001118Y006386D01*
X001118Y006444D02*
X001251Y006444D01*
X001251Y006503D02*
X001118Y006503D01*
X001118Y006561D02*
X001251Y006561D01*
X001251Y006620D02*
X001118Y006620D01*
X001118Y006678D02*
X001280Y006678D01*
X001118Y006737D02*
X003391Y006737D01*
X003332Y006795D02*
X001118Y006795D01*
X001133Y006854D02*
X003274Y006854D01*
X003215Y006912D02*
X002992Y006912D01*
X003050Y006971D02*
X003158Y006971D01*
X003158Y007029D02*
X003109Y007029D01*
X003118Y007088D02*
X003158Y007088D01*
X003158Y007146D02*
X003118Y007146D01*
X003118Y007205D02*
X003158Y007205D01*
X003158Y007263D02*
X003118Y007263D01*
X003118Y007322D02*
X003158Y007322D01*
X003158Y007380D02*
X003118Y007380D01*
X003118Y007439D02*
X003158Y007439D01*
X003158Y007497D02*
X003118Y007497D01*
X003118Y007556D02*
X003158Y007556D01*
X003278Y007749D02*
X003278Y007019D01*
X003666Y006631D01*
X003666Y006462D01*
X003916Y006462D02*
X003916Y006577D01*
X004038Y006699D01*
X004038Y007159D01*
X003916Y007281D01*
X003638Y007559D01*
X003638Y007739D01*
X003628Y007749D01*
X003480Y007614D02*
X003427Y007614D01*
X003453Y007641D02*
X003398Y007586D01*
X003398Y007069D01*
X003765Y006702D01*
X003778Y006702D01*
X003791Y006690D01*
X003804Y006702D01*
X003872Y006702D01*
X003918Y006749D01*
X003918Y007109D01*
X003796Y007231D01*
X003518Y007509D01*
X003518Y007576D01*
X003453Y007641D01*
X003398Y007556D02*
X003518Y007556D01*
X003530Y007497D02*
X003398Y007497D01*
X003398Y007439D02*
X003589Y007439D01*
X003647Y007380D02*
X003398Y007380D01*
X003398Y007322D02*
X003706Y007322D01*
X003764Y007263D02*
X003398Y007263D01*
X003398Y007205D02*
X003823Y007205D01*
X003881Y007146D02*
X003398Y007146D01*
X003398Y007088D02*
X003918Y007088D01*
X003918Y007029D02*
X003438Y007029D01*
X003496Y006971D02*
X003918Y006971D01*
X003918Y006912D02*
X003555Y006912D01*
X003613Y006854D02*
X003918Y006854D01*
X003918Y006795D02*
X003672Y006795D01*
X003730Y006737D02*
X003907Y006737D01*
X004166Y006462D02*
X004166Y007391D01*
X003938Y007619D01*
X003938Y007679D01*
X003928Y007749D01*
X004238Y007739D02*
X004238Y007649D01*
X004416Y007471D01*
X004416Y006462D01*
X004666Y006462D02*
X004666Y007251D01*
X004598Y007319D01*
X004598Y007629D01*
X004743Y007767D02*
X004681Y007829D01*
X004516Y007829D01*
X004458Y007772D01*
X004458Y007832D01*
X004421Y007869D01*
X006204Y007869D01*
X006204Y007058D01*
X006194Y007068D01*
X006145Y007116D01*
X006143Y007116D01*
X006141Y007118D01*
X006073Y007116D01*
X006005Y007116D01*
X006003Y007114D01*
X006000Y007114D01*
X005953Y007064D01*
X005905Y007016D01*
X005905Y007013D01*
X005903Y007011D01*
X005904Y006991D01*
X005875Y006963D01*
X005875Y006797D01*
X005895Y006777D01*
X005895Y006643D01*
X005875Y006623D01*
X005875Y006466D01*
X005824Y006517D01*
X005581Y006517D01*
X005581Y006650D01*
X005578Y006652D01*
X005578Y007466D01*
X005658Y007546D01*
X005658Y007712D01*
X005541Y007829D01*
X005376Y007829D01*
X005313Y007767D01*
X005251Y007829D01*
X005086Y007829D01*
X005028Y007772D01*
X004971Y007829D01*
X004806Y007829D01*
X004743Y007767D01*
X004720Y007790D02*
X004767Y007790D01*
X004888Y007629D02*
X004888Y006959D01*
X004838Y006909D01*
X004838Y006539D01*
X004888Y006489D01*
X004888Y006370D01*
X004916Y006462D01*
X004958Y006702D02*
X004958Y006859D01*
X005008Y006909D01*
X005008Y007466D01*
X005028Y007486D01*
X005048Y007466D01*
X005048Y007039D01*
X005158Y006929D01*
X005158Y006739D01*
X005122Y006702D01*
X005054Y006702D01*
X005041Y006690D01*
X005028Y006702D01*
X004958Y006702D01*
X004958Y006737D02*
X005157Y006737D01*
X005158Y006795D02*
X004958Y006795D01*
X004958Y006854D02*
X005158Y006854D01*
X005158Y006912D02*
X005008Y006912D01*
X005008Y006971D02*
X005117Y006971D01*
X005058Y007029D02*
X005008Y007029D01*
X005008Y007088D02*
X005048Y007088D01*
X005048Y007146D02*
X005008Y007146D01*
X005008Y007205D02*
X005048Y007205D01*
X005048Y007263D02*
X005008Y007263D01*
X005008Y007322D02*
X005048Y007322D01*
X005048Y007380D02*
X005008Y007380D01*
X005008Y007439D02*
X005048Y007439D01*
X005168Y007629D02*
X005168Y007089D01*
X005278Y006979D01*
X005278Y006689D01*
X005168Y006579D01*
X005168Y006345D01*
X005166Y006462D01*
X005416Y006462D02*
X005458Y006345D01*
X005458Y007629D01*
X005610Y007497D02*
X006204Y007497D01*
X006204Y007439D02*
X005578Y007439D01*
X005578Y007380D02*
X006204Y007380D01*
X006204Y007322D02*
X005578Y007322D01*
X005578Y007263D02*
X006204Y007263D01*
X006204Y007205D02*
X005578Y007205D01*
X005578Y007146D02*
X006204Y007146D01*
X006204Y007088D02*
X006173Y007088D01*
X005975Y007088D02*
X005578Y007088D01*
X005578Y007029D02*
X005918Y007029D01*
X005883Y006971D02*
X005578Y006971D01*
X005578Y006912D02*
X005875Y006912D01*
X005875Y006854D02*
X005578Y006854D01*
X005578Y006795D02*
X005877Y006795D01*
X005895Y006737D02*
X005578Y006737D01*
X005578Y006678D02*
X005895Y006678D01*
X005875Y006620D02*
X005581Y006620D01*
X005581Y006561D02*
X005875Y006561D01*
X005875Y006503D02*
X005838Y006503D01*
X005623Y006093D02*
X005581Y006093D01*
X005581Y006035D02*
X005676Y006035D01*
X005676Y005976D02*
X005581Y005976D01*
X005581Y005918D02*
X005676Y005918D01*
X005676Y005859D02*
X005581Y005859D01*
X005581Y005801D02*
X005748Y005801D01*
X005748Y005742D02*
X005548Y005742D01*
X005761Y005684D02*
X003296Y005684D01*
X003296Y005625D02*
X004186Y005625D01*
X004164Y005567D02*
X003296Y005567D01*
X003296Y005508D02*
X004164Y005508D01*
X004164Y005450D02*
X003296Y005450D01*
X003296Y005391D02*
X004164Y005391D01*
X004164Y005333D02*
X003296Y005333D01*
X003296Y005274D02*
X004183Y005274D01*
X004520Y005625D02*
X004580Y005625D01*
X004558Y005567D02*
X004541Y005567D01*
X004898Y005216D02*
X006204Y005216D01*
X006204Y005274D02*
X005279Y005274D01*
X005301Y005333D02*
X006204Y005333D01*
X006204Y005391D02*
X005301Y005391D01*
X005301Y005450D02*
X006204Y005450D01*
X006204Y005508D02*
X005301Y005508D01*
X005301Y005567D02*
X006204Y005567D01*
X006204Y005625D02*
X006078Y005625D01*
X006136Y005684D02*
X006204Y005684D01*
X006204Y005742D02*
X006148Y005742D01*
X006148Y005801D02*
X006204Y005801D01*
X005819Y005625D02*
X005281Y005625D01*
X005462Y005092D02*
X005450Y005080D01*
X005264Y004865D02*
X005797Y004865D01*
X005755Y004806D02*
X005307Y004806D01*
X005307Y004748D02*
X005755Y004748D01*
X005706Y004689D02*
X005697Y004689D01*
X005856Y004923D02*
X005021Y004923D01*
X004947Y004982D02*
X006204Y004982D01*
X006204Y005040D02*
X004931Y005040D01*
X004931Y005099D02*
X006204Y005099D01*
X006204Y005157D02*
X004931Y005157D01*
X004590Y004280D02*
X003604Y004280D01*
X003604Y004338D02*
X003685Y004338D01*
X003604Y004221D02*
X004590Y004221D01*
X004590Y004163D02*
X003604Y004163D01*
X003604Y004104D02*
X003665Y004104D01*
X003659Y004689D02*
X003478Y004689D01*
X005165Y004109D02*
X005236Y004071D01*
X005614Y003344D02*
X006204Y003344D01*
X006176Y004689D02*
X006204Y004689D01*
X006204Y004748D02*
X006155Y004748D01*
X006155Y004806D02*
X006204Y004806D01*
X006204Y004865D02*
X006113Y004865D01*
X006054Y004923D02*
X006204Y004923D01*
X005968Y005120D02*
X005941Y005093D01*
X005941Y005092D01*
X006204Y007556D02*
X005658Y007556D01*
X005658Y007614D02*
X006204Y007614D01*
X006204Y007673D02*
X005658Y007673D01*
X005639Y007731D02*
X006204Y007731D01*
X006204Y007790D02*
X005580Y007790D01*
X005337Y007790D02*
X005290Y007790D01*
X005047Y007790D02*
X005010Y007790D01*
X004477Y007790D02*
X004458Y007790D01*
X004442Y007848D02*
X006204Y007848D01*
X004258Y007749D02*
X004238Y007739D01*
X001768Y007789D02*
X001768Y007569D01*
X001768Y007609D02*
X001768Y007789D01*
X001666Y006012D02*
X001666Y005539D01*
X001506Y005379D01*
D24*
X002916Y004861D02*
X002958Y004799D01*
X002916Y004861D02*
X002916Y006012D01*
X003166Y006012D02*
X003166Y004891D01*
X003298Y004759D01*
X003278Y004759D01*
X003398Y003259D02*
X003328Y002912D01*
X003331Y002910D01*
X003581Y002910D02*
X003581Y003057D01*
X003708Y003299D01*
X003088Y003249D02*
X003058Y002932D01*
X003081Y002910D01*
X002831Y002910D02*
X002831Y003187D01*
X002808Y003249D01*
D25*
X003358Y003610D02*
X003034Y003933D01*
X003034Y004158D01*
X002664Y004158D02*
X002664Y004033D01*
X002678Y004019D01*
X003358Y003610D02*
X003410Y003610D01*
X003628Y003610D01*
X003698Y003649D01*
X004081Y002910D02*
X004081Y002879D01*
X004268Y002879D01*
X003998Y001979D02*
X003998Y001959D01*
X003998Y001979D02*
X003158Y001979D01*
X002658Y001479D01*
X002263Y001479D01*
X001778Y001479D01*
X001778Y000731D01*
X002263Y000731D01*
X000777Y004311D02*
X000777Y004397D01*
X000998Y004619D01*
X001497Y004619D01*
X001520Y004596D01*
X005689Y006268D02*
X005689Y006309D01*
X005689Y006268D02*
X005943Y006013D01*
X005948Y005948D01*
X005948Y005779D01*
X006082Y006309D02*
X006075Y006856D01*
X006075Y006540D01*
X006083Y006654D02*
X006075Y006946D01*
X006075Y006880D01*
X006075Y006856D01*
D26*
X001816Y005019D02*
X000908Y005019D01*
M02*
