%
M48
M72
T01C0.0060
%
T01
X658Y1219
X548Y2019
X551Y2938
X505Y3340
X525Y4314
X1487Y3611
X1489Y3342
X1967Y3611
X2147Y3041
X2548Y3379
X2808Y3249
X3088Y3249
X3398Y3259
X3708Y3299
X3698Y3649
X4268Y3089
X4268Y2879
X4298Y2599
X4298Y2379
X3998Y1979
X4608Y1659
X4992Y1559
X5333Y1568
X4937Y2107
X4898Y2639
X4913Y2957
X4953Y3248
X4945Y3530
X4705Y3687
X4445Y3417
X4388Y4109
X4711Y4539
X4418Y4619
X5015Y4362
X5940Y4294
X5955Y4740
X6058Y3799
X5984Y3052
X6118Y2449
X5993Y2168
X4848Y609
X3168Y1579
X2598Y1929
X2138Y2459
X1788Y1919
X1558Y2429
X1358Y1079
X2678Y4019
X2368Y4639
X2958Y4799
X3278Y4759
X3648Y4809
X4943Y5429
X5948Y5779
X6075Y6540
X6075Y6880
X5458Y7629
X5168Y7629
X4888Y7629
X4598Y7629
X4258Y7749
X3928Y7749
X3628Y7749
X3278Y7749
X2998Y7749
X2718Y7749
X2428Y7749
X2128Y7749
X1768Y7789
X1468Y7789
X1168Y7789
X888Y7789
X1288Y6789
X1208Y5699
X1745Y4584
X2548Y6789
X3808Y6789
X5068Y6789
X5758Y7639
M30
