%
M48
M72
T01C0.0060
T02C0.0320
T03C0.1000
%
T01
X855Y2135
X605Y2370
X1175Y2855
X1215Y4115
X1215Y4915
X1055Y5115
X1215Y5315
X1215Y5555
X1215Y5795
X1055Y5995
X1215Y6195
X1255Y7155
X815Y8315
X1255Y8355
X1495Y8355
X1735Y8355
X1975Y8355
X2255Y8355
X2495Y8355
X2735Y8355
X2975Y8355
X3255Y8355
X3535Y8355
X3775Y8355
X4015Y8355
X4255Y8355
X4535Y8355
X4775Y8355
X5015Y8355
X5255Y7235
X5015Y7195
X5055Y6195
X5295Y6155
X5215Y5835
X5055Y5635
X5055Y5395
X5055Y5155
X5055Y4915
X5105Y3750
X5485Y3210
X3895Y3275
X3655Y3275
X3455Y2995
X3615Y2795
X3705Y2320
X3555Y2115
X2895Y1795
X2355Y1040
X1985Y990
X2175Y1795
X2335Y2915
X2775Y3275
X3255Y3275
X505Y6120
T02
X755Y4445
X755Y3820
X755Y3195
X1505Y3195
X4730Y3255
X5505Y4820
X5505Y6820
T03
X4880Y1445
M30
