%
M48
M72
T01C0.0197
T02C0.0400
%
T01
X5045Y5620
X6005Y6100
X5405Y7420
X5045Y7900
X9125Y7300
X9125Y6700
X10085Y6700
X10085Y7300
X16085Y12460
X15125Y12940
X16085Y1540
X15125Y820
X725Y5980
X725Y6460
X725Y7060
X725Y7540
T02
X8125Y8260
X9125Y8260
X10125Y8260
X11125Y8260
X12125Y8260
X13125Y8260
X14125Y8260
X15125Y8260
X16125Y8260
X16125Y5760
X15125Y5760
X14125Y5760
X13125Y5760
X12125Y5760
X11125Y5760
X10125Y5760
X9125Y5760
X8125Y5760
X8125Y2760
X9125Y2760
X10125Y2760
X11125Y2760
X12125Y2760
X13125Y2760
X14125Y2760
X15125Y2760
X16125Y2760
X16125Y11260
X15125Y11260
X14125Y11260
X13125Y11260
X12125Y11260
X11125Y11260
X10125Y11260
X9125Y11260
X8125Y11260
M30
