G75*
G70*
%OFA0B0*%
%FSLAX24Y24*%
%IPPOS*%
%LPD*%
%AMOC8*
5,1,8,0,0,1.08239X$1,22.5*
%
%ADD10R,0.0300X0.0150*%
%ADD11R,0.0400X0.0150*%
%ADD12C,0.0600*%
%ADD13C,0.0120*%
%ADD14C,0.0317*%
D10*
X002255Y004635D03*
X002255Y004885D03*
X002255Y005135D03*
X002255Y005385D03*
X002255Y005635D03*
X002255Y005885D03*
X002255Y006135D03*
X002255Y006385D03*
X002255Y006635D03*
X002255Y006885D03*
X002255Y007135D03*
X002255Y007385D03*
X002255Y007635D03*
X002255Y007885D03*
X002255Y008135D03*
X002255Y008385D03*
X002255Y008635D03*
X002255Y008885D03*
D11*
X002705Y008885D03*
X002705Y008635D03*
X002705Y008385D03*
X002705Y008135D03*
X002705Y007885D03*
X002705Y007635D03*
X002705Y007385D03*
X002705Y007135D03*
X002705Y006885D03*
X002705Y006635D03*
X002705Y006385D03*
X002705Y006135D03*
X002705Y005885D03*
X002705Y005635D03*
X002705Y005385D03*
X002705Y005135D03*
X002705Y004885D03*
X002705Y004635D03*
D12*
X008125Y005460D02*
X008125Y006060D01*
X009125Y006060D02*
X009125Y005460D01*
X010125Y005460D02*
X010125Y006060D01*
X011125Y006060D02*
X011125Y005460D01*
X012125Y005460D02*
X012125Y006060D01*
X013125Y006060D02*
X013125Y005460D01*
X014125Y005460D02*
X014125Y006060D01*
X015125Y006060D02*
X015125Y005460D01*
X016125Y005460D02*
X016125Y006060D01*
X016125Y007960D02*
X016125Y008560D01*
X015125Y008560D02*
X015125Y007960D01*
X014125Y007960D02*
X014125Y008560D01*
X013125Y008560D02*
X013125Y007960D01*
X012125Y007960D02*
X012125Y008560D01*
X011125Y008560D02*
X011125Y007960D01*
X010125Y007960D02*
X010125Y008560D01*
X009125Y008560D02*
X009125Y007960D01*
X008125Y007960D02*
X008125Y008560D01*
X008125Y010960D02*
X008125Y011560D01*
X009125Y011560D02*
X009125Y010960D01*
X010125Y010960D02*
X010125Y011560D01*
X011125Y011560D02*
X011125Y010960D01*
X012125Y010960D02*
X012125Y011560D01*
X013125Y011560D02*
X013125Y010960D01*
X014125Y010960D02*
X014125Y011560D01*
X015125Y011560D02*
X015125Y010960D01*
X016125Y010960D02*
X016125Y011560D01*
X016125Y003060D02*
X016125Y002460D01*
X015125Y002460D02*
X015125Y003060D01*
X014125Y003060D02*
X014125Y002460D01*
X013125Y002460D02*
X013125Y003060D01*
X012125Y003060D02*
X012125Y002460D01*
X011125Y002460D02*
X011125Y003060D01*
X010125Y003060D02*
X010125Y002460D01*
X009125Y002460D02*
X009125Y003060D01*
X008125Y003060D02*
X008125Y002460D01*
D13*
X003485Y000580D02*
X000725Y003340D01*
X000725Y005380D01*
X001480Y006135D01*
X002255Y006135D01*
X002255Y006385D02*
X001130Y006385D01*
X000725Y005980D01*
X000725Y006460D02*
X000900Y006635D01*
X002255Y006635D01*
X002255Y006885D02*
X000900Y006885D01*
X000725Y007060D01*
X001130Y007135D02*
X000725Y007540D01*
X001130Y007135D02*
X002255Y007135D01*
X002255Y007385D02*
X001480Y007385D01*
X000725Y008140D01*
X000725Y010180D01*
X003845Y013300D01*
X012365Y013300D01*
X014165Y011500D01*
X014165Y011300D01*
X014125Y011260D01*
X013125Y011260D02*
X013085Y011300D01*
X013085Y011620D01*
X011645Y013060D01*
X003965Y013060D01*
X000965Y010060D01*
X000965Y008260D01*
X001590Y007635D01*
X002255Y007635D01*
X002255Y007885D02*
X001700Y007885D01*
X001205Y008380D01*
X001205Y009940D01*
X004085Y012820D01*
X010925Y012820D01*
X012125Y011620D01*
X012125Y011260D01*
X011165Y011300D02*
X011125Y011260D01*
X011165Y011300D02*
X011165Y011860D01*
X010445Y012580D01*
X004205Y012580D01*
X001445Y009820D01*
X001445Y008500D01*
X001810Y008135D01*
X002255Y008135D01*
X002255Y008385D02*
X001920Y008385D01*
X001685Y008620D01*
X001685Y009700D01*
X004325Y012340D01*
X009605Y012340D01*
X010085Y011860D01*
X010085Y011300D01*
X010125Y011260D01*
X009125Y011260D02*
X009125Y011740D01*
X008765Y012100D01*
X004445Y012100D01*
X001925Y009580D01*
X001925Y008740D01*
X002030Y008635D01*
X002255Y008635D01*
X002255Y008885D02*
X002255Y009430D01*
X004085Y011260D01*
X008125Y011260D01*
X011045Y009220D02*
X011165Y009100D01*
X011165Y008300D01*
X011125Y008260D01*
X010125Y008260D02*
X010085Y008260D01*
X010085Y007300D01*
X010085Y006700D02*
X010085Y005760D01*
X010125Y005760D01*
X009125Y005760D02*
X009125Y006700D01*
X009125Y007300D02*
X009125Y008260D01*
X008125Y008260D02*
X006750Y006885D01*
X002705Y006885D01*
X002705Y006635D02*
X007250Y006635D01*
X008125Y005760D01*
X006005Y006100D02*
X005720Y006385D01*
X002705Y006385D01*
X002705Y006135D02*
X004530Y006135D01*
X005045Y005620D01*
X004565Y004780D02*
X011045Y004780D01*
X011165Y004900D01*
X011165Y005720D01*
X011125Y005760D01*
X012125Y005760D02*
X012245Y005640D01*
X012245Y004660D01*
X012125Y004540D01*
X004445Y004540D01*
X003350Y005635D01*
X002705Y005635D01*
X002705Y005385D02*
X003240Y005385D01*
X004325Y004300D01*
X012965Y004300D01*
X013205Y004540D01*
X013205Y005680D01*
X013125Y005760D01*
X014125Y005760D02*
X014165Y005720D01*
X014165Y004180D01*
X014045Y004060D01*
X004205Y004060D01*
X003130Y005135D01*
X002705Y005135D01*
X002705Y004885D02*
X003020Y004885D01*
X004085Y003820D01*
X014885Y003820D01*
X015125Y004060D01*
X015125Y005760D01*
X016125Y005760D02*
X016205Y005680D01*
X016205Y003820D01*
X015965Y003580D01*
X003965Y003580D01*
X002910Y004635D01*
X002705Y004635D01*
X002255Y004635D02*
X002255Y003970D01*
X003485Y002740D01*
X008105Y002740D01*
X008125Y002760D01*
X009125Y002760D02*
X009125Y002260D01*
X008645Y001780D01*
X004085Y001780D01*
X001925Y003940D01*
X001925Y004780D01*
X002030Y004885D01*
X002255Y004885D01*
X002255Y005135D02*
X001920Y005135D01*
X001685Y004900D01*
X001685Y003820D01*
X003965Y001540D01*
X009245Y001540D01*
X010085Y002380D01*
X010085Y002720D01*
X010125Y002760D01*
X011125Y002760D02*
X011165Y002720D01*
X011165Y002380D01*
X010085Y001300D01*
X003845Y001300D01*
X001445Y003700D01*
X001445Y005020D01*
X001810Y005385D01*
X002255Y005385D01*
X002255Y005635D02*
X001700Y005635D01*
X001205Y005140D01*
X001205Y003580D01*
X003725Y001060D01*
X011045Y001060D01*
X012125Y002140D01*
X012125Y002760D01*
X013125Y002760D02*
X013205Y002680D01*
X013205Y002380D01*
X011645Y000820D01*
X003605Y000820D01*
X000965Y003460D01*
X000965Y005260D01*
X001590Y005885D01*
X002255Y005885D01*
X002705Y005885D02*
X003460Y005885D01*
X004565Y004780D01*
X005120Y007135D02*
X002705Y007135D01*
X002705Y007385D02*
X004530Y007385D01*
X005045Y007900D01*
X005405Y007420D02*
X005120Y007135D01*
X003580Y007635D02*
X005165Y009220D01*
X011045Y009220D01*
X012005Y009460D02*
X012125Y009340D01*
X012125Y008260D01*
X013085Y008300D02*
X013125Y008260D01*
X013085Y008300D02*
X013085Y009580D01*
X012965Y009700D01*
X004925Y009700D01*
X003360Y008135D01*
X002705Y008135D01*
X002705Y007885D02*
X003470Y007885D01*
X005045Y009460D01*
X012005Y009460D01*
X014045Y009940D02*
X014165Y009820D01*
X014165Y008300D01*
X014125Y008260D01*
X015125Y008260D02*
X015125Y009940D01*
X014885Y010180D01*
X004685Y010180D01*
X003140Y008635D01*
X002705Y008635D01*
X002705Y008885D02*
X003030Y008885D01*
X004565Y010420D01*
X015965Y010420D01*
X016205Y010180D01*
X016205Y008340D01*
X016125Y008260D01*
X014045Y009940D02*
X004805Y009940D01*
X003250Y008385D01*
X002705Y008385D01*
X002705Y007635D02*
X003580Y007635D01*
X003485Y000580D02*
X012365Y000580D01*
X014165Y002380D01*
X014165Y002720D01*
X014125Y002760D01*
X015125Y002760D02*
X015125Y000820D01*
X016085Y001540D02*
X016085Y002720D01*
X016125Y002760D01*
X016125Y011260D02*
X016085Y011300D01*
X016085Y012460D01*
X015125Y012940D02*
X015125Y011260D01*
D14*
X016085Y012460D03*
X015125Y012940D03*
X010085Y007300D03*
X010085Y006700D03*
X009125Y006700D03*
X009125Y007300D03*
X006005Y006100D03*
X005045Y005620D03*
X005405Y007420D03*
X005045Y007900D03*
X000725Y007540D03*
X000725Y007060D03*
X000725Y006460D03*
X000725Y005980D03*
X015125Y000820D03*
X016085Y001540D03*
M02*
