G75*
G70*
%OFA0B0*%
%FSLAX24Y24*%
%IPPOS*%
%LPD*%
%AMOC8*
5,1,8,0,0,1.08239X$1,22.5*
%
%ADD10C,0.0600*%
%ADD11C,0.0317*%
%ADD12C,0.0120*%
D10*
X008125Y002460D02*
X008125Y003060D01*
X009125Y003060D02*
X009125Y002460D01*
X010125Y002460D02*
X010125Y003060D01*
X011125Y003060D02*
X011125Y002460D01*
X012125Y002460D02*
X012125Y003060D01*
X013125Y003060D02*
X013125Y002460D01*
X014125Y002460D02*
X014125Y003060D01*
X015125Y003060D02*
X015125Y002460D01*
X016125Y002460D02*
X016125Y003060D01*
X016125Y005460D02*
X016125Y006060D01*
X015125Y006060D02*
X015125Y005460D01*
X014125Y005460D02*
X014125Y006060D01*
X013125Y006060D02*
X013125Y005460D01*
X012125Y005460D02*
X012125Y006060D01*
X011125Y006060D02*
X011125Y005460D01*
X010125Y005460D02*
X010125Y006060D01*
X009125Y006060D02*
X009125Y005460D01*
X008125Y005460D02*
X008125Y006060D01*
X008125Y007960D02*
X008125Y008560D01*
X009125Y008560D02*
X009125Y007960D01*
X010125Y007960D02*
X010125Y008560D01*
X011125Y008560D02*
X011125Y007960D01*
X012125Y007960D02*
X012125Y008560D01*
X013125Y008560D02*
X013125Y007960D01*
X014125Y007960D02*
X014125Y008560D01*
X015125Y008560D02*
X015125Y007960D01*
X016125Y007960D02*
X016125Y008560D01*
X016125Y010960D02*
X016125Y011560D01*
X015125Y011560D02*
X015125Y010960D01*
X014125Y010960D02*
X014125Y011560D01*
X013125Y011560D02*
X013125Y010960D01*
X012125Y010960D02*
X012125Y011560D01*
X011125Y011560D02*
X011125Y010960D01*
X010125Y010960D02*
X010125Y011560D01*
X009125Y011560D02*
X009125Y010960D01*
X008125Y010960D02*
X008125Y011560D01*
D11*
X005045Y007900D03*
X005405Y007420D03*
X006005Y006100D03*
X005045Y005620D03*
X009125Y006700D03*
X009125Y007300D03*
X010085Y007300D03*
X010085Y006700D03*
X016085Y001540D03*
X015125Y000820D03*
X000725Y005980D03*
X000725Y006460D03*
X000725Y007060D03*
X000725Y007540D03*
X015125Y012940D03*
X016085Y012460D03*
D12*
X003485Y000580D02*
X000725Y003340D01*
X000725Y005980D01*
X000725Y006460D02*
X000965Y006460D01*
X001565Y005860D01*
X001565Y003700D01*
X003845Y001420D01*
X015965Y001420D01*
X016085Y001540D01*
X015125Y000820D02*
X014885Y000580D01*
X003485Y000580D01*
X005885Y004780D02*
X005045Y005620D01*
X006005Y006100D02*
X007325Y006100D01*
X007925Y006700D01*
X009125Y006700D01*
X009125Y007300D02*
X007685Y007300D01*
X007565Y007420D01*
X005405Y007420D01*
X005045Y007900D02*
X006365Y009220D01*
X016445Y009220D01*
X016925Y008740D01*
X016925Y007660D01*
X016565Y007300D01*
X010085Y007300D01*
X010085Y006700D02*
X016565Y006700D01*
X016925Y006340D01*
X016925Y005140D01*
X016565Y004780D01*
X005885Y004780D01*
X001565Y007660D02*
X001565Y009700D01*
X004325Y012460D01*
X016085Y012460D01*
X015125Y012940D02*
X014765Y013300D01*
X003845Y013300D01*
X000725Y010180D01*
X000725Y007540D01*
X000725Y007060D02*
X000965Y007060D01*
X001565Y007660D01*
M02*
