G75*
G70*
%OFA0B0*%
%FSLAX24Y24*%
%IPPOS*%
%LPD*%
%AMOC8*
5,1,8,0,0,1.08239X$1,22.5*
%
%ADD10C,0.0680*%
%ADD11C,0.0397*%
D10*
X008125Y002460D02*
X008125Y003060D01*
X009125Y003060D02*
X009125Y002460D01*
X010125Y002460D02*
X010125Y003060D01*
X011125Y003060D02*
X011125Y002460D01*
X012125Y002460D02*
X012125Y003060D01*
X013125Y003060D02*
X013125Y002460D01*
X014125Y002460D02*
X014125Y003060D01*
X015125Y003060D02*
X015125Y002460D01*
X016125Y002460D02*
X016125Y003060D01*
X016125Y005460D02*
X016125Y006060D01*
X015125Y006060D02*
X015125Y005460D01*
X014125Y005460D02*
X014125Y006060D01*
X013125Y006060D02*
X013125Y005460D01*
X012125Y005460D02*
X012125Y006060D01*
X011125Y006060D02*
X011125Y005460D01*
X010125Y005460D02*
X010125Y006060D01*
X009125Y006060D02*
X009125Y005460D01*
X008125Y005460D02*
X008125Y006060D01*
X008125Y007960D02*
X008125Y008560D01*
X009125Y008560D02*
X009125Y007960D01*
X010125Y007960D02*
X010125Y008560D01*
X011125Y008560D02*
X011125Y007960D01*
X012125Y007960D02*
X012125Y008560D01*
X013125Y008560D02*
X013125Y007960D01*
X014125Y007960D02*
X014125Y008560D01*
X015125Y008560D02*
X015125Y007960D01*
X016125Y007960D02*
X016125Y008560D01*
X016125Y010960D02*
X016125Y011560D01*
X015125Y011560D02*
X015125Y010960D01*
X014125Y010960D02*
X014125Y011560D01*
X013125Y011560D02*
X013125Y010960D01*
X012125Y010960D02*
X012125Y011560D01*
X011125Y011560D02*
X011125Y010960D01*
X010125Y010960D02*
X010125Y011560D01*
X009125Y011560D02*
X009125Y010960D01*
X008125Y010960D02*
X008125Y011560D01*
D11*
X005045Y005620D03*
X006005Y006100D03*
X005405Y007420D03*
X005045Y007900D03*
X009125Y007300D03*
X009125Y006700D03*
X010085Y006700D03*
X010085Y007300D03*
X016085Y012460D03*
X015125Y012940D03*
X016085Y001540D03*
X015125Y000820D03*
X000725Y005980D03*
X000725Y006460D03*
X000725Y007060D03*
X000725Y007540D03*
M02*
