G75*
G70*
%OFA0B0*%
%FSLAX24Y24*%
%IPPOS*%
%LPD*%
%AMOC8*
5,1,8,0,0,1.08239X$1,22.5*
%
%ADD10C,0.0000*%
%ADD11C,0.0030*%
%ADD12C,0.0020*%
%ADD13C,0.0060*%
%ADD14C,0.0050*%
%ADD15C,0.0010*%
D10*
X000125Y000100D02*
X000125Y010100D01*
X010125Y010100D01*
X010125Y000100D01*
X000125Y000100D01*
D11*
X003860Y000835D02*
X004045Y000835D01*
X004107Y000897D01*
X004107Y000958D01*
X004045Y001020D01*
X003860Y001020D01*
X003860Y000835D02*
X003860Y001205D01*
X004045Y001205D01*
X004107Y001144D01*
X004107Y001082D01*
X004045Y001020D01*
X004228Y001082D02*
X004352Y001205D01*
X004352Y000835D01*
X004475Y000835D02*
X004228Y000835D01*
X004820Y000835D02*
X005005Y000835D01*
X005067Y000897D01*
X005067Y000958D01*
X005005Y001020D01*
X004820Y001020D01*
X004820Y000835D02*
X004820Y001205D01*
X005005Y001205D01*
X005067Y001144D01*
X005067Y001082D01*
X005005Y001020D01*
X005188Y001144D02*
X005250Y001205D01*
X005373Y001205D01*
X005435Y001144D01*
X005435Y001082D01*
X005188Y000835D01*
X005435Y000835D01*
X005900Y000835D02*
X006085Y000835D01*
X006147Y000897D01*
X006147Y000958D01*
X006085Y001020D01*
X005900Y001020D01*
X005900Y000835D02*
X005900Y001205D01*
X006085Y001205D01*
X006147Y001144D01*
X006147Y001082D01*
X006085Y001020D01*
X006268Y000897D02*
X006330Y000835D01*
X006453Y000835D01*
X006515Y000897D01*
X006515Y000958D01*
X006453Y001020D01*
X006392Y001020D01*
X006453Y001020D02*
X006515Y001082D01*
X006515Y001144D01*
X006453Y001205D01*
X006330Y001205D01*
X006268Y001144D01*
X006860Y001205D02*
X006860Y000835D01*
X007045Y000835D01*
X007107Y000897D01*
X007107Y000958D01*
X007045Y001020D01*
X006860Y001020D01*
X007045Y001020D02*
X007107Y001082D01*
X007107Y001144D01*
X007045Y001205D01*
X006860Y001205D01*
X007228Y001020D02*
X007475Y001020D01*
X007413Y000835D02*
X007413Y001205D01*
X007228Y001020D01*
X007820Y001020D02*
X008005Y001020D01*
X008067Y000958D01*
X008067Y000897D01*
X008005Y000835D01*
X007820Y000835D01*
X007820Y001205D01*
X008005Y001205D01*
X008067Y001144D01*
X008067Y001082D01*
X008005Y001020D01*
X008188Y001020D02*
X008312Y001082D01*
X008373Y001082D01*
X008435Y001020D01*
X008435Y000897D01*
X008373Y000835D01*
X008250Y000835D01*
X008188Y000897D01*
X008188Y001020D02*
X008188Y001205D01*
X008435Y001205D01*
X008900Y001205D02*
X008900Y000835D01*
X009085Y000835D01*
X009147Y000897D01*
X009147Y000958D01*
X009085Y001020D01*
X008900Y001020D01*
X009085Y001020D02*
X009147Y001082D01*
X009147Y001144D01*
X009085Y001205D01*
X008900Y001205D01*
X009268Y001020D02*
X009268Y000897D01*
X009330Y000835D01*
X009453Y000835D01*
X009515Y000897D01*
X009515Y000958D01*
X009453Y001020D01*
X009268Y001020D01*
X009392Y001144D01*
X009515Y001205D01*
X009453Y008515D02*
X009330Y008515D01*
X009268Y008577D01*
X009268Y008700D01*
X009453Y008700D01*
X009515Y008638D01*
X009515Y008577D01*
X009453Y008515D01*
X009268Y008700D02*
X009392Y008824D01*
X009515Y008885D01*
X009147Y008885D02*
X008900Y008885D01*
X009023Y008885D02*
X009023Y008515D01*
X008435Y008577D02*
X008373Y008515D01*
X008250Y008515D01*
X008188Y008577D01*
X008188Y008700D02*
X008312Y008762D01*
X008373Y008762D01*
X008435Y008700D01*
X008435Y008577D01*
X008188Y008700D02*
X008188Y008885D01*
X008435Y008885D01*
X008067Y008885D02*
X007820Y008885D01*
X007943Y008885D02*
X007943Y008515D01*
X007475Y008700D02*
X007228Y008700D01*
X007413Y008885D01*
X007413Y008515D01*
X006983Y008515D02*
X006983Y008885D01*
X006860Y008885D02*
X007107Y008885D01*
X006515Y008824D02*
X006515Y008762D01*
X006453Y008700D01*
X006515Y008638D01*
X006515Y008577D01*
X006453Y008515D01*
X006330Y008515D01*
X006268Y008577D01*
X006392Y008700D02*
X006453Y008700D01*
X006515Y008824D02*
X006453Y008885D01*
X006330Y008885D01*
X006268Y008824D01*
X006147Y008885D02*
X005900Y008885D01*
X006023Y008885D02*
X006023Y008515D01*
X005435Y008515D02*
X005188Y008515D01*
X005435Y008762D01*
X005435Y008824D01*
X005373Y008885D01*
X005250Y008885D01*
X005188Y008824D01*
X005067Y008885D02*
X004820Y008885D01*
X004943Y008885D02*
X004943Y008515D01*
X004595Y008515D02*
X004348Y008515D01*
X004472Y008515D02*
X004472Y008885D01*
X004348Y008762D01*
X004227Y008885D02*
X003980Y008885D01*
X004103Y008885D02*
X004103Y008515D01*
D12*
X004683Y005527D02*
X004683Y005490D01*
X004683Y005417D02*
X004683Y005270D01*
X004646Y005270D02*
X004720Y005270D01*
X004794Y005307D02*
X004830Y005270D01*
X004940Y005270D01*
X005015Y005270D02*
X005125Y005270D01*
X005161Y005307D01*
X005125Y005343D01*
X005051Y005343D01*
X005015Y005380D01*
X005051Y005417D01*
X005161Y005417D01*
X004940Y005417D02*
X004830Y005417D01*
X004794Y005380D01*
X004794Y005307D01*
X004683Y005417D02*
X004646Y005417D01*
X004572Y005417D02*
X004499Y005417D01*
X004536Y005453D02*
X004536Y005307D01*
X004572Y005270D01*
X004425Y005343D02*
X004278Y005343D01*
X004278Y005307D02*
X004278Y005380D01*
X004315Y005417D01*
X004388Y005417D01*
X004425Y005380D01*
X004425Y005343D01*
X004388Y005270D02*
X004315Y005270D01*
X004278Y005307D01*
X004204Y005270D02*
X004204Y005380D01*
X004167Y005417D01*
X004057Y005417D01*
X004057Y005270D01*
X003983Y005270D02*
X003983Y005380D01*
X003946Y005417D01*
X003909Y005380D01*
X003909Y005270D01*
X003836Y005270D02*
X003836Y005417D01*
X003873Y005417D01*
X003909Y005380D01*
X003762Y005307D02*
X003725Y005270D01*
X003652Y005270D01*
X003615Y005307D01*
X003615Y005453D01*
X003652Y005490D01*
X003725Y005490D01*
X003762Y005453D01*
X003762Y005307D01*
X003725Y004890D02*
X003652Y004890D01*
X003615Y004853D01*
X003615Y004707D01*
X003652Y004670D01*
X003725Y004670D01*
X003762Y004707D01*
X003762Y004853D01*
X003725Y004890D01*
X003836Y004817D02*
X003983Y004817D01*
X003836Y004670D01*
X003983Y004670D01*
X004094Y004707D02*
X004094Y004853D01*
X004130Y004817D02*
X004057Y004817D01*
X004094Y004707D02*
X004130Y004670D01*
X004204Y004707D02*
X004241Y004670D01*
X004351Y004670D01*
X004351Y004817D01*
X004425Y004817D02*
X004425Y004670D01*
X004425Y004743D02*
X004499Y004817D01*
X004535Y004817D01*
X004609Y004890D02*
X004609Y004670D01*
X004609Y004743D02*
X004720Y004817D01*
X004794Y004890D02*
X004794Y004670D01*
X004940Y004670D01*
X005015Y004707D02*
X005051Y004743D01*
X005161Y004743D01*
X005161Y004780D02*
X005161Y004670D01*
X005051Y004670D01*
X005015Y004707D01*
X005051Y004817D02*
X005125Y004817D01*
X005161Y004780D01*
X005236Y004817D02*
X005346Y004817D01*
X005382Y004780D01*
X005382Y004707D01*
X005346Y004670D01*
X005236Y004670D01*
X005236Y004890D01*
X005457Y005270D02*
X005603Y005270D01*
X005530Y005270D02*
X005530Y005490D01*
X005457Y005417D01*
X005678Y005453D02*
X005714Y005490D01*
X005788Y005490D01*
X005824Y005453D01*
X005824Y005417D01*
X005678Y005270D01*
X005824Y005270D01*
X005899Y005380D02*
X006045Y005380D01*
X006120Y005343D02*
X006230Y005343D01*
X006266Y005380D01*
X006266Y005453D01*
X006230Y005490D01*
X006120Y005490D01*
X006120Y005270D01*
X006341Y005270D02*
X006414Y005270D01*
X006377Y005270D02*
X006377Y005417D01*
X006341Y005417D01*
X006377Y005490D02*
X006377Y005527D01*
X006488Y005417D02*
X006598Y005417D01*
X006635Y005380D01*
X006635Y005270D01*
X006488Y005270D02*
X006488Y005417D01*
X006930Y005380D02*
X007040Y005380D01*
X007077Y005343D01*
X007077Y005307D01*
X007040Y005270D01*
X006930Y005270D01*
X006930Y005490D01*
X007040Y005490D01*
X007077Y005453D01*
X007077Y005417D01*
X007040Y005380D01*
X007151Y005343D02*
X007224Y005417D01*
X007261Y005417D01*
X007335Y005380D02*
X007372Y005417D01*
X007445Y005417D01*
X007482Y005380D01*
X007482Y005343D01*
X007335Y005343D01*
X007335Y005307D02*
X007335Y005380D01*
X007335Y005307D02*
X007372Y005270D01*
X007445Y005270D01*
X007556Y005307D02*
X007593Y005343D01*
X007703Y005343D01*
X007703Y005380D02*
X007703Y005270D01*
X007593Y005270D01*
X007556Y005307D01*
X007593Y005417D02*
X007666Y005417D01*
X007703Y005380D01*
X007777Y005343D02*
X007887Y005417D01*
X007961Y005380D02*
X007961Y005307D01*
X007998Y005270D01*
X008071Y005270D01*
X008108Y005307D01*
X008108Y005380D01*
X008071Y005417D01*
X007998Y005417D01*
X007961Y005380D01*
X007887Y005270D02*
X007777Y005343D01*
X007777Y005270D02*
X007777Y005490D01*
X008182Y005417D02*
X008182Y005307D01*
X008219Y005270D01*
X008329Y005270D01*
X008329Y005417D01*
X008403Y005417D02*
X008476Y005417D01*
X008440Y005453D02*
X008440Y005307D01*
X008476Y005270D01*
X007151Y005270D02*
X007151Y005417D01*
X004720Y004670D02*
X004609Y004743D01*
X004204Y004707D02*
X004204Y004817D01*
D13*
X004375Y002600D02*
X003875Y002600D01*
X003625Y002350D01*
X003625Y001850D01*
X003875Y001600D01*
X004375Y001600D01*
X004625Y001850D01*
X004875Y001600D01*
X005375Y001600D01*
X005625Y001850D01*
X005625Y002350D01*
X005375Y002600D01*
X004875Y002600D01*
X004625Y002350D01*
X004625Y001850D01*
X004625Y002350D02*
X004375Y002600D01*
X005625Y002350D02*
X005875Y002600D01*
X006375Y002600D01*
X006625Y002350D01*
X006875Y002600D01*
X007375Y002600D01*
X007625Y002350D01*
X007875Y002600D01*
X008375Y002600D01*
X008625Y002350D01*
X008875Y002600D01*
X009375Y002600D01*
X009625Y002350D01*
X009625Y001850D01*
X009375Y001600D01*
X008875Y001600D01*
X008625Y001850D01*
X008375Y001600D01*
X007875Y001600D01*
X007625Y001850D01*
X007375Y001600D01*
X006875Y001600D01*
X006625Y001850D01*
X006375Y001600D01*
X005875Y001600D01*
X005625Y001850D01*
X006625Y001850D02*
X006625Y002350D01*
X007625Y002350D02*
X007625Y001850D01*
X008625Y001850D02*
X008625Y002350D01*
X008375Y007100D02*
X007875Y007100D01*
X007625Y007350D01*
X007375Y007100D01*
X006875Y007100D01*
X006625Y007350D01*
X006375Y007100D01*
X005875Y007100D01*
X005625Y007350D01*
X005375Y007100D01*
X004875Y007100D01*
X004625Y007350D01*
X004375Y007100D01*
X003875Y007100D01*
X003625Y007350D01*
X003625Y007850D01*
X003875Y008100D01*
X004375Y008100D01*
X004625Y007850D01*
X004875Y008100D01*
X005375Y008100D01*
X005625Y007850D01*
X005625Y007350D01*
X005625Y007850D02*
X005875Y008100D01*
X006375Y008100D01*
X006625Y007850D01*
X006875Y008100D01*
X007375Y008100D01*
X007625Y007850D01*
X007875Y008100D01*
X008375Y008100D01*
X008625Y007850D01*
X008875Y008100D01*
X009375Y008100D01*
X009625Y007850D01*
X009625Y007350D01*
X009375Y007100D01*
X008875Y007100D01*
X008625Y007350D01*
X008375Y007100D01*
X008625Y007350D02*
X008625Y007850D01*
X007625Y007850D02*
X007625Y007350D01*
X006625Y007350D02*
X006625Y007850D01*
X004625Y007850D02*
X004625Y007350D01*
D14*
X003770Y008345D02*
X003770Y008795D01*
X003620Y008795D02*
X003920Y008795D01*
X001825Y005975D02*
X001825Y004225D01*
X000125Y004225D01*
X000125Y005975D01*
X001825Y005975D01*
X003620Y003295D02*
X003845Y003295D01*
X003920Y003220D01*
X003920Y003145D01*
X003845Y003070D01*
X003620Y003070D01*
X003620Y002845D02*
X003620Y003295D01*
X003845Y003070D02*
X003920Y002995D01*
X003920Y002920D01*
X003845Y002845D01*
X003620Y002845D01*
D15*
X000974Y006139D02*
X000914Y006139D01*
X000944Y006139D02*
X000944Y006229D01*
X000914Y006199D01*
X000882Y006214D02*
X000867Y006229D01*
X000837Y006229D01*
X000821Y006214D01*
X000821Y006199D01*
X000837Y006184D01*
X000867Y006184D01*
X000882Y006169D01*
X000882Y006154D01*
X000867Y006139D01*
X000837Y006139D01*
X000821Y006154D01*
X000789Y006154D02*
X000789Y006229D01*
X000729Y006229D02*
X000729Y006154D01*
X000744Y006139D01*
X000774Y006139D01*
X000789Y006154D01*
X000852Y006124D02*
X000852Y006244D01*
M02*
